%TF.GenerationSoftware,KiCad,Pcbnew,10.0.6*%
%TF.CreationDate,2026-09-21T15:13:28-05:00*%
%TF.ProjectId,Ember,456d6265-722e-46b6-9963-61645f706362,rev?*%
%TF.SameCoordinates,Original*%
%TF.FileFunction,Copper,L1,Top*%
%TF.FilePolarity,Positive*%
%FSLAX46Y46*%
G04 Gerber Fmt 4.6, Leading zero omitted, Abs format (unit mm)*
G04 Created by KiCad (PCBNEW 10.0.6) date 2026-09-21 15:13:28*
%MOMM*%
%LPD*%
G01*
G04 APERTURE LIST*
G04 Aperture macros list*
%AMRoundRect*
0 Rectangle with rounded corners*
0 $1 Rounding radius*
0 $2 $3 $4 $5 $6 $7 $8 $9 X,Y pos of 4 corners*
0 Add a 4 corners polygon primitive as box body*
4,1,4,$2,$3,$4,$5,$6,$7,$8,$9,$2,$3,0*
0 Add four circle primitives for the rounded corners*
1,1,$1+$1,$2,$3*
1,1,$1+$1,$4,$5*
1,1,$1+$1,$6,$7*
1,1,$1+$1,$8,$9*
0 Add four rect primitives between the rounded corners*
20,1,$1+$1,$2,$3,$4,$5,0*
20,1,$1+$1,$4,$5,$6,$7,0*
20,1,$1+$1,$6,$7,$8,$9,0*
20,1,$1+$1,$8,$9,$2,$3,0*%
G04 Aperture macros list end*
%TA.AperFunction,ComponentPad*%
%ADD10C,1.700000*%
%TD*%
%TA.AperFunction,ComponentPad*%
%ADD11R,1.700000X1.700000*%
%TD*%
%TA.AperFunction,ComponentPad*%
%ADD12C,1.600000*%
%TD*%
%TA.AperFunction,ComponentPad*%
%ADD13RoundRect,0.250000X-0.550000X-0.550000X0.550000X-0.550000X0.550000X0.550000X-0.550000X0.550000X0*%
%TD*%
%TA.AperFunction,ComponentPad*%
%ADD14O,1.050000X1.500000*%
%TD*%
%TA.AperFunction,ComponentPad*%
%ADD15R,1.050000X1.500000*%
%TD*%
%TA.AperFunction,SMDPad,CuDef*%
%ADD16R,1.800000X2.200000*%
%TD*%
%TA.AperFunction,SMDPad,CuDef*%
%ADD17R,0.300000X1.300000*%
%TD*%
%TA.AperFunction,ViaPad*%
%ADD18C,0.600000*%
%TD*%
%TA.AperFunction,Conductor*%
%ADD19C,0.200000*%
%TD*%
G04 APERTURE END LIST*
D10*
%TO.P,J1,11,Pin_22_11*%
%TO.N,/C0*%
X136973682Y-92474715D03*
%TO.P,J1,10,Pin_21_10*%
%TO.N,/C1*%
X136973682Y-89934715D03*
%TO.P,J1,9,Pin_20_9*%
%TO.N,/C2*%
X136973682Y-87394715D03*
%TO.P,J1,8,Pin_19_8*%
%TO.N,/C3*%
X136973682Y-84854715D03*
%TO.P,J1,7,Pin_18_7*%
%TO.N,/C4*%
X136973682Y-82314715D03*
%TO.P,J1,6,Pin_17_6*%
%TO.N,/C5*%
X136973682Y-79774715D03*
%TO.P,J1,5,Pin_16_5*%
%TO.N,/C6*%
X136973682Y-77234715D03*
%TO.P,J1,4,Pin_15_4*%
%TO.N,/C7*%
X136973682Y-74694715D03*
%TO.P,J1,3,Pin_14_3*%
%TO.N,unconnected-(J1-Pin_14-Pad3)*%
X136973682Y-72154715D03*
%TO.P,J1,2,Pin_13_2*%
%TO.N,unconnected-(J1-Pin_13-Pad2)*%
X136973682Y-69614715D03*
D11*
%TO.P,J1,1,Pin_12_1*%
%TO.N,GND*%
X136973682Y-67074715D03*
%TD*%
%TO.P,J2,1,Pin_1_1*%
%TO.N,+3V3*%
X159833682Y-67074715D03*
D10*
%TO.P,J2,2,Pin_2_2*%
%TO.N,+5V*%
X159833682Y-69614715D03*
%TO.P,J2,3,Pin_3_3*%
%TO.N,GND*%
X159833682Y-72154715D03*
%TO.P,J2,4,Pin_4_4*%
%TO.N,/D0*%
X159833682Y-74694715D03*
%TO.P,J2,5,Pin_5_5*%
%TO.N,/D1*%
X159833682Y-77234715D03*
%TO.P,J2,6,Pin_6_6*%
%TO.N,/D2*%
X159833682Y-79774715D03*
%TO.P,J2,7,Pin_7_7*%
%TO.N,/D3*%
X159833682Y-82314715D03*
%TO.P,J2,8,Pin_8_8*%
%TO.N,/D4*%
X159833682Y-84854715D03*
%TO.P,J2,9,Pin_9_9*%
%TO.N,/D5*%
X159833682Y-87394715D03*
%TO.P,J2,10,Pin_10_10*%
%TO.N,/D6*%
X159833682Y-89934715D03*
%TO.P,J2,11,Pin_11_11*%
%TO.N,/D7*%
X159833682Y-92474715D03*
%TD*%
D12*
%TO.P,C9,2*%
%TO.N,GND*%
X136893682Y-115334715D03*
%TO.P,C9,1*%
%TO.N,+3V3*%
X131893682Y-115334715D03*
%TD*%
%TO.P,C7,2*%
%TO.N,/PUMP_11*%
X126733682Y-132691382D03*
%TO.P,C7,1*%
%TO.N,/PUMP_10*%
X121733682Y-132691382D03*
%TD*%
%TO.P,C8,2*%
%TO.N,GND*%
X136893682Y-110254715D03*
%TO.P,C8,1*%
%TO.N,/PUMP_12_13*%
X131893682Y-110254715D03*
%TD*%
%TO.P,C10,2*%
%TO.N,GND*%
X164873682Y-112794715D03*
D13*
%TO.P,C10,1*%
%TO.N,+3V3*%
X162373682Y-112794715D03*
%TD*%
D12*
%TO.P,C6,2*%
%TO.N,/PUMP_9*%
X126733682Y-125494715D03*
%TO.P,C6,1*%
%TO.N,/PUMP_8*%
X121733682Y-125494715D03*
%TD*%
%TO.P,R3,1*%
%TO.N,Net-(Q1-B)*%
X139513682Y-115334715D03*
%TO.P,R3,2*%
%TO.N,GND*%
X149673682Y-115334715D03*
%TD*%
D11*
%TO.P,J6,1,Pin_1_1*%
%TO.N,+3V3*%
X166183684Y-119139715D03*
D10*
%TO.P,J6,2,Pin_2_2*%
%TO.N,GND*%
X166183684Y-121679715D03*
%TO.P,J6,3,Pin_3_3*%
%TO.N,/BIAS3*%
X163643684Y-119139715D03*
%TO.P,J6,4,Pin_4_4*%
%TO.N,/BIAS4*%
X163643684Y-121679715D03*
%TO.P,J6,5,Pin_5_5*%
%TO.N,/BIAS5*%
X161103684Y-119139715D03*
%TO.P,J6,6,Pin_6_6*%
%TO.N,/BIAS6*%
X161103684Y-121679715D03*
%TO.P,J6,7,Pin_7_7*%
%TO.N,/BIAS7*%
X158563684Y-119139715D03*
%TO.P,J6,8,Pin_8_8*%
%TO.N,/PUMP_8*%
X158563684Y-121679715D03*
%TO.P,J6,9,Pin_9_9*%
%TO.N,/PUMP_9*%
X156023684Y-119139715D03*
%TO.P,J6,10,Pin_10_10*%
%TO.N,/PUMP_10*%
X156023684Y-121679715D03*
%TO.P,J6,11,Pin_11_11*%
%TO.N,/PUMP_11*%
X153483684Y-119139715D03*
%TO.P,J6,12,Pin_12_12*%
%TO.N,/PUMP_12_13*%
X153483684Y-121679715D03*
%TO.P,J6,13,Pin_13_13*%
X150943684Y-119139715D03*
%TO.P,J6,14,Pin_14_14*%
%TO.N,GND*%
X150943684Y-121679715D03*
%TO.P,J6,15,Pin_15_15*%
%TO.N,+3V3*%
X148403684Y-119139715D03*
%TO.P,J6,16,Pin_16_16*%
%TO.N,/D7*%
X148403684Y-121679715D03*
%TO.P,J6,17,Pin_17_17*%
%TO.N,/D6*%
X145863684Y-119139715D03*
%TO.P,J6,18,Pin_18_18*%
%TO.N,/D5*%
X145863684Y-121679715D03*
%TO.P,J6,19,Pin_19_19*%
%TO.N,/D4*%
X143323684Y-119139715D03*
%TO.P,J6,20,Pin_20_20*%
%TO.N,/D3*%
X143323684Y-121679715D03*
%TO.P,J6,21,Pin_21_21*%
%TO.N,/D2*%
X140783684Y-119139715D03*
%TO.P,J6,22,Pin_22_22*%
%TO.N,/D1*%
X140783684Y-121679715D03*
%TO.P,J6,23,Pin_23_23*%
%TO.N,/D0*%
X138243684Y-119139715D03*
%TO.P,J6,24,Pin_24_24*%
%TO.N,/C0*%
X138243684Y-121679715D03*
%TO.P,J6,25,Pin_25_25*%
%TO.N,/C1*%
X135703684Y-119139715D03*
%TO.P,J6,26,Pin_26_26*%
%TO.N,/C2*%
X135703684Y-121679715D03*
%TO.P,J6,27,Pin_27_27*%
%TO.N,/C3*%
X133163684Y-119139715D03*
%TO.P,J6,28,Pin_28_28*%
%TO.N,/C4*%
X133163684Y-121679715D03*
%TD*%
D14*
%TO.P,Q1,3,E_3*%
%TO.N,GND*%
X157293682Y-112794715D03*
%TO.P,Q1,2,B_2*%
%TO.N,Net-(Q1-B)*%
X156023682Y-112794715D03*
D15*
%TO.P,Q1,1,C_1*%
%TO.N,Net-(J4-Pin_2)*%
X154753682Y-112794715D03*
%TD*%
D12*
%TO.P,R1,2*%
%TO.N,Net-(J4-Pin_1)*%
X149673682Y-105174715D03*
%TO.P,R1,1*%
%TO.N,+5V*%
X139513682Y-105174715D03*
%TD*%
%TO.P,R2,2*%
%TO.N,Net-(Q1-B)*%
X149673682Y-110254715D03*
%TO.P,R2,1*%
%TO.N,/C5*%
X139513682Y-110254715D03*
%TD*%
D10*
%TO.P,J4,2,Pin_2_2*%
%TO.N,Net-(J4-Pin_2)*%
X135673682Y-126174715D03*
D11*
%TO.P,J4,1,Pin_1_1*%
%TO.N,Net-(J4-Pin_1)*%
X133133682Y-126174715D03*
%TD*%
D16*
%TO.P,J3,MP*%
%TO.N,N/C*%
X141023684Y-131714715D03*
X158323684Y-131714715D03*
D17*
%TO.P,J3,28,Pin_28_28*%
%TO.N,/C4*%
X142923684Y-134964715D03*
%TO.P,J3,27,Pin_27_27*%
%TO.N,/C3*%
X143423684Y-134964715D03*
%TO.P,J3,26,Pin_26_26*%
%TO.N,/C2*%
X143923684Y-134964715D03*
%TO.P,J3,25,Pin_25_25*%
%TO.N,/C1*%
X144423684Y-134964715D03*
%TO.P,J3,24,Pin_24_24*%
%TO.N,/C0*%
X144923684Y-134964715D03*
%TO.P,J3,23,Pin_23_23*%
%TO.N,/D0*%
X145423684Y-134964715D03*
%TO.P,J3,22,Pin_22_22*%
%TO.N,/D1*%
X145923684Y-134964715D03*
%TO.P,J3,21,Pin_21_21*%
%TO.N,/D2*%
X146423684Y-134964715D03*
%TO.P,J3,20,Pin_20_20*%
%TO.N,/D3*%
X146923684Y-134964715D03*
%TO.P,J3,19,Pin_19_19*%
%TO.N,/D4*%
X147423684Y-134964715D03*
%TO.P,J3,18,Pin_18_18*%
%TO.N,/D5*%
X147923684Y-134964715D03*
%TO.P,J3,17,Pin_17_17*%
%TO.N,/D6*%
X148423684Y-134964715D03*
%TO.P,J3,16,Pin_16_16*%
%TO.N,/D7*%
X148923684Y-134964715D03*
%TO.P,J3,15,Pin_15_15*%
%TO.N,+3V3*%
X149423684Y-134964715D03*
%TO.P,J3,14,Pin_14_14*%
%TO.N,GND*%
X149923684Y-134964715D03*
%TO.P,J3,13,Pin_13_13*%
%TO.N,/PUMP_12_13*%
X150423684Y-134964715D03*
%TO.P,J3,12,Pin_12_12*%
X150923684Y-134964715D03*
%TO.P,J3,11,Pin_11_11*%
%TO.N,/PUMP_11*%
X151423684Y-134964715D03*
%TO.P,J3,10,Pin_10_10*%
%TO.N,/PUMP_10*%
X151923684Y-134964715D03*
%TO.P,J3,9,Pin_9_9*%
%TO.N,/PUMP_9*%
X152423684Y-134964715D03*
%TO.P,J3,8,Pin_8_8*%
%TO.N,/PUMP_8*%
X152923684Y-134964715D03*
%TO.P,J3,7,Pin_7_7*%
%TO.N,/BIAS7*%
X153423684Y-134964715D03*
%TO.P,J3,6,Pin_6_6*%
%TO.N,/BIAS6*%
X153923684Y-134964715D03*
%TO.P,J3,5,Pin_5_5*%
%TO.N,/BIAS5*%
X154423684Y-134964715D03*
%TO.P,J3,4,Pin_4_4*%
%TO.N,/BIAS4*%
X154923684Y-134964715D03*
%TO.P,J3,3,Pin_3_3*%
%TO.N,/BIAS3*%
X155423684Y-134964715D03*
%TO.P,J3,2,Pin_2_2*%
%TO.N,GND*%
X155923684Y-134964715D03*
%TO.P,J3,1,Pin_1_1*%
%TO.N,+3V3*%
X156423684Y-134964715D03*
%TD*%
D12*
%TO.P,C5,2*%
%TO.N,GND*%
X126733682Y-118298049D03*
%TO.P,C5,1*%
%TO.N,/BIAS7*%
X121733682Y-118298049D03*
%TD*%
%TO.P,C1,1*%
%TO.N,/BIAS3*%
X169993682Y-111101382D03*
%TO.P,C1,2*%
%TO.N,GND*%
X174993682Y-111101382D03*
%TD*%
%TO.P,C4,2*%
%TO.N,GND*%
X174993682Y-125494715D03*
%TO.P,C4,1*%
%TO.N,/BIAS6*%
X169993682Y-125494715D03*
%TD*%
%TO.P,C2,1*%
%TO.N,/BIAS4*%
X169993682Y-118298049D03*
%TO.P,C2,2*%
%TO.N,GND*%
X174993682Y-118298049D03*
%TD*%
%TO.P,C3,2*%
%TO.N,GND*%
X174993682Y-132691382D03*
%TO.P,C3,1*%
%TO.N,/BIAS5*%
X169993682Y-132691382D03*
%TD*%
D10*
%TO.P,J5,2,Pin_2_2*%
%TO.N,/C7*%
X124273682Y-107714715D03*
D11*
%TO.P,J5,1,Pin_1_1*%
%TO.N,/C6*%
X124273682Y-110254715D03*
%TD*%
D18*
%TO.N,/PUMP_11*%
X154753682Y-120414715D03*
%TO.N,GND*%
X127448682Y-112794715D03*
%TO.N,/D4*%
X148403682Y-84854715D03*
%TO.N,/C3*%
X143958682Y-137394715D03*
%TO.N,/C6*%
X121098682Y-106444715D03*
%TO.N,+3V3*%
X164913682Y-125494715D03*
%TO.N,/D6*%
X136338682Y-105174715D03*
%TO.N,/BIAS3*%
X169993682Y-113429715D03*
%TO.N,/C6*%
X121098682Y-103269715D03*
%TO.N,/C3*%
X158093685Y-137394715D03*
%TO.N,/BIAS4*%
X168723682Y-116604715D03*
%TO.N,/PUMP_11*%
X138878682Y-130739718D03*
%TO.N,Net-(Q1-B)*%
X142053682Y-112794715D03*
%TO.N,/PUMP_9*%
X129353682Y-126724715D03*
%TO.N,/PUMP_8*%
X143179175Y-126909223D03*
%TO.N,/BIAS5*%
X163008682Y-127399715D03*
%TO.N,GND*%
X150023684Y-129939715D03*
%TO.N,Net-(Q1-B)*%
X148403682Y-112794715D03*
%TO.N,/BIAS5*%
X169993682Y-129304715D03*
%TO.N,Net-(J4-Pin_1)*%
X139650914Y-98961946D03*
%TO.N,GND*%
X158563682Y-125035057D03*
%TO.N,/PUMP_9*%
X129353682Y-128034715D03*
%TO.N,/BIAS6*%
X168623583Y-125994715D03*
%TO.N,GND*%
X156867948Y-131418981D03*
%TO.N,Net-(J4-Pin_1)*%
X137658778Y-125035057D03*
%TO.N,/PUMP_9*%
X143523684Y-127631244D03*
%TO.N,/C4*%
X161063531Y-137394715D03*
%TO.N,/PUMP_10*%
X138878682Y-129939715D03*
%TO.N,/C4*%
X142688682Y-137394715D03*
%TO.N,/D3*%
X148403682Y-82314715D03*
%TO.N,/D7*%
X148403682Y-92474715D03*
%TO.N,/D6*%
X148403682Y-89934715D03*
%TO.N,+3V3*%
X148403682Y-117239715D03*
%TO.N,/D1*%
X148403682Y-77234715D03*
%TO.N,/D4*%
X129793682Y-120414715D03*
%TO.N,/D2*%
X148403682Y-79774715D03*
%TO.N,/D0*%
X148403682Y-74694715D03*
%TO.N,/PUMP_12_13*%
X150943682Y-117239715D03*
%TO.N,/D5*%
X148403682Y-87394715D03*
%TO.N,/BIAS7*%
X149673682Y-116634718D03*
%TO.N,/C2*%
X157293682Y-137394715D03*
%TO.N,Net-(J4-Pin_2)*%
X137608682Y-126129715D03*
%TO.N,/BIAS7*%
X156658682Y-117239715D03*
%TO.N,/D7*%
X148403682Y-107714715D03*
%TO.N,/BIAS7*%
X153093684Y-113392657D03*
%TO.N,Net-(J4-Pin_2)*%
X154011917Y-123482950D03*
%TO.N,/BIAS7*%
X145228682Y-116604715D03*
%TO.N,/C2*%
X145039471Y-137394715D03*
%TO.N,GND*%
X132528682Y-112794715D03*
%TD*%
%TO.N,/BIAS5*%
D19*
X154423684Y-131883345D02*
X156970156Y-129336873D01*
X162253684Y-120289715D02*
X161103684Y-119139715D01*
%TO.N,/BIAS3*%
X164313682Y-122636063D02*
X164913682Y-122036063D01*
X164913682Y-122036063D02*
X164913682Y-120409713D01*
X164313682Y-127434715D02*
X164313682Y-122636063D01*
X164475840Y-127596873D02*
X164313682Y-127434715D01*
X161935840Y-130136873D02*
X164475840Y-127596873D01*
X164913682Y-120409713D02*
X163643684Y-119139715D01*
X157301526Y-130136873D02*
X161935840Y-130136873D01*
X155423684Y-132014715D02*
X157301526Y-130136873D01*
X155423684Y-134964715D02*
X155423684Y-132014715D01*
%TO.N,/BIAS4*%
X163643684Y-127323347D02*
X163643684Y-121679715D01*
X163913682Y-127593345D02*
X163643684Y-127323347D01*
X157135841Y-129736873D02*
X161770154Y-129736873D01*
X154923684Y-131949030D02*
X157135841Y-129736873D01*
X154923684Y-134964715D02*
X154923684Y-131949030D01*
X161770154Y-129736873D02*
X163913682Y-127593345D01*
%TO.N,/BIAS5*%
X161604468Y-129336873D02*
X162253684Y-128687657D01*
X156970156Y-129336873D02*
X161604468Y-129336873D01*
%TO.N,/D0*%
X142573340Y-124035057D02*
X141773340Y-123235057D01*
%TO.N,/BIAS6*%
X161853684Y-122429715D02*
X161103684Y-121679715D01*
%TO.N,/BIAS7*%
X160752338Y-122954715D02*
X159833682Y-122036059D01*
%TO.N,/PUMP_8*%
X161053684Y-128034715D02*
X161053684Y-124169715D01*
%TO.N,/BIAS6*%
X161853684Y-128521971D02*
X161853684Y-122429715D01*
X161438782Y-128936873D02*
X161853684Y-128521971D01*
X156804471Y-128936873D02*
X161438782Y-128936873D01*
X153923684Y-131817659D02*
X156804471Y-128936873D01*
X153923684Y-134964715D02*
X153923684Y-131817659D01*
%TO.N,/C0*%
X142407654Y-124435057D02*
X141607654Y-123635057D01*
%TO.N,/BIAS7*%
X161453684Y-122954715D02*
X160752338Y-122954715D01*
X159833682Y-120409713D02*
X158563684Y-119139715D01*
X156638786Y-128536873D02*
X161273096Y-128536873D01*
X159833682Y-122036059D02*
X159833682Y-120409713D01*
X153423684Y-131751975D02*
X156638786Y-128536873D01*
X153423684Y-134964715D02*
X153423684Y-131751975D01*
X161273096Y-128536873D02*
X161453684Y-128356285D01*
X161453684Y-128356285D02*
X161453684Y-122954715D01*
%TO.N,/PUMP_8*%
X161053684Y-124169715D02*
X158563684Y-121679715D01*
X152923684Y-134964715D02*
X152923684Y-131686290D01*
X152923684Y-131686290D02*
X156575259Y-128034715D01*
X156575259Y-128034715D02*
X161053684Y-128034715D01*
%TO.N,/PUMP_12_13*%
X150923684Y-134964715D02*
X150923684Y-133114715D01*
%TO.N,/PUMP_9*%
X157173684Y-121916061D02*
X157173684Y-120289715D01*
X157173684Y-120289715D02*
X156023684Y-119139715D01*
X159553340Y-123235057D02*
X158492680Y-123235057D01*
X152423684Y-131620605D02*
X156409574Y-127634715D01*
X156409574Y-127634715D02*
X160653684Y-127634715D01*
X158492680Y-123235057D02*
X157173684Y-121916061D01*
X160653684Y-124335401D02*
X159553340Y-123235057D01*
X152423684Y-134964715D02*
X152423684Y-131620605D01*
X160653684Y-127634715D02*
X160653684Y-124335401D01*
%TO.N,/PUMP_11*%
X156752680Y-124035057D02*
X154753682Y-122036059D01*
%TO.N,/PUMP_10*%
X159387654Y-123635057D02*
X157979026Y-123635057D01*
X160253684Y-127234715D02*
X160253684Y-124501087D01*
X151923684Y-134964715D02*
X151923684Y-131554920D01*
X157979026Y-123635057D02*
X156023684Y-121679715D01*
X151923684Y-131554920D02*
X156243889Y-127234715D01*
X156243889Y-127234715D02*
X160253684Y-127234715D01*
X160253684Y-124501087D02*
X159387654Y-123635057D01*
%TO.N,/PUMP_11*%
X159221968Y-124035057D02*
X156752680Y-124035057D01*
X159833682Y-124646771D02*
X159221968Y-124035057D01*
X151423684Y-131489235D02*
X156078204Y-126834715D01*
X154753682Y-122036059D02*
X154753682Y-120409713D01*
X151423684Y-134964715D02*
X151423684Y-131489235D01*
X159833682Y-126834715D02*
X159833682Y-124646771D01*
X156078204Y-126834715D02*
X159833682Y-126834715D01*
%TO.N,/PUMP_12_13*%
X159056282Y-124435057D02*
X156239026Y-124435057D01*
X155912519Y-126434715D02*
X159433682Y-126434715D01*
X150923684Y-131423550D02*
X155912519Y-126434715D01*
X156239026Y-124435057D02*
X153483684Y-121679715D01*
X150923684Y-133114715D02*
X150923684Y-131423550D01*
X159433682Y-126434715D02*
X159433682Y-124812457D01*
X159433682Y-124812457D02*
X159056282Y-124435057D01*
X150423684Y-134964715D02*
X150423684Y-133614715D01*
%TO.N,/D0*%
X143981968Y-124035057D02*
X142573340Y-124035057D01*
%TO.N,/PUMP_12_13*%
X150423684Y-133614715D02*
X150923684Y-133114715D01*
%TO.N,/D0*%
X145301626Y-125354714D02*
X143981968Y-124035057D01*
%TO.N,/BIAS5*%
X162253684Y-126644717D02*
X162253684Y-120289715D01*
%TO.N,/D0*%
X146123684Y-132451972D02*
X146123684Y-125354715D01*
X145423684Y-134964715D02*
X145423684Y-133151972D01*
X146123684Y-125354715D02*
X145301626Y-125354714D01*
%TO.N,/BIAS5*%
X154423684Y-134964715D02*
X154423684Y-131883345D01*
%TO.N,/PUMP_12_13*%
X153483684Y-121679715D02*
X150943684Y-119139715D01*
%TO.N,/C6*%
X121098682Y-77869715D02*
X121098682Y-103269715D01*
X121098682Y-107079715D02*
X124273682Y-110254715D01*
X121098682Y-106444715D02*
X121098682Y-107079715D01*
X123638682Y-75329715D02*
X121098682Y-77869715D01*
X135068682Y-75329715D02*
X123638682Y-75329715D01*
X136973682Y-77234715D02*
X135068682Y-75329715D01*
%TO.N,/D0*%
X159833682Y-74694715D02*
X148403682Y-74694715D01*
%TO.N,/D1*%
X159833682Y-77234715D02*
X148403682Y-77234715D01*
%TO.N,+3V3*%
X157673684Y-134964715D02*
X164913682Y-127724717D01*
X164913682Y-127724717D02*
X164913682Y-125494715D01*
X156423684Y-134964715D02*
X157673684Y-134964715D01*
%TO.N,/PUMP_8*%
X123563682Y-127324715D02*
X137824024Y-127324715D01*
X140779224Y-125635057D02*
X142053390Y-126909223D01*
X139513682Y-125635057D02*
X140779224Y-125635057D01*
X137824024Y-127324715D02*
X139513682Y-125635057D01*
X121733682Y-125494715D02*
X123563682Y-127324715D01*
X142053390Y-126909223D02*
X143179175Y-126909223D01*
%TO.N,Net-(J4-Pin_2)*%
X154540153Y-112794715D02*
X154753682Y-112794715D01*
%TO.N,GND*%
X149923684Y-134964715D02*
X149923684Y-130039715D01*
X149923684Y-130039715D02*
X150023684Y-129939715D01*
%TO.N,Net-(J4-Pin_2)*%
X150467338Y-120289715D02*
X149793684Y-119616061D01*
%TO.N,/C0*%
X145723684Y-125754715D02*
X145135940Y-125754714D01*
X145723684Y-132286286D02*
X145723684Y-125754715D01*
X144923684Y-133086286D02*
X145723684Y-132286286D01*
X144923684Y-134964715D02*
X144923684Y-133086286D01*
%TO.N,/C2*%
X137659026Y-123635057D02*
X135703684Y-121679715D01*
%TO.N,/C1*%
X144423684Y-134964715D02*
X144423684Y-133020600D01*
X142241968Y-124835057D02*
X141441968Y-124035057D01*
X143650596Y-124835057D02*
X142241968Y-124835057D01*
X145323684Y-132120600D02*
X145323684Y-126154714D01*
X136973682Y-120409713D02*
X135703684Y-119139715D01*
X145323684Y-126154714D02*
X144970254Y-126154714D01*
X141441968Y-124035057D02*
X140033340Y-124035057D01*
X139233340Y-123235057D02*
X138172680Y-123235057D01*
X140033340Y-124035057D02*
X139233340Y-123235057D01*
X144970254Y-126154714D02*
X143650596Y-124835057D01*
X136973682Y-122036059D02*
X136973682Y-120409713D01*
X138172680Y-123235057D02*
X136973682Y-122036059D01*
X144423684Y-133020600D02*
X145323684Y-132120600D01*
%TO.N,/C2*%
X139067654Y-123635057D02*
X137659026Y-123635057D01*
X142076282Y-125235057D02*
X141276282Y-124435057D01*
X143484910Y-125235057D02*
X142076282Y-125235057D01*
X144923684Y-131954914D02*
X144923684Y-126554714D01*
X143923684Y-134964715D02*
X143923684Y-132954914D01*
X144804568Y-126554714D02*
X143484910Y-125235057D01*
X143923684Y-132954914D02*
X144923684Y-131954914D01*
X144923684Y-126554714D02*
X144804568Y-126554714D01*
X141276282Y-124435057D02*
X139867654Y-124435057D01*
X139867654Y-124435057D02*
X139067654Y-123635057D01*
%TO.N,/C3*%
X134433682Y-120409713D02*
X133163684Y-119139715D01*
X134433682Y-122036059D02*
X134433682Y-120409713D01*
X135632680Y-123235057D02*
X134433682Y-122036059D01*
X144523684Y-126839516D02*
X143319224Y-125635057D01*
X139701968Y-124835057D02*
X138901968Y-124035057D01*
X137493340Y-124035057D02*
X136693340Y-123235057D01*
X143423684Y-132889228D02*
X144523684Y-131789228D01*
X141110596Y-124835057D02*
X139701968Y-124835057D01*
X136693340Y-123235057D02*
X135632680Y-123235057D01*
X143423684Y-134964715D02*
X143423684Y-132889228D01*
X144523684Y-131789228D02*
X144523684Y-126839516D01*
X141910596Y-125635057D02*
X141110596Y-124835057D01*
X138901968Y-124035057D02*
X137493340Y-124035057D01*
X143319224Y-125635057D02*
X141910596Y-125635057D01*
%TO.N,/C4*%
X135119026Y-123635057D02*
X133163684Y-121679715D01*
X140944910Y-125235057D02*
X139536282Y-125235057D01*
X139536282Y-125235057D02*
X138736282Y-124435057D01*
X142923684Y-134964715D02*
X142923684Y-132823542D01*
X136527654Y-123635057D02*
X135119026Y-123635057D01*
X144123684Y-127005202D02*
X143153539Y-126035057D01*
X142923684Y-132823542D02*
X144123684Y-131623543D01*
X138736282Y-124435057D02*
X137327654Y-124435057D01*
X143153539Y-126035057D02*
X141744910Y-126035057D01*
X144123684Y-131623543D02*
X144123684Y-127005202D01*
X137327654Y-124435057D02*
X136527654Y-123635057D01*
X141744910Y-126035057D02*
X140944910Y-125235057D01*
%TO.N,/C0*%
X140199026Y-123635057D02*
X138243684Y-121679715D01*
%TO.N,+3V3*%
X149673682Y-120409713D02*
X148403684Y-119139715D01*
X149673682Y-122036063D02*
X149673682Y-120409713D01*
X149423684Y-122286061D02*
X149673682Y-122036063D01*
X149423684Y-134964715D02*
X149423684Y-122286061D01*
X156423684Y-135864715D02*
X156423684Y-134964715D01*
X156373684Y-135914715D02*
X156423684Y-135864715D01*
X149473684Y-135914715D02*
X156373684Y-135914715D01*
X149423684Y-135864715D02*
X149473684Y-135914715D01*
X149423684Y-134964715D02*
X149423684Y-135864715D01*
%TO.N,/D7*%
X148923684Y-122199715D02*
X148403684Y-121679715D01*
X148923684Y-134964715D02*
X148923684Y-122199715D01*
%TO.N,/D6*%
X147133682Y-120409713D02*
X145863684Y-119139715D01*
X147133682Y-122036059D02*
X147133682Y-120409713D01*
X148052338Y-122954715D02*
X147133682Y-122036059D01*
X148523684Y-122954715D02*
X148052338Y-122954715D01*
X148523684Y-133964715D02*
X148523684Y-122954715D01*
X148423684Y-134964715D02*
X148423684Y-134064715D01*
X148423684Y-134064715D02*
X148523684Y-133964715D01*
%TO.N,/D5*%
X147538684Y-123354715D02*
X145863684Y-121679715D01*
X148123684Y-123354715D02*
X147538684Y-123354715D01*
X147923684Y-134964715D02*
X147923684Y-133904717D01*
X147923684Y-133904717D02*
X148123684Y-133704717D01*
X148123684Y-133704717D02*
X148123684Y-123354715D01*
%TO.N,/D3*%
X145798684Y-124154715D02*
X143323684Y-121679715D01*
%TO.N,/D4*%
X144593682Y-120409713D02*
X143323684Y-119139715D01*
X144593682Y-122036059D02*
X144593682Y-120409713D01*
X147723684Y-123754715D02*
X146312338Y-123754715D01*
X147723684Y-133114715D02*
X147723684Y-123754715D01*
X147423684Y-133414715D02*
X147723684Y-133114715D01*
X146312338Y-123754715D02*
X144593682Y-122036059D01*
X147423684Y-134964715D02*
X147423684Y-133414715D01*
%TO.N,/C0*%
X141607654Y-123635057D02*
X140199026Y-123635057D01*
%TO.N,/D3*%
X147323684Y-124154715D02*
X145798684Y-124154715D01*
X146923684Y-133349029D02*
X147323684Y-132949029D01*
X147323684Y-132949029D02*
X147323684Y-124154715D01*
X146923684Y-134964715D02*
X146923684Y-133349029D01*
%TO.N,/D1*%
X144147654Y-123635057D02*
X142739026Y-123635057D01*
%TO.N,/D2*%
X141933684Y-121916061D02*
X141933684Y-120289715D01*
X143252680Y-123235057D02*
X141933684Y-121916061D01*
X144313340Y-123235057D02*
X143252680Y-123235057D01*
X146923684Y-124554715D02*
X145632998Y-124554715D01*
X141933684Y-120289715D02*
X140783684Y-119139715D01*
X146423684Y-134964715D02*
X146423684Y-133283343D01*
X146423684Y-133283343D02*
X146757999Y-132949029D01*
X145632998Y-124554715D02*
X145398684Y-124320400D01*
X146757999Y-132949029D02*
X146923684Y-132783343D01*
X146923684Y-132783343D02*
X146923684Y-124554715D01*
X145398684Y-124320400D02*
X144313340Y-123235057D01*
%TO.N,/D1*%
X146523684Y-132617658D02*
X146523684Y-124954715D01*
X145467312Y-124954714D02*
X144147654Y-123635057D01*
X142739026Y-123635057D02*
X140783684Y-121679715D01*
X145923684Y-133217658D02*
X146523684Y-132617658D01*
X145923684Y-134964715D02*
X145923684Y-133217658D01*
X146523684Y-124954715D02*
X145467312Y-124954714D01*
%TO.N,/C0*%
X145135940Y-125754714D02*
X143816282Y-124435057D01*
X143816282Y-124435057D02*
X142407654Y-124435057D01*
%TO.N,/D0*%
X139513682Y-122036059D02*
X139513682Y-120409713D01*
X141773340Y-123235057D02*
X140712680Y-123235057D01*
X140712680Y-123235057D02*
X139513682Y-122036059D01*
X145423684Y-133151972D02*
X146123684Y-132451972D01*
X139513682Y-120409713D02*
X138243684Y-119139715D01*
%TO.N,+3V3*%
X168893682Y-123744717D02*
X164913682Y-127724717D01*
%TO.N,/PUMP_12_13*%
X150943684Y-119139715D02*
X150943684Y-117239717D01*
X150943684Y-117239717D02*
X150943682Y-117239715D01*
%TO.N,+3V3*%
X168893682Y-121849713D02*
X168893682Y-123744717D01*
X148403684Y-117239717D02*
X148403682Y-117239715D01*
X148403684Y-119139715D02*
X148403684Y-117239717D01*
X166183684Y-119139715D02*
X168893682Y-121849713D01*
X162373682Y-115329713D02*
X166183684Y-119139715D01*
X162373682Y-112794715D02*
X162373682Y-115329713D01*
%TO.N,/C7*%
X120463682Y-103904715D02*
X124273682Y-107714715D01*
X123638682Y-74694715D02*
X120463682Y-77869715D01*
X136973682Y-74694715D02*
X123638682Y-74694715D01*
X120463682Y-77869715D02*
X120463682Y-103904715D01*
%TO.N,/D2*%
X159833682Y-79774715D02*
X148403682Y-79774715D01*
%TO.N,/D3*%
X159833682Y-82314715D02*
X148403682Y-82314715D01*
%TO.N,/D4*%
X159833682Y-84854715D02*
X148403682Y-84854715D01*
%TO.N,/D5*%
X159833682Y-87394715D02*
X148403682Y-87394715D01*
%TO.N,/D6*%
X159833682Y-89934715D02*
X148403682Y-89934715D01*
%TO.N,/D7*%
X159833682Y-92474715D02*
X148403682Y-92474715D01*
%TO.N,/C1*%
X136973682Y-89934715D02*
X141964112Y-89934715D01*
X169098012Y-115846744D02*
X171093682Y-117842414D01*
X171093682Y-117842414D02*
X171093682Y-119649715D01*
X141964112Y-89934715D02*
X163281397Y-111252000D01*
X166306653Y-115846744D02*
X169098012Y-115846744D01*
%TO.N,/D4*%
X129793682Y-120414715D02*
X132218682Y-117989715D01*
X142173684Y-117989715D02*
X143323684Y-119139715D01*
X132218682Y-117989715D02*
X142173684Y-117989715D01*
%TO.N,/D6*%
X136338682Y-105174715D02*
X145863684Y-114699717D01*
%TO.N,/D7*%
X147253684Y-119964029D02*
X148403684Y-121114029D01*
%TO.N,/D6*%
X145863684Y-114699717D02*
X145863684Y-119139715D01*
%TO.N,/D7*%
X148403684Y-121114029D02*
X148403684Y-121679715D01*
X147253684Y-108864713D02*
X147253684Y-119964029D01*
X148403682Y-107714715D02*
X147253684Y-108864713D01*
%TO.N,/C1*%
X171093682Y-119649715D02*
X169693682Y-121049715D01*
X166306653Y-112672051D02*
X166306653Y-115846744D01*
X169693682Y-124076089D02*
X156445055Y-137324715D01*
X164886602Y-111252000D02*
X166306653Y-112672051D01*
X169693682Y-121049715D02*
X169693682Y-124076089D01*
X163281397Y-111252000D02*
X164886602Y-111252000D01*
%TO.N,/C0*%
X145983684Y-136924715D02*
X144923684Y-135864715D01*
X144923684Y-135864715D02*
X144923684Y-134964715D01*
X169293682Y-123910403D02*
X156279370Y-136924715D01*
X163473682Y-112009971D02*
X163473682Y-113579459D01*
X156279370Y-136924715D02*
X145983684Y-136924715D01*
X169293682Y-119399459D02*
X169293682Y-123910403D01*
X163473682Y-113579459D02*
X169293682Y-119399459D01*
X143938426Y-92474715D02*
X163473682Y-112009971D01*
X136973682Y-92474715D02*
X143938426Y-92474715D01*
%TO.N,/C1*%
X145817998Y-137324715D02*
X144423684Y-135930401D01*
X144423684Y-135930401D02*
X144423684Y-134964715D01*
X156445055Y-137324715D02*
X145817998Y-137324715D01*
%TO.N,/C2*%
X143923684Y-136278928D02*
X143923684Y-134964715D01*
X145039471Y-137394715D02*
X143923684Y-136278928D01*
X141595002Y-87394715D02*
X171493682Y-117293395D01*
X136973682Y-87394715D02*
X141595002Y-87394715D01*
X170449317Y-126594715D02*
X167918682Y-126594715D01*
X157293682Y-137041775D02*
X157293682Y-137394715D01*
X171493682Y-125550350D02*
X170449317Y-126594715D01*
X167918682Y-126594715D02*
X167829712Y-126505745D01*
X167829712Y-126505745D02*
X157293682Y-137041775D01*
X171493682Y-117293395D02*
X171493682Y-125550350D01*
%TO.N,/BIAS6*%
X169993682Y-125494715D02*
X169123583Y-125494715D01*
%TO.N,/C3*%
X143423684Y-136859717D02*
X143423684Y-134964715D01*
X171893682Y-125716036D02*
X160215003Y-137394715D01*
X139620687Y-84854715D02*
X171893682Y-117127710D01*
X160215003Y-137394715D02*
X158093685Y-137394715D01*
X143958682Y-137394715D02*
X143423684Y-136859717D01*
X136973682Y-84854715D02*
X139620687Y-84854715D01*
X171893682Y-117127710D02*
X171893682Y-125716036D01*
%TO.N,/C4*%
X172293682Y-125881722D02*
X161063531Y-137111873D01*
%TO.N,+5V*%
X160070028Y-81164715D02*
X160983682Y-80251061D01*
%TO.N,/C4*%
X160310028Y-91324715D02*
X172293682Y-103308369D01*
X139092211Y-82314715D02*
X148102211Y-91324715D01*
X142923684Y-137159713D02*
X142923684Y-134964715D01*
X148102211Y-91324715D02*
X160310028Y-91324715D01*
X161063531Y-137111873D02*
X161063531Y-137394715D01*
X136973682Y-82314715D02*
X139092211Y-82314715D01*
X142688682Y-137394715D02*
X142923684Y-137159713D01*
X172293682Y-103308369D02*
X172293682Y-125881722D01*
%TO.N,+5V*%
X160983682Y-80251061D02*
X160983682Y-70764715D01*
X135823682Y-81838369D02*
X136497336Y-81164715D01*
X160983682Y-70764715D02*
X159833682Y-69614715D01*
X135823682Y-101484715D02*
X135823682Y-81838369D01*
X136497336Y-81164715D02*
X160070028Y-81164715D01*
X139513682Y-105174715D02*
X135823682Y-101484715D01*
%TO.N,/C5*%
X135423682Y-81324715D02*
X135423682Y-106164715D01*
X135423682Y-106164715D02*
X139513682Y-110254715D01*
X136973682Y-79774715D02*
X135423682Y-81324715D01*
%TO.N,Net-(Q1-B)*%
X154433682Y-110254715D02*
X156023682Y-111844715D01*
X149673682Y-111524715D02*
X148403682Y-112794715D01*
%TO.N,Net-(J4-Pin_2)*%
X135718682Y-126129715D02*
X135673682Y-126174715D01*
X137608682Y-126129715D02*
X135718682Y-126129715D01*
%TO.N,Net-(Q1-B)*%
X156023682Y-111844715D02*
X156023682Y-112794715D01*
X149673682Y-110254715D02*
X154433682Y-110254715D01*
%TO.N,Net-(J4-Pin_1)*%
X139650914Y-98961946D02*
X145863683Y-105174715D01*
X145863683Y-105174715D02*
X149673682Y-105174715D01*
X137648436Y-125024715D02*
X137658778Y-125035057D01*
X133133682Y-126174715D02*
X134283682Y-125024715D01*
X134283682Y-125024715D02*
X137648436Y-125024715D01*
%TO.N,Net-(Q1-B)*%
X142053682Y-112794715D02*
X139513682Y-115334715D01*
X149673682Y-110254715D02*
X149673682Y-111524715D01*
%TO.N,/BIAS7*%
X156658682Y-117239715D02*
X156663684Y-117239715D01*
X153093684Y-113470348D02*
X153093684Y-113392657D01*
X156663684Y-117239715D02*
X158563684Y-119139715D01*
X123427016Y-116604715D02*
X145228682Y-116604715D01*
X149673682Y-116634718D02*
X149929314Y-116634718D01*
X121733682Y-118298049D02*
X123427016Y-116604715D01*
X149929314Y-116634718D02*
X153093684Y-113470348D01*
%TO.N,/PUMP_9*%
X142209725Y-127631244D02*
X143523684Y-127631244D01*
X139584710Y-126129715D02*
X140708196Y-126129715D01*
X137679710Y-128034715D02*
X139584710Y-126129715D01*
X129353682Y-128034715D02*
X137679710Y-128034715D01*
X140708196Y-126129715D02*
X142209725Y-127631244D01*
X128123682Y-125494715D02*
X129353682Y-126724715D01*
X126733682Y-125494715D02*
X128123682Y-125494715D01*
%TO.N,/BIAS3*%
X169993682Y-111101382D02*
X169993682Y-113429715D01*
%TO.N,/PUMP_10*%
X121733682Y-132691382D02*
X124485349Y-129939715D01*
X124485349Y-129939715D02*
X138878682Y-129939715D01*
%TO.N,/PUMP_11*%
X126733682Y-132691382D02*
X128685346Y-130739718D01*
X128685346Y-130739718D02*
X138878682Y-130739718D01*
%TO.N,/BIAS4*%
X169993682Y-118298049D02*
X168723682Y-117028049D01*
X168723682Y-117028049D02*
X168723682Y-116604715D01*
%TO.N,/BIAS6*%
X169123583Y-125494715D02*
X168623583Y-125994715D01*
%TO.N,/BIAS5*%
X169993682Y-132691382D02*
X169993682Y-129304715D01*
X163008682Y-127399715D02*
X162253684Y-126644717D01*
X162253684Y-128687657D02*
X162253684Y-126644717D01*
%TO.N,GND*%
X132528682Y-112794715D02*
X127448682Y-112794715D01*
%TO.N,/PUMP_11*%
X154753682Y-120409713D02*
X153483684Y-119139715D01*
X154753682Y-120414715D02*
X154753682Y-120409713D01*
%TO.N,Net-(J4-Pin_2)*%
X151180030Y-120289715D02*
X150467338Y-120289715D01*
X152093684Y-121203369D02*
X151180030Y-120289715D01*
%TO.N,GND*%
X155923684Y-132363245D02*
X156867948Y-131418981D01*
X155923684Y-134964715D02*
X155923684Y-132363245D01*
%TO.N,Net-(J4-Pin_2)*%
X152093684Y-122156061D02*
X152093684Y-121203369D01*
X153420573Y-123482950D02*
X152093684Y-122156061D01*
X154011917Y-123482950D02*
X153420573Y-123482950D01*
X149793684Y-117541184D02*
X154540153Y-112794715D01*
X149793684Y-119616061D02*
X149793684Y-117541184D01*
%TO.N,GND*%
X150943684Y-121679715D02*
X154299026Y-125035057D01*
X154299026Y-125035057D02*
X158563682Y-125035057D01*
%TD*%
M02*
