%TF.GenerationSoftware,KiCad,Pcbnew,10.0.6*%
%TF.CreationDate,2026-09-21T15:13:28-05:00*%
%TF.ProjectId,Ember,456d6265-722e-46b6-9963-61645f706362,rev?*%
%TF.SameCoordinates,Original*%
%TF.FileFunction,Soldermask,Top*%
%TF.FilePolarity,Negative*%
%FSLAX46Y46*%
G04 Gerber Fmt 4.6, Leading zero omitted, Abs format (unit mm)*
G04 Created by KiCad (PCBNEW 10.0.6) date 2026-09-21 15:13:28*
%MOMM*%
%LPD*%
G01*
G04 APERTURE LIST*
G04 Aperture macros list*
%AMRoundRect*
0 Rectangle with rounded corners*
0 $1 Rounding radius*
0 $2 $3 $4 $5 $6 $7 $8 $9 X,Y pos of 4 corners*
0 Add a 4 corners polygon primitive as box body*
4,1,4,$2,$3,$4,$5,$6,$7,$8,$9,$2,$3,0*
0 Add four circle primitives for the rounded corners*
1,1,$1+$1,$2,$3*
1,1,$1+$1,$4,$5*
1,1,$1+$1,$6,$7*
1,1,$1+$1,$8,$9*
0 Add four rect primitives between the rounded corners*
20,1,$1+$1,$2,$3,$4,$5,0*
20,1,$1+$1,$4,$5,$6,$7,0*
20,1,$1+$1,$6,$7,$8,$9,0*
20,1,$1+$1,$8,$9,$2,$3,0*%
G04 Aperture macros list end*
%ADD10C,1.700000*%
%ADD11R,1.700000X1.700000*%
%ADD12C,1.600000*%
%ADD13RoundRect,0.250000X-0.550000X-0.550000X0.550000X-0.550000X0.550000X0.550000X-0.550000X0.550000X0*%
%ADD14O,1.050000X1.500000*%
%ADD15R,1.050000X1.500000*%
%ADD16R,1.800000X2.200000*%
%ADD17R,0.300000X1.300000*%
%ADD18C,3.200000*%
G04 APERTURE END LIST*
D10*
%TO.C,J1*%
X136973682Y-92474715D03*
X136973682Y-89934715D03*
X136973682Y-87394715D03*
X136973682Y-84854715D03*
X136973682Y-82314715D03*
X136973682Y-79774715D03*
X136973682Y-77234715D03*
X136973682Y-74694715D03*
X136973682Y-72154715D03*
X136973682Y-69614715D03*
D11*
X136973682Y-67074715D03*
%TD*%
%TO.C,J2*%
X159833682Y-67074715D03*
D10*
X159833682Y-69614715D03*
X159833682Y-72154715D03*
X159833682Y-74694715D03*
X159833682Y-77234715D03*
X159833682Y-79774715D03*
X159833682Y-82314715D03*
X159833682Y-84854715D03*
X159833682Y-87394715D03*
X159833682Y-89934715D03*
X159833682Y-92474715D03*
%TD*%
D12*
%TO.C,C9*%
X136893682Y-115334715D03*
X131893682Y-115334715D03*
%TD*%
%TO.C,C7*%
X126733682Y-132691382D03*
X121733682Y-132691382D03*
%TD*%
%TO.C,C8*%
X136893682Y-110254715D03*
X131893682Y-110254715D03*
%TD*%
%TO.C,C10*%
X164873682Y-112794715D03*
D13*
X162373682Y-112794715D03*
%TD*%
D12*
%TO.C,C6*%
X126733682Y-125494715D03*
X121733682Y-125494715D03*
%TD*%
%TO.C,R3*%
X139513682Y-115334715D03*
X149673682Y-115334715D03*
%TD*%
D11*
%TO.C,J6*%
X166183684Y-119139715D03*
D10*
X166183684Y-121679715D03*
X163643684Y-119139715D03*
X163643684Y-121679715D03*
X161103684Y-119139715D03*
X161103684Y-121679715D03*
X158563684Y-119139715D03*
X158563684Y-121679715D03*
X156023684Y-119139715D03*
X156023684Y-121679715D03*
X153483684Y-119139715D03*
X153483684Y-121679715D03*
X150943684Y-119139715D03*
X150943684Y-121679715D03*
X148403684Y-119139715D03*
X148403684Y-121679715D03*
X145863684Y-119139715D03*
X145863684Y-121679715D03*
X143323684Y-119139715D03*
X143323684Y-121679715D03*
X140783684Y-119139715D03*
X140783684Y-121679715D03*
X138243684Y-119139715D03*
X138243684Y-121679715D03*
X135703684Y-119139715D03*
X135703684Y-121679715D03*
X133163684Y-119139715D03*
X133163684Y-121679715D03*
%TD*%
D14*
%TO.C,Q1*%
X157293682Y-112794715D03*
X156023682Y-112794715D03*
D15*
X154753682Y-112794715D03*
%TD*%
D12*
%TO.C,R1*%
X149673682Y-105174715D03*
X139513682Y-105174715D03*
%TD*%
%TO.C,R2*%
X149673682Y-110254715D03*
X139513682Y-110254715D03*
%TD*%
D10*
%TO.C,J4*%
X135673682Y-126174715D03*
D11*
X133133682Y-126174715D03*
%TD*%
D16*
%TO.C,J3*%
X141023684Y-131714715D03*
X158323684Y-131714715D03*
D17*
X142923684Y-134964715D03*
X143423684Y-134964715D03*
X143923684Y-134964715D03*
X144423684Y-134964715D03*
X144923684Y-134964715D03*
X145423684Y-134964715D03*
X145923684Y-134964715D03*
X146423684Y-134964715D03*
X146923684Y-134964715D03*
X147423684Y-134964715D03*
X147923684Y-134964715D03*
X148423684Y-134964715D03*
X148923684Y-134964715D03*
X149423684Y-134964715D03*
X149923684Y-134964715D03*
X150423684Y-134964715D03*
X150923684Y-134964715D03*
X151423684Y-134964715D03*
X151923684Y-134964715D03*
X152423684Y-134964715D03*
X152923684Y-134964715D03*
X153423684Y-134964715D03*
X153923684Y-134964715D03*
X154423684Y-134964715D03*
X154923684Y-134964715D03*
X155423684Y-134964715D03*
X155923684Y-134964715D03*
X156423684Y-134964715D03*
%TD*%
D12*
%TO.C,C5*%
X126733682Y-118298049D03*
X121733682Y-118298049D03*
%TD*%
%TO.C,C1*%
X169993682Y-111101382D03*
X174993682Y-111101382D03*
%TD*%
%TO.C,C4*%
X174993682Y-125494715D03*
X169993682Y-125494715D03*
%TD*%
%TO.C,C2*%
X169993682Y-118298049D03*
X174993682Y-118298049D03*
%TD*%
%TO.C,C3*%
X174993682Y-132691382D03*
X169993682Y-132691382D03*
%TD*%
D10*
%TO.C,J5*%
X124273682Y-107714715D03*
D11*
X124273682Y-110254715D03*
%TD*%
D18*
%TO.C,REF\u002A\u002A*%
X172533682Y-90569715D03*
%TD*%
%TO.C,REF\u002A\u002A*%
X124908682Y-67709715D03*
%TD*%
%TO.C,REF\u002A\u002A*%
X124908682Y-90569715D03*
%TD*%
%TO.C,REF\u002A\u002A*%
X172533682Y-67709715D03*
%TD*%
M02*
