%TF.GenerationSoftware,KiCad,Pcbnew,10.0.6*%
%TF.CreationDate,2026-09-21T15:13:28-05:00*%
%TF.ProjectId,Ember,456d6265-722e-46b6-9963-61645f706362,rev?*%
%TF.SameCoordinates,Original*%
%TF.FileFunction,Copper,L2,Bot*%
%TF.FilePolarity,Positive*%
%FSLAX46Y46*%
G04 Gerber Fmt 4.6, Leading zero omitted, Abs format (unit mm)*
G04 Created by KiCad (PCBNEW 10.0.6) date 2026-09-21 15:13:28*
%MOMM*%
%LPD*%
G01*
G04 APERTURE LIST*
G04 Aperture macros list*
%AMRoundRect*
0 Rectangle with rounded corners*
0 $1 Rounding radius*
0 $2 $3 $4 $5 $6 $7 $8 $9 X,Y pos of 4 corners*
0 Add a 4 corners polygon primitive as box body*
4,1,4,$2,$3,$4,$5,$6,$7,$8,$9,$2,$3,0*
0 Add four circle primitives for the rounded corners*
1,1,$1+$1,$2,$3*
1,1,$1+$1,$4,$5*
1,1,$1+$1,$6,$7*
1,1,$1+$1,$8,$9*
0 Add four rect primitives between the rounded corners*
20,1,$1+$1,$2,$3,$4,$5,0*
20,1,$1+$1,$4,$5,$6,$7,0*
20,1,$1+$1,$6,$7,$8,$9,0*
20,1,$1+$1,$8,$9,$2,$3,0*%
G04 Aperture macros list end*
%TA.AperFunction,ComponentPad*%
%ADD10C,1.700000*%
%TD*%
%TA.AperFunction,ComponentPad*%
%ADD11R,1.700000X1.700000*%
%TD*%
%TA.AperFunction,ComponentPad*%
%ADD12C,1.600000*%
%TD*%
%TA.AperFunction,ComponentPad*%
%ADD13RoundRect,0.250000X-0.550000X-0.550000X0.550000X-0.550000X0.550000X0.550000X-0.550000X0.550000X0*%
%TD*%
%TA.AperFunction,ComponentPad*%
%ADD14O,1.050000X1.500000*%
%TD*%
%TA.AperFunction,ComponentPad*%
%ADD15R,1.050000X1.500000*%
%TD*%
%TA.AperFunction,ViaPad*%
%ADD16C,0.600000*%
%TD*%
%TA.AperFunction,Conductor*%
%ADD17C,0.200000*%
%TD*%
G04 APERTURE END LIST*
D10*
%TO.P,J1,11,Pin_22_11*%
%TO.N,/C0*%
X136973682Y-92474715D03*
%TO.P,J1,10,Pin_21_10*%
%TO.N,/C1*%
X136973682Y-89934715D03*
%TO.P,J1,9,Pin_20_9*%
%TO.N,/C2*%
X136973682Y-87394715D03*
%TO.P,J1,8,Pin_19_8*%
%TO.N,/C3*%
X136973682Y-84854715D03*
%TO.P,J1,7,Pin_18_7*%
%TO.N,/C4*%
X136973682Y-82314715D03*
%TO.P,J1,6,Pin_17_6*%
%TO.N,/C5*%
X136973682Y-79774715D03*
%TO.P,J1,5,Pin_16_5*%
%TO.N,/C6*%
X136973682Y-77234715D03*
%TO.P,J1,4,Pin_15_4*%
%TO.N,/C7*%
X136973682Y-74694715D03*
%TO.P,J1,3,Pin_14_3*%
%TO.N,unconnected-(J1-Pin_14-Pad3)*%
X136973682Y-72154715D03*
%TO.P,J1,2,Pin_13_2*%
%TO.N,unconnected-(J1-Pin_13-Pad2)*%
X136973682Y-69614715D03*
D11*
%TO.P,J1,1,Pin_12_1*%
%TO.N,GND*%
X136973682Y-67074715D03*
%TD*%
%TO.P,J2,1,Pin_1_1*%
%TO.N,+3V3*%
X159833682Y-67074715D03*
D10*
%TO.P,J2,2,Pin_2_2*%
%TO.N,+5V*%
X159833682Y-69614715D03*
%TO.P,J2,3,Pin_3_3*%
%TO.N,GND*%
X159833682Y-72154715D03*
%TO.P,J2,4,Pin_4_4*%
%TO.N,/D0*%
X159833682Y-74694715D03*
%TO.P,J2,5,Pin_5_5*%
%TO.N,/D1*%
X159833682Y-77234715D03*
%TO.P,J2,6,Pin_6_6*%
%TO.N,/D2*%
X159833682Y-79774715D03*
%TO.P,J2,7,Pin_7_7*%
%TO.N,/D3*%
X159833682Y-82314715D03*
%TO.P,J2,8,Pin_8_8*%
%TO.N,/D4*%
X159833682Y-84854715D03*
%TO.P,J2,9,Pin_9_9*%
%TO.N,/D5*%
X159833682Y-87394715D03*
%TO.P,J2,10,Pin_10_10*%
%TO.N,/D6*%
X159833682Y-89934715D03*
%TO.P,J2,11,Pin_11_11*%
%TO.N,/D7*%
X159833682Y-92474715D03*
%TD*%
D12*
%TO.P,C9,2*%
%TO.N,GND*%
X136893682Y-115334715D03*
%TO.P,C9,1*%
%TO.N,+3V3*%
X131893682Y-115334715D03*
%TD*%
%TO.P,C7,2*%
%TO.N,/PUMP_11*%
X126733682Y-132691382D03*
%TO.P,C7,1*%
%TO.N,/PUMP_10*%
X121733682Y-132691382D03*
%TD*%
%TO.P,C8,2*%
%TO.N,GND*%
X136893682Y-110254715D03*
%TO.P,C8,1*%
%TO.N,/PUMP_12_13*%
X131893682Y-110254715D03*
%TD*%
%TO.P,C10,2*%
%TO.N,GND*%
X164873682Y-112794715D03*
D13*
%TO.P,C10,1*%
%TO.N,+3V3*%
X162373682Y-112794715D03*
%TD*%
D12*
%TO.P,C6,2*%
%TO.N,/PUMP_9*%
X126733682Y-125494715D03*
%TO.P,C6,1*%
%TO.N,/PUMP_8*%
X121733682Y-125494715D03*
%TD*%
%TO.P,R3,1*%
%TO.N,Net-(Q1-B)*%
X139513682Y-115334715D03*
%TO.P,R3,2*%
%TO.N,GND*%
X149673682Y-115334715D03*
%TD*%
D11*
%TO.P,J6,1,Pin_1_1*%
%TO.N,+3V3*%
X166183684Y-119139715D03*
D10*
%TO.P,J6,2,Pin_2_2*%
%TO.N,GND*%
X166183684Y-121679715D03*
%TO.P,J6,3,Pin_3_3*%
%TO.N,/BIAS3*%
X163643684Y-119139715D03*
%TO.P,J6,4,Pin_4_4*%
%TO.N,/BIAS4*%
X163643684Y-121679715D03*
%TO.P,J6,5,Pin_5_5*%
%TO.N,/BIAS5*%
X161103684Y-119139715D03*
%TO.P,J6,6,Pin_6_6*%
%TO.N,/BIAS6*%
X161103684Y-121679715D03*
%TO.P,J6,7,Pin_7_7*%
%TO.N,/BIAS7*%
X158563684Y-119139715D03*
%TO.P,J6,8,Pin_8_8*%
%TO.N,/PUMP_8*%
X158563684Y-121679715D03*
%TO.P,J6,9,Pin_9_9*%
%TO.N,/PUMP_9*%
X156023684Y-119139715D03*
%TO.P,J6,10,Pin_10_10*%
%TO.N,/PUMP_10*%
X156023684Y-121679715D03*
%TO.P,J6,11,Pin_11_11*%
%TO.N,/PUMP_11*%
X153483684Y-119139715D03*
%TO.P,J6,12,Pin_12_12*%
%TO.N,/PUMP_12_13*%
X153483684Y-121679715D03*
%TO.P,J6,13,Pin_13_13*%
X150943684Y-119139715D03*
%TO.P,J6,14,Pin_14_14*%
%TO.N,GND*%
X150943684Y-121679715D03*
%TO.P,J6,15,Pin_15_15*%
%TO.N,+3V3*%
X148403684Y-119139715D03*
%TO.P,J6,16,Pin_16_16*%
%TO.N,/D7*%
X148403684Y-121679715D03*
%TO.P,J6,17,Pin_17_17*%
%TO.N,/D6*%
X145863684Y-119139715D03*
%TO.P,J6,18,Pin_18_18*%
%TO.N,/D5*%
X145863684Y-121679715D03*
%TO.P,J6,19,Pin_19_19*%
%TO.N,/D4*%
X143323684Y-119139715D03*
%TO.P,J6,20,Pin_20_20*%
%TO.N,/D3*%
X143323684Y-121679715D03*
%TO.P,J6,21,Pin_21_21*%
%TO.N,/D2*%
X140783684Y-119139715D03*
%TO.P,J6,22,Pin_22_22*%
%TO.N,/D1*%
X140783684Y-121679715D03*
%TO.P,J6,23,Pin_23_23*%
%TO.N,/D0*%
X138243684Y-119139715D03*
%TO.P,J6,24,Pin_24_24*%
%TO.N,/C0*%
X138243684Y-121679715D03*
%TO.P,J6,25,Pin_25_25*%
%TO.N,/C1*%
X135703684Y-119139715D03*
%TO.P,J6,26,Pin_26_26*%
%TO.N,/C2*%
X135703684Y-121679715D03*
%TO.P,J6,27,Pin_27_27*%
%TO.N,/C3*%
X133163684Y-119139715D03*
%TO.P,J6,28,Pin_28_28*%
%TO.N,/C4*%
X133163684Y-121679715D03*
%TD*%
D14*
%TO.P,Q1,3,E_3*%
%TO.N,GND*%
X157293682Y-112794715D03*
%TO.P,Q1,2,B_2*%
%TO.N,Net-(Q1-B)*%
X156023682Y-112794715D03*
D15*
%TO.P,Q1,1,C_1*%
%TO.N,Net-(J4-Pin_2)*%
X154753682Y-112794715D03*
%TD*%
D12*
%TO.P,R1,2*%
%TO.N,Net-(J4-Pin_1)*%
X149673682Y-105174715D03*
%TO.P,R1,1*%
%TO.N,+5V*%
X139513682Y-105174715D03*
%TD*%
%TO.P,R2,2*%
%TO.N,Net-(Q1-B)*%
X149673682Y-110254715D03*
%TO.P,R2,1*%
%TO.N,/C5*%
X139513682Y-110254715D03*
%TD*%
D10*
%TO.P,J4,2,Pin_2_2*%
%TO.N,Net-(J4-Pin_2)*%
X135673682Y-126174715D03*
D11*
%TO.P,J4,1,Pin_1_1*%
%TO.N,Net-(J4-Pin_1)*%
X133133682Y-126174715D03*
%TD*%
D12*
%TO.P,C5,2*%
%TO.N,GND*%
X126733682Y-118298049D03*
%TO.P,C5,1*%
%TO.N,/BIAS7*%
X121733682Y-118298049D03*
%TD*%
%TO.P,C1,1*%
%TO.N,/BIAS3*%
X169993682Y-111101382D03*
%TO.P,C1,2*%
%TO.N,GND*%
X174993682Y-111101382D03*
%TD*%
%TO.P,C4,2*%
%TO.N,GND*%
X174993682Y-125494715D03*
%TO.P,C4,1*%
%TO.N,/BIAS6*%
X169993682Y-125494715D03*
%TD*%
%TO.P,C2,1*%
%TO.N,/BIAS4*%
X169993682Y-118298049D03*
%TO.P,C2,2*%
%TO.N,GND*%
X174993682Y-118298049D03*
%TD*%
%TO.P,C3,2*%
%TO.N,GND*%
X174993682Y-132691382D03*
%TO.P,C3,1*%
%TO.N,/BIAS5*%
X169993682Y-132691382D03*
%TD*%
D10*
%TO.P,J5,2,Pin_2_2*%
%TO.N,/C7*%
X124273682Y-107714715D03*
D11*
%TO.P,J5,1,Pin_1_1*%
%TO.N,/C6*%
X124273682Y-110254715D03*
%TD*%
D16*
%TO.N,/PUMP_11*%
X154753682Y-120414715D03*
%TO.N,GND*%
X127448682Y-112794715D03*
%TO.N,/D4*%
X148403682Y-84854715D03*
%TO.N,/C3*%
X143958682Y-137394715D03*
%TO.N,/C6*%
X121098682Y-106444715D03*
%TO.N,+3V3*%
X164913682Y-125494715D03*
%TO.N,/D6*%
X136338682Y-105174715D03*
%TO.N,/BIAS3*%
X169993682Y-113429715D03*
%TO.N,/C6*%
X121098682Y-103269715D03*
%TO.N,/C3*%
X158093685Y-137394715D03*
%TO.N,/BIAS4*%
X168723682Y-116604715D03*
%TO.N,/PUMP_11*%
X138878682Y-130739718D03*
%TO.N,Net-(Q1-B)*%
X142053682Y-112794715D03*
%TO.N,/PUMP_9*%
X129353682Y-126724715D03*
%TO.N,/PUMP_8*%
X143179175Y-126909223D03*
%TO.N,/BIAS5*%
X163008682Y-127399715D03*
%TO.N,GND*%
X150023684Y-129939715D03*
%TO.N,Net-(Q1-B)*%
X148403682Y-112794715D03*
%TO.N,/BIAS5*%
X169993682Y-129304715D03*
%TO.N,Net-(J4-Pin_1)*%
X139650914Y-98961946D03*
%TO.N,GND*%
X158563682Y-125035057D03*
%TO.N,/PUMP_9*%
X129353682Y-128034715D03*
%TO.N,/BIAS6*%
X168623583Y-125994715D03*
%TO.N,GND*%
X156867948Y-131418981D03*
%TO.N,Net-(J4-Pin_1)*%
X137658778Y-125035057D03*
%TO.N,/PUMP_9*%
X143523684Y-127631244D03*
%TO.N,/C4*%
X161063531Y-137394715D03*
%TO.N,/PUMP_10*%
X138878682Y-129939715D03*
%TO.N,/C4*%
X142688682Y-137394715D03*
%TO.N,/D3*%
X148403682Y-82314715D03*
%TO.N,/D7*%
X148403682Y-92474715D03*
%TO.N,/D6*%
X148403682Y-89934715D03*
%TO.N,+3V3*%
X148403682Y-117239715D03*
%TO.N,/D1*%
X148403682Y-77234715D03*
%TO.N,/D4*%
X129793682Y-120414715D03*
%TO.N,/D2*%
X148403682Y-79774715D03*
%TO.N,/D0*%
X148403682Y-74694715D03*
%TO.N,/PUMP_12_13*%
X150943682Y-117239715D03*
%TO.N,/D5*%
X148403682Y-87394715D03*
%TO.N,/BIAS7*%
X149673682Y-116634718D03*
%TO.N,/C2*%
X157293682Y-137394715D03*
%TO.N,Net-(J4-Pin_2)*%
X137608682Y-126129715D03*
%TO.N,/BIAS7*%
X156658682Y-117239715D03*
%TO.N,/D7*%
X148403682Y-107714715D03*
%TO.N,/BIAS7*%
X153093684Y-113392657D03*
%TO.N,Net-(J4-Pin_2)*%
X154011917Y-123482950D03*
%TO.N,/BIAS7*%
X145228682Y-116604715D03*
%TO.N,/C2*%
X145039471Y-137394715D03*
%TO.N,GND*%
X132528682Y-112794715D03*
%TD*%
%TO.N,/PUMP_11*%
D17*
X154753682Y-120414715D02*
X154753682Y-120409713D01*
%TO.N,/C6*%
X121098682Y-103269715D02*
X121098682Y-106444715D01*
%TO.N,+3V3*%
X162373682Y-122954715D02*
X162373682Y-69614715D01*
X164913682Y-125494715D02*
X162373682Y-122954715D01*
X162373682Y-69614715D02*
X159833682Y-67074715D01*
%TO.N,/PUMP_8*%
X153334176Y-126909223D02*
X158563684Y-121679715D01*
X143179175Y-126909223D02*
X153334176Y-126909223D01*
%TO.N,/PUMP_11*%
X143110153Y-124859715D02*
X153483682Y-124859715D01*
%TO.N,/BIAS3*%
X169353684Y-113429715D02*
X163643684Y-119139715D01*
%TO.N,/PUMP_12_13*%
X150943682Y-109969080D02*
X149959317Y-108984715D01*
X133163682Y-108984715D02*
X131893682Y-110254715D01*
X149959317Y-108984715D02*
X133163682Y-108984715D01*
X150943682Y-117239715D02*
X150943682Y-109969080D01*
%TO.N,+3V3*%
X133798682Y-117239715D02*
X131893682Y-115334715D01*
X148403682Y-117239715D02*
X133798682Y-117239715D01*
%TO.N,/D0*%
X148403682Y-74694715D02*
X151543682Y-77834715D01*
X151157211Y-117874715D02*
X139508684Y-117874715D01*
X151543682Y-77834715D02*
X151543682Y-117488244D01*
X139508684Y-117874715D02*
X138243684Y-119139715D01*
X151543682Y-117488244D02*
X151157211Y-117874715D01*
%TO.N,/D2*%
X137093684Y-118663369D02*
X137093684Y-119616061D01*
X130793682Y-115790350D02*
X132993047Y-117989715D01*
%TO.N,/D1*%
X141933684Y-120529715D02*
X140783684Y-121679715D01*
X152093684Y-119616061D02*
X151180030Y-120529715D01*
X152093684Y-77536188D02*
X152093684Y-119616061D01*
X148652211Y-74094715D02*
X152093684Y-77536188D01*
X151180030Y-120529715D02*
X141933684Y-120529715D01*
X148155153Y-74094715D02*
X148652211Y-74094715D01*
X147803682Y-74446186D02*
X148155153Y-74094715D01*
X147803682Y-76634715D02*
X147803682Y-74446186D01*
X148403682Y-77234715D02*
X147803682Y-76634715D01*
%TO.N,/D3*%
X142173684Y-122829715D02*
X143323684Y-121679715D01*
%TO.N,/D2*%
X139633684Y-120289715D02*
X140783684Y-119139715D01*
X132993047Y-117989715D02*
X136420030Y-117989715D01*
X130793682Y-109799080D02*
X130793682Y-115790350D01*
X137767338Y-120289715D02*
X139633684Y-120289715D01*
X136420030Y-117989715D02*
X137093684Y-118663369D01*
X147403682Y-93189080D02*
X130793682Y-109799080D01*
X147403682Y-80774715D02*
X147403682Y-93189080D01*
X137093684Y-119616061D02*
X137767338Y-120289715D01*
X148403682Y-79774715D02*
X147403682Y-80774715D01*
%TO.N,/D3*%
X130393682Y-109633395D02*
X130393682Y-120819715D01*
X130393682Y-120819715D02*
X132403682Y-122829715D01*
X147003682Y-93023394D02*
X130393682Y-109633395D01*
X132403682Y-122829715D02*
X142173684Y-122829715D01*
X148155153Y-79174715D02*
X147003682Y-80326186D01*
X147003682Y-80326186D02*
X147003682Y-93023394D01*
X148652211Y-79174715D02*
X148155153Y-79174715D01*
X149003682Y-79526186D02*
X148652211Y-79174715D01*
X149003682Y-81714715D02*
X149003682Y-79526186D01*
X148403682Y-82314715D02*
X149003682Y-81714715D01*
%TO.N,/D4*%
X148403682Y-84854715D02*
X149403682Y-83854715D01*
X149403682Y-79360500D02*
X148817896Y-78774715D01*
X148817896Y-78774715D02*
X147989467Y-78774715D01*
X149403682Y-83854715D02*
X149403682Y-79360500D01*
X147989467Y-78774715D02*
X146603682Y-80160501D01*
X146603682Y-92857708D02*
X129793682Y-109667708D01*
X146603682Y-80160501D02*
X146603682Y-92857708D01*
X129793682Y-109667708D02*
X129793682Y-120414715D01*
%TO.N,/D5*%
X147013684Y-122829715D02*
X145863684Y-121679715D01*
X152093684Y-122156061D02*
X151420030Y-122829715D01*
X152093684Y-121203369D02*
X152093684Y-122156061D01*
X153007338Y-120289715D02*
X152093684Y-121203369D01*
X153960030Y-120289715D02*
X153007338Y-120289715D01*
X152493684Y-77370503D02*
X152493684Y-116523369D01*
X154633684Y-118663369D02*
X154633684Y-119616061D01*
X147989468Y-73694715D02*
X148817897Y-73694715D01*
X148817897Y-73694715D02*
X152493684Y-77370503D01*
X147403682Y-74280500D02*
X147989468Y-73694715D01*
X154633684Y-119616061D02*
X153960030Y-120289715D01*
X152493684Y-116523369D02*
X154633684Y-118663369D01*
X147403682Y-77083244D02*
X147403682Y-74280500D01*
X148320839Y-78000401D02*
X147403682Y-77083244D01*
X151143682Y-78000401D02*
X148320839Y-78000401D01*
X151420030Y-122829715D02*
X147013684Y-122829715D01*
X151143682Y-84654715D02*
X151143682Y-78000401D01*
X148403682Y-87394715D02*
X151143682Y-84654715D01*
%TO.N,/D6*%
X147803682Y-93709715D02*
X136338682Y-105174715D01*
X148403682Y-89934715D02*
X147803682Y-90534715D01*
X147803682Y-90534715D02*
X147803682Y-93709715D01*
%TO.N,/D7*%
X148403682Y-92474715D02*
X148403682Y-107714715D01*
%TO.N,/C2*%
X157293682Y-137394715D02*
X145039471Y-137394715D01*
%TO.N,/C3*%
X158093685Y-137394715D02*
X158093685Y-137346189D01*
X157542211Y-136794715D02*
X144558682Y-136794715D01*
X144558682Y-136794715D02*
X143958682Y-137394715D01*
X158093685Y-137346189D02*
X157542211Y-136794715D01*
%TO.N,/C4*%
X160063531Y-136394715D02*
X143688682Y-136394715D01*
X161063531Y-137394715D02*
X160063531Y-136394715D01*
X143688682Y-136394715D02*
X142688682Y-137394715D01*
%TO.N,Net-(J4-Pin_2)*%
X137608682Y-126129715D02*
X137563682Y-126174715D01*
%TO.N,Net-(J4-Pin_1)*%
X135853436Y-123229715D02*
X131760153Y-123229715D01*
X131760153Y-123229715D02*
X129193682Y-120663244D01*
X129193682Y-120663244D02*
X129193682Y-109419178D01*
X137658778Y-125035057D02*
X135853436Y-123229715D01*
X129193682Y-109419178D02*
X139650914Y-98961946D01*
%TO.N,Net-(Q1-B)*%
X148403682Y-112794715D02*
X142053682Y-112794715D01*
%TO.N,/BIAS7*%
X153093684Y-113674717D02*
X156658682Y-117239715D01*
X149643679Y-116604715D02*
X149673682Y-116634718D01*
X145228682Y-116604715D02*
X149643679Y-116604715D01*
X153093684Y-113392657D02*
X153093684Y-113674717D01*
%TO.N,/BIAS3*%
X169993682Y-113429715D02*
X169353684Y-113429715D01*
%TO.N,/PUMP_9*%
X157173684Y-120289715D02*
X156023684Y-119139715D01*
X143523684Y-127631244D02*
X143052667Y-127631244D01*
X153483682Y-126129715D02*
X157173684Y-122439713D01*
X157173684Y-122439713D02*
X157173684Y-120289715D01*
X143052667Y-127631244D02*
X142579175Y-127157752D01*
X129353682Y-126724715D02*
X129353682Y-128034715D01*
X143110154Y-126129715D02*
X153483682Y-126129715D01*
X142579175Y-127157752D02*
X142579175Y-126660694D01*
X142579175Y-126660694D02*
X143110154Y-126129715D01*
%TO.N,/PUMP_10*%
X153552996Y-125494715D02*
X156023684Y-123024027D01*
X138878682Y-129795502D02*
X143179469Y-125494715D01*
X138878682Y-129939715D02*
X138878682Y-129795502D01*
X156023684Y-123024027D02*
X156023684Y-121679715D01*
X143179469Y-125494715D02*
X153552996Y-125494715D01*
%TO.N,/PUMP_11*%
X154753682Y-123589715D02*
X154753682Y-120414715D01*
X153483682Y-124859715D02*
X154753682Y-123589715D01*
X138830156Y-130739718D02*
X138278682Y-130188244D01*
X138278682Y-130188244D02*
X138278682Y-129691186D01*
X138878682Y-130739718D02*
X138830156Y-130739718D01*
X138278682Y-129691186D02*
X143110153Y-124859715D01*
%TO.N,/BIAS6*%
X161103684Y-122881796D02*
X161103684Y-121679715D01*
X168623583Y-125994715D02*
X168523583Y-126094715D01*
%TO.N,/BIAS4*%
X167093684Y-120529715D02*
X164793684Y-120529715D01*
X168723682Y-118899717D02*
X167093684Y-120529715D01*
X168723682Y-116604715D02*
X168723682Y-118899717D01*
X164793684Y-120529715D02*
X163643684Y-121679715D01*
%TO.N,/BIAS6*%
X164316603Y-126094715D02*
X161103684Y-122881796D01*
X168523583Y-126094715D02*
X164316603Y-126094715D01*
%TO.N,/BIAS5*%
X169993682Y-129304715D02*
X164913682Y-129304715D01*
X164913682Y-129304715D02*
X163008682Y-127399715D01*
%TO.N,Net-(J4-Pin_2)*%
X140148682Y-123589715D02*
X137608682Y-126129715D01*
X153905152Y-123589715D02*
X140148682Y-123589715D01*
X154011917Y-123482950D02*
X153905152Y-123589715D01*
%TO.N,GND*%
X147347211Y-110889715D02*
X141338682Y-110889715D01*
X149673682Y-115334715D02*
X149673682Y-113216186D01*
X149673682Y-113216186D02*
X147347211Y-110889715D01*
X149673682Y-115334715D02*
X141973682Y-115334715D01*
X141338682Y-110889715D02*
X136893682Y-115334715D01*
X141973682Y-115334715D02*
X136893682Y-110254715D01*
%TD*%
%TA.AperFunction,Conductor*%
%TO.N,GND*%
G36*
X135640997Y-109604900D02*
G01*
X135686752Y-109657704D01*
X135696696Y-109726862D01*
X135690090Y-109750944D01*
X135690431Y-109751055D01*
X135625691Y-109950297D01*
X135593682Y-110152397D01*
X135593682Y-110357032D01*
X135625691Y-110559132D01*
X135688926Y-110753746D01*
X135781823Y-110936065D01*
X135781829Y-110936074D01*
X135814205Y-110980636D01*
X135814206Y-110980637D01*
X136493682Y-110301161D01*
X136493682Y-110307376D01*
X136520941Y-110409109D01*
X136573602Y-110500321D01*
X136648076Y-110574795D01*
X136739288Y-110627456D01*
X136841021Y-110654715D01*
X136847235Y-110654715D01*
X136167758Y-111334189D01*
X136212332Y-111366574D01*
X136394650Y-111459470D01*
X136589264Y-111522705D01*
X136791365Y-111554715D01*
X136995999Y-111554715D01*
X137198099Y-111522705D01*
X137392713Y-111459470D01*
X137575031Y-111366574D01*
X137619603Y-111334189D01*
X136940129Y-110654715D01*
X136946343Y-110654715D01*
X137048076Y-110627456D01*
X137139288Y-110574795D01*
X137213762Y-110500321D01*
X137266423Y-110409109D01*
X137293682Y-110307376D01*
X137293682Y-110301162D01*
X137973156Y-110980636D01*
X138005543Y-110936062D01*
X138005543Y-110936061D01*
X138092916Y-110764581D01*
X138140890Y-110713785D01*
X138208711Y-110696989D01*
X138274846Y-110719526D01*
X138313886Y-110764580D01*
X138330327Y-110796847D01*
X138401267Y-110936074D01*
X138401397Y-110936328D01*
X138521710Y-111101928D01*
X138666468Y-111246686D01*
X138804610Y-111347050D01*
X138832072Y-111367002D01*
X138938956Y-111421462D01*
X139014458Y-111459933D01*
X139014460Y-111459933D01*
X139014463Y-111459935D01*
X139089217Y-111484224D01*
X139209147Y-111523192D01*
X139310239Y-111539203D01*
X139411330Y-111555215D01*
X139411331Y-111555215D01*
X139616033Y-111555215D01*
X139616034Y-111555215D01*
X139818216Y-111523192D01*
X140012901Y-111459935D01*
X140195292Y-111367002D01*
X140348383Y-111255776D01*
X140360895Y-111246686D01*
X140360897Y-111246683D01*
X140360901Y-111246681D01*
X140505648Y-111101934D01*
X140505650Y-111101930D01*
X140505653Y-111101928D01*
X140580387Y-110999064D01*
X140625969Y-110936325D01*
X140718902Y-110753934D01*
X140782159Y-110559249D01*
X140814182Y-110357067D01*
X140814182Y-110152363D01*
X140793519Y-110021905D01*
X140782159Y-109950180D01*
X140751140Y-109854715D01*
X140718902Y-109755496D01*
X140718900Y-109755492D01*
X140717396Y-109750863D01*
X140718717Y-109750433D01*
X140711918Y-109687201D01*
X140743191Y-109624721D01*
X140803279Y-109589067D01*
X140833948Y-109585215D01*
X148353416Y-109585215D01*
X148420455Y-109604900D01*
X148466210Y-109657704D01*
X148476154Y-109726862D01*
X148469601Y-109750744D01*
X148469968Y-109750863D01*
X148468463Y-109755492D01*
X148468462Y-109755496D01*
X148453715Y-109800882D01*
X148405204Y-109950180D01*
X148373182Y-110152363D01*
X148373182Y-110357066D01*
X148405204Y-110559249D01*
X148468463Y-110753938D01*
X148520353Y-110855776D01*
X148561267Y-110936074D01*
X148561397Y-110936328D01*
X148681710Y-111101928D01*
X148826468Y-111246686D01*
X148964610Y-111347050D01*
X148992072Y-111367002D01*
X149098956Y-111421462D01*
X149174458Y-111459933D01*
X149174460Y-111459933D01*
X149174463Y-111459935D01*
X149249217Y-111484224D01*
X149369147Y-111523192D01*
X149470239Y-111539203D01*
X149571330Y-111555215D01*
X149571331Y-111555215D01*
X149776033Y-111555215D01*
X149776034Y-111555215D01*
X149978216Y-111523192D01*
X150172901Y-111459935D01*
X150172904Y-111459933D01*
X150177534Y-111458429D01*
X150177963Y-111459750D01*
X150241196Y-111452951D01*
X150303676Y-111484224D01*
X150339330Y-111544312D01*
X150343182Y-111574981D01*
X150343182Y-114014991D01*
X150323497Y-114082030D01*
X150270693Y-114127785D01*
X150201535Y-114137729D01*
X150177452Y-114131123D01*
X150177342Y-114131464D01*
X149978099Y-114066724D01*
X149775999Y-114034715D01*
X149571365Y-114034715D01*
X149369264Y-114066724D01*
X149174650Y-114129959D01*
X148992326Y-114222858D01*
X148947759Y-114255238D01*
X148947759Y-114255239D01*
X149627235Y-114934715D01*
X149621021Y-114934715D01*
X149519288Y-114961974D01*
X149428076Y-115014635D01*
X149353602Y-115089109D01*
X149300941Y-115180321D01*
X149273682Y-115282054D01*
X149273682Y-115288268D01*
X148594206Y-114608792D01*
X148594205Y-114608792D01*
X148561825Y-114653359D01*
X148468926Y-114835683D01*
X148405691Y-115030297D01*
X148373682Y-115232397D01*
X148373682Y-115437032D01*
X148405691Y-115639132D01*
X148470431Y-115838375D01*
X148469169Y-115838784D01*
X148475985Y-115902245D01*
X148444704Y-115964721D01*
X148384611Y-116000367D01*
X148353958Y-116004215D01*
X145808448Y-116004215D01*
X145741409Y-115984530D01*
X145739557Y-115983317D01*
X145607867Y-115895324D01*
X145607854Y-115895317D01*
X145462183Y-115834979D01*
X145462171Y-115834976D01*
X145307527Y-115804215D01*
X145307524Y-115804215D01*
X145149840Y-115804215D01*
X145149837Y-115804215D01*
X144995192Y-115834976D01*
X144995180Y-115834979D01*
X144849509Y-115895317D01*
X144849496Y-115895324D01*
X144718393Y-115982925D01*
X144718389Y-115982928D01*
X144606895Y-116094422D01*
X144606892Y-116094426D01*
X144519291Y-116225529D01*
X144519284Y-116225542D01*
X144458946Y-116371213D01*
X144458943Y-116371225D01*
X144428183Y-116525861D01*
X144428036Y-116527361D01*
X144427739Y-116528096D01*
X144426993Y-116531847D01*
X144426281Y-116531705D01*
X144401879Y-116592150D01*
X144344847Y-116632513D01*
X144304632Y-116639215D01*
X140312367Y-116639215D01*
X140245328Y-116619530D01*
X140199573Y-116566726D01*
X140189629Y-116497568D01*
X140218654Y-116434012D01*
X140239482Y-116414896D01*
X140360901Y-116326681D01*
X140505648Y-116181934D01*
X140505650Y-116181930D01*
X140505653Y-116181928D01*
X140569229Y-116094422D01*
X140625969Y-116016325D01*
X140718902Y-115833934D01*
X140782159Y-115639249D01*
X140814182Y-115437067D01*
X140814182Y-115232363D01*
X140798219Y-115131580D01*
X140782159Y-115030180D01*
X140730081Y-114869902D01*
X140718902Y-114835496D01*
X140718900Y-114835493D01*
X140718900Y-114835491D01*
X140685185Y-114769322D01*
X140625969Y-114653105D01*
X140593774Y-114608792D01*
X140505653Y-114487501D01*
X140360895Y-114342743D01*
X140195295Y-114222430D01*
X140195294Y-114222429D01*
X140195292Y-114222428D01*
X140138335Y-114193406D01*
X140012905Y-114129496D01*
X139818216Y-114066237D01*
X139643677Y-114038593D01*
X139616034Y-114034215D01*
X139411330Y-114034215D01*
X139387011Y-114038066D01*
X139209147Y-114066237D01*
X139014458Y-114129496D01*
X138832068Y-114222430D01*
X138666468Y-114342743D01*
X138521710Y-114487501D01*
X138401397Y-114653101D01*
X138313886Y-114824849D01*
X138265911Y-114875645D01*
X138198090Y-114892440D01*
X138131955Y-114869902D01*
X138092916Y-114824848D01*
X138005543Y-114653367D01*
X137973156Y-114608792D01*
X137973156Y-114608791D01*
X137293682Y-115288266D01*
X137293682Y-115282054D01*
X137266423Y-115180321D01*
X137213762Y-115089109D01*
X137139288Y-115014635D01*
X137048076Y-114961974D01*
X136946343Y-114934715D01*
X136940128Y-114934715D01*
X137619604Y-114255239D01*
X137619603Y-114255238D01*
X137575041Y-114222862D01*
X137575032Y-114222856D01*
X137392713Y-114129959D01*
X137198099Y-114066724D01*
X136995999Y-114034715D01*
X136791365Y-114034715D01*
X136589264Y-114066724D01*
X136394650Y-114129959D01*
X136212326Y-114222858D01*
X136167759Y-114255238D01*
X136167759Y-114255239D01*
X136847236Y-114934715D01*
X136841021Y-114934715D01*
X136739288Y-114961974D01*
X136648076Y-115014635D01*
X136573602Y-115089109D01*
X136520941Y-115180321D01*
X136493682Y-115282054D01*
X136493682Y-115288268D01*
X135814206Y-114608792D01*
X135814205Y-114608792D01*
X135781825Y-114653359D01*
X135688926Y-114835683D01*
X135625691Y-115030297D01*
X135593682Y-115232397D01*
X135593682Y-115437032D01*
X135625691Y-115639132D01*
X135688926Y-115833746D01*
X135781823Y-116016065D01*
X135781829Y-116016074D01*
X135814205Y-116060636D01*
X135814206Y-116060637D01*
X136493682Y-115381161D01*
X136493682Y-115387376D01*
X136520941Y-115489109D01*
X136573602Y-115580321D01*
X136648076Y-115654795D01*
X136739288Y-115707456D01*
X136841021Y-115734715D01*
X136847235Y-115734715D01*
X136167758Y-116414189D01*
X136167759Y-116414191D01*
X136168732Y-116414898D01*
X136211398Y-116470228D01*
X136217376Y-116539841D01*
X136184770Y-116601636D01*
X136123930Y-116635993D01*
X136095846Y-116639215D01*
X134098779Y-116639215D01*
X134031740Y-116619530D01*
X134011098Y-116602896D01*
X133187759Y-115779557D01*
X133154274Y-115718234D01*
X133157510Y-115653556D01*
X133162159Y-115639249D01*
X133194182Y-115437067D01*
X133194182Y-115232363D01*
X133178219Y-115131580D01*
X133162159Y-115030180D01*
X133110081Y-114869902D01*
X133098902Y-114835496D01*
X133098900Y-114835493D01*
X133098900Y-114835491D01*
X133065185Y-114769322D01*
X133005969Y-114653105D01*
X132973774Y-114608792D01*
X132885653Y-114487501D01*
X132740895Y-114342743D01*
X132575295Y-114222430D01*
X132575294Y-114222429D01*
X132575292Y-114222428D01*
X132518335Y-114193406D01*
X132392905Y-114129496D01*
X132198216Y-114066237D01*
X132023677Y-114038593D01*
X131996034Y-114034215D01*
X131791330Y-114034215D01*
X131737386Y-114042759D01*
X131589146Y-114066238D01*
X131589139Y-114066239D01*
X131556499Y-114076845D01*
X131486658Y-114078840D01*
X131426825Y-114042759D01*
X131395998Y-113980058D01*
X131394182Y-113958914D01*
X131394182Y-112715868D01*
X141253182Y-112715868D01*
X141253182Y-112873561D01*
X141283943Y-113028204D01*
X141283946Y-113028216D01*
X141344284Y-113173887D01*
X141344291Y-113173900D01*
X141431892Y-113305003D01*
X141431895Y-113305007D01*
X141543389Y-113416501D01*
X141543393Y-113416504D01*
X141674496Y-113504105D01*
X141674509Y-113504112D01*
X141764341Y-113541321D01*
X141820185Y-113564452D01*
X141974835Y-113595214D01*
X141974838Y-113595215D01*
X141974840Y-113595215D01*
X142132526Y-113595215D01*
X142132527Y-113595214D01*
X142287179Y-113564452D01*
X142422118Y-113508559D01*
X142432854Y-113504112D01*
X142432854Y-113504111D01*
X142432861Y-113504109D01*
X142442736Y-113497511D01*
X142564557Y-113416113D01*
X142631235Y-113395235D01*
X142633448Y-113395215D01*
X147823916Y-113395215D01*
X147890955Y-113414900D01*
X147892807Y-113416113D01*
X148024496Y-113504105D01*
X148024509Y-113504112D01*
X148114341Y-113541321D01*
X148170185Y-113564452D01*
X148324835Y-113595214D01*
X148324838Y-113595215D01*
X148324840Y-113595215D01*
X148482526Y-113595215D01*
X148482527Y-113595214D01*
X148637179Y-113564452D01*
X148772118Y-113508559D01*
X148782854Y-113504112D01*
X148782854Y-113504111D01*
X148782861Y-113504109D01*
X148913971Y-113416504D01*
X149025471Y-113305004D01*
X149113076Y-113173894D01*
X149173419Y-113028212D01*
X149204182Y-112873557D01*
X149204182Y-112715873D01*
X149204182Y-112715870D01*
X149204181Y-112715868D01*
X149191073Y-112649970D01*
X149173419Y-112561218D01*
X149168403Y-112549109D01*
X149113079Y-112415542D01*
X149113072Y-112415529D01*
X149025471Y-112284426D01*
X149025468Y-112284422D01*
X148913974Y-112172928D01*
X148913970Y-112172925D01*
X148782867Y-112085324D01*
X148782854Y-112085317D01*
X148637183Y-112024979D01*
X148637171Y-112024976D01*
X148482527Y-111994215D01*
X148482524Y-111994215D01*
X148324840Y-111994215D01*
X148324837Y-111994215D01*
X148170192Y-112024976D01*
X148170180Y-112024979D01*
X148024509Y-112085317D01*
X148024496Y-112085324D01*
X147892807Y-112173317D01*
X147826129Y-112194195D01*
X147823916Y-112194215D01*
X142633448Y-112194215D01*
X142566409Y-112174530D01*
X142564557Y-112173317D01*
X142432867Y-112085324D01*
X142432854Y-112085317D01*
X142287183Y-112024979D01*
X142287171Y-112024976D01*
X142132527Y-111994215D01*
X142132524Y-111994215D01*
X141974840Y-111994215D01*
X141974837Y-111994215D01*
X141820192Y-112024976D01*
X141820180Y-112024979D01*
X141674509Y-112085317D01*
X141674496Y-112085324D01*
X141543393Y-112172925D01*
X141543389Y-112172928D01*
X141431895Y-112284422D01*
X141431892Y-112284426D01*
X141344291Y-112415529D01*
X141344284Y-112415542D01*
X141283946Y-112561213D01*
X141283943Y-112561225D01*
X141253182Y-112715868D01*
X131394182Y-112715868D01*
X131394182Y-111630515D01*
X131413867Y-111563476D01*
X131466671Y-111517721D01*
X131535829Y-111507777D01*
X131556502Y-111512585D01*
X131589140Y-111523190D01*
X131589143Y-111523190D01*
X131589148Y-111523192D01*
X131791330Y-111555215D01*
X131791331Y-111555215D01*
X131996033Y-111555215D01*
X131996034Y-111555215D01*
X132198216Y-111523192D01*
X132392901Y-111459935D01*
X132575292Y-111367002D01*
X132728383Y-111255776D01*
X132740895Y-111246686D01*
X132740897Y-111246683D01*
X132740901Y-111246681D01*
X132885648Y-111101934D01*
X132885650Y-111101930D01*
X132885653Y-111101928D01*
X132960387Y-110999064D01*
X133005969Y-110936325D01*
X133098902Y-110753934D01*
X133162159Y-110559249D01*
X133194182Y-110357067D01*
X133194182Y-110152363D01*
X133162159Y-109950181D01*
X133157508Y-109935869D01*
X133155514Y-109866030D01*
X133187759Y-109809872D01*
X133376098Y-109621534D01*
X133437421Y-109588049D01*
X133463779Y-109585215D01*
X135573958Y-109585215D01*
X135640997Y-109604900D01*
G37*
%TD.AperFunction*%
%TA.AperFunction,Conductor*%
G36*
X137973156Y-116060636D02*
G01*
X138005543Y-116016062D01*
X138005543Y-116016061D01*
X138092916Y-115844581D01*
X138140890Y-115793785D01*
X138208711Y-115776989D01*
X138274846Y-115799526D01*
X138313886Y-115844580D01*
X138401267Y-116016074D01*
X138401397Y-116016328D01*
X138521710Y-116181928D01*
X138521716Y-116181934D01*
X138666463Y-116326681D01*
X138786911Y-116414191D01*
X138787882Y-116414896D01*
X138830548Y-116470226D01*
X138836527Y-116539840D01*
X138803922Y-116601635D01*
X138743083Y-116635992D01*
X138714997Y-116639215D01*
X137691516Y-116639215D01*
X137624477Y-116619530D01*
X137578722Y-116566726D01*
X137568778Y-116497568D01*
X137597803Y-116434012D01*
X137618629Y-116414898D01*
X137619603Y-116414189D01*
X136940129Y-115734715D01*
X136946343Y-115734715D01*
X137048076Y-115707456D01*
X137139288Y-115654795D01*
X137213762Y-115580321D01*
X137266423Y-115489109D01*
X137293682Y-115387376D01*
X137293682Y-115381162D01*
X137973156Y-116060636D01*
G37*
%TD.AperFunction*%
%TA.AperFunction,Conductor*%
G36*
X176921721Y-64554400D02*
G01*
X176967476Y-64607204D01*
X176978682Y-64658715D01*
X176978682Y-137435715D01*
X176958997Y-137502754D01*
X176906193Y-137548509D01*
X176854682Y-137559715D01*
X161988031Y-137559715D01*
X161920992Y-137540030D01*
X161875237Y-137487226D01*
X161864031Y-137435715D01*
X161864031Y-137315870D01*
X161864030Y-137315868D01*
X161833269Y-137161225D01*
X161833268Y-137161218D01*
X161779552Y-137031534D01*
X161772928Y-137015542D01*
X161772921Y-137015529D01*
X161685320Y-136884426D01*
X161685317Y-136884422D01*
X161573823Y-136772928D01*
X161573819Y-136772925D01*
X161442716Y-136685324D01*
X161442703Y-136685317D01*
X161297032Y-136624979D01*
X161297022Y-136624976D01*
X161141682Y-136594077D01*
X161079772Y-136561692D01*
X161078193Y-136560141D01*
X160551121Y-136033070D01*
X160551119Y-136033067D01*
X160432248Y-135914196D01*
X160432247Y-135914195D01*
X160345435Y-135864075D01*
X160345435Y-135864074D01*
X160345431Y-135864073D01*
X160295316Y-135835138D01*
X160142588Y-135794214D01*
X159984474Y-135794214D01*
X159976878Y-135794214D01*
X159976862Y-135794215D01*
X143775352Y-135794215D01*
X143775336Y-135794214D01*
X143767740Y-135794214D01*
X143609625Y-135794214D01*
X143533261Y-135814676D01*
X143456896Y-135835138D01*
X143456891Y-135835141D01*
X143319972Y-135914190D01*
X143319964Y-135914196D01*
X142674021Y-136560140D01*
X142612698Y-136593625D01*
X142610532Y-136594076D01*
X142455190Y-136624976D01*
X142455180Y-136624979D01*
X142309509Y-136685317D01*
X142309496Y-136685324D01*
X142178393Y-136772925D01*
X142178389Y-136772928D01*
X142066895Y-136884422D01*
X142066892Y-136884426D01*
X141979291Y-137015529D01*
X141979284Y-137015542D01*
X141918946Y-137161213D01*
X141918943Y-137161225D01*
X141888182Y-137315868D01*
X141888182Y-137435715D01*
X141868497Y-137502754D01*
X141815693Y-137548509D01*
X141764182Y-137559715D01*
X119317682Y-137559715D01*
X119250643Y-137540030D01*
X119204888Y-137487226D01*
X119193682Y-137435715D01*
X119193682Y-132589030D01*
X120433182Y-132589030D01*
X120433182Y-132793733D01*
X120465204Y-132995916D01*
X120528463Y-133190605D01*
X120592373Y-133316035D01*
X120621267Y-133372741D01*
X120621397Y-133372995D01*
X120741710Y-133538595D01*
X120886468Y-133683353D01*
X121006908Y-133770856D01*
X121052072Y-133803669D01*
X121168289Y-133862885D01*
X121234458Y-133896600D01*
X121234460Y-133896600D01*
X121234463Y-133896602D01*
X121338819Y-133930509D01*
X121429147Y-133959859D01*
X121530239Y-133975870D01*
X121631330Y-133991882D01*
X121631331Y-133991882D01*
X121836033Y-133991882D01*
X121836034Y-133991882D01*
X122038216Y-133959859D01*
X122232901Y-133896602D01*
X122415292Y-133803669D01*
X122508272Y-133736114D01*
X122580895Y-133683353D01*
X122580897Y-133683350D01*
X122580901Y-133683348D01*
X122725648Y-133538601D01*
X122725650Y-133538597D01*
X122725653Y-133538595D01*
X122778414Y-133465972D01*
X122845969Y-133372992D01*
X122938902Y-133190601D01*
X123002159Y-132995916D01*
X123034182Y-132793734D01*
X123034182Y-132589030D01*
X125433182Y-132589030D01*
X125433182Y-132793733D01*
X125465204Y-132995916D01*
X125528463Y-133190605D01*
X125592373Y-133316035D01*
X125621267Y-133372741D01*
X125621397Y-133372995D01*
X125741710Y-133538595D01*
X125886468Y-133683353D01*
X126006908Y-133770856D01*
X126052072Y-133803669D01*
X126168289Y-133862885D01*
X126234458Y-133896600D01*
X126234460Y-133896600D01*
X126234463Y-133896602D01*
X126338819Y-133930509D01*
X126429147Y-133959859D01*
X126530239Y-133975870D01*
X126631330Y-133991882D01*
X126631331Y-133991882D01*
X126836033Y-133991882D01*
X126836034Y-133991882D01*
X127038216Y-133959859D01*
X127232901Y-133896602D01*
X127415292Y-133803669D01*
X127508272Y-133736114D01*
X127580895Y-133683353D01*
X127580897Y-133683350D01*
X127580901Y-133683348D01*
X127725648Y-133538601D01*
X127725650Y-133538597D01*
X127725653Y-133538595D01*
X127778414Y-133465972D01*
X127845969Y-133372992D01*
X127938902Y-133190601D01*
X128002159Y-132995916D01*
X128034182Y-132793734D01*
X128034182Y-132589030D01*
X168693182Y-132589030D01*
X168693182Y-132793733D01*
X168725204Y-132995916D01*
X168788463Y-133190605D01*
X168852373Y-133316035D01*
X168881267Y-133372741D01*
X168881397Y-133372995D01*
X169001710Y-133538595D01*
X169146468Y-133683353D01*
X169266908Y-133770856D01*
X169312072Y-133803669D01*
X169428289Y-133862885D01*
X169494458Y-133896600D01*
X169494460Y-133896600D01*
X169494463Y-133896602D01*
X169598819Y-133930509D01*
X169689147Y-133959859D01*
X169790239Y-133975870D01*
X169891330Y-133991882D01*
X169891331Y-133991882D01*
X170096033Y-133991882D01*
X170096034Y-133991882D01*
X170298216Y-133959859D01*
X170492901Y-133896602D01*
X170675292Y-133803669D01*
X170768272Y-133736114D01*
X170840895Y-133683353D01*
X170840897Y-133683350D01*
X170840901Y-133683348D01*
X170985648Y-133538601D01*
X170985650Y-133538597D01*
X170985653Y-133538595D01*
X171038414Y-133465972D01*
X171105969Y-133372992D01*
X171198902Y-133190601D01*
X171262159Y-132995916D01*
X171294182Y-132793734D01*
X171294182Y-132589064D01*
X173693682Y-132589064D01*
X173693682Y-132793699D01*
X173725691Y-132995799D01*
X173788926Y-133190413D01*
X173881823Y-133372732D01*
X173881829Y-133372741D01*
X173914205Y-133417303D01*
X173914206Y-133417304D01*
X174593682Y-132737828D01*
X174593682Y-132744043D01*
X174620941Y-132845776D01*
X174673602Y-132936988D01*
X174748076Y-133011462D01*
X174839288Y-133064123D01*
X174941021Y-133091382D01*
X174947235Y-133091382D01*
X174267758Y-133770856D01*
X174312332Y-133803241D01*
X174494650Y-133896137D01*
X174689264Y-133959372D01*
X174891365Y-133991382D01*
X175095999Y-133991382D01*
X175298099Y-133959372D01*
X175492713Y-133896137D01*
X175675031Y-133803241D01*
X175719603Y-133770856D01*
X175040129Y-133091382D01*
X175046343Y-133091382D01*
X175148076Y-133064123D01*
X175239288Y-133011462D01*
X175313762Y-132936988D01*
X175366423Y-132845776D01*
X175393682Y-132744043D01*
X175393682Y-132737830D01*
X176073156Y-133417304D01*
X176073156Y-133417303D01*
X176105541Y-133372731D01*
X176198437Y-133190413D01*
X176261672Y-132995799D01*
X176293682Y-132793699D01*
X176293682Y-132589064D01*
X176261672Y-132386964D01*
X176198437Y-132192350D01*
X176105541Y-132010032D01*
X176073156Y-131965459D01*
X176073156Y-131965458D01*
X175393682Y-132644933D01*
X175393682Y-132638721D01*
X175366423Y-132536988D01*
X175313762Y-132445776D01*
X175239288Y-132371302D01*
X175148076Y-132318641D01*
X175046343Y-132291382D01*
X175040128Y-132291382D01*
X175719604Y-131611906D01*
X175719603Y-131611905D01*
X175675041Y-131579529D01*
X175675032Y-131579523D01*
X175492713Y-131486626D01*
X175298099Y-131423391D01*
X175095999Y-131391382D01*
X174891365Y-131391382D01*
X174689264Y-131423391D01*
X174494650Y-131486626D01*
X174312326Y-131579525D01*
X174267759Y-131611905D01*
X174267759Y-131611906D01*
X174947236Y-132291382D01*
X174941021Y-132291382D01*
X174839288Y-132318641D01*
X174748076Y-132371302D01*
X174673602Y-132445776D01*
X174620941Y-132536988D01*
X174593682Y-132638721D01*
X174593682Y-132644935D01*
X173914206Y-131965459D01*
X173914205Y-131965459D01*
X173881825Y-132010026D01*
X173788926Y-132192350D01*
X173725691Y-132386964D01*
X173693682Y-132589064D01*
X171294182Y-132589064D01*
X171294182Y-132589030D01*
X171285939Y-132536988D01*
X171262159Y-132386847D01*
X171231140Y-132291382D01*
X171198902Y-132192163D01*
X171198900Y-132192160D01*
X171198900Y-132192158D01*
X171106101Y-132010032D01*
X171105969Y-132009772D01*
X171073774Y-131965459D01*
X170985653Y-131844168D01*
X170840895Y-131699410D01*
X170675295Y-131579097D01*
X170675294Y-131579096D01*
X170675292Y-131579095D01*
X170598990Y-131540217D01*
X170492905Y-131486163D01*
X170298216Y-131422904D01*
X170123677Y-131395260D01*
X170096034Y-131390882D01*
X169891330Y-131390882D01*
X169867011Y-131394733D01*
X169689147Y-131422904D01*
X169494458Y-131486163D01*
X169312068Y-131579097D01*
X169146468Y-131699410D01*
X169001710Y-131844168D01*
X168881397Y-132009768D01*
X168788463Y-132192158D01*
X168725204Y-132386847D01*
X168693182Y-132589030D01*
X128034182Y-132589030D01*
X128025939Y-132536988D01*
X128002159Y-132386847D01*
X127971140Y-132291382D01*
X127938902Y-132192163D01*
X127938900Y-132192160D01*
X127938900Y-132192158D01*
X127846101Y-132010032D01*
X127845969Y-132009772D01*
X127813774Y-131965459D01*
X127725653Y-131844168D01*
X127580895Y-131699410D01*
X127415295Y-131579097D01*
X127415294Y-131579096D01*
X127415292Y-131579095D01*
X127338990Y-131540217D01*
X127232905Y-131486163D01*
X127038216Y-131422904D01*
X126863677Y-131395260D01*
X126836034Y-131390882D01*
X126631330Y-131390882D01*
X126607011Y-131394733D01*
X126429147Y-131422904D01*
X126234458Y-131486163D01*
X126052068Y-131579097D01*
X125886468Y-131699410D01*
X125741710Y-131844168D01*
X125621397Y-132009768D01*
X125528463Y-132192158D01*
X125465204Y-132386847D01*
X125433182Y-132589030D01*
X123034182Y-132589030D01*
X123025939Y-132536988D01*
X123002159Y-132386847D01*
X122971140Y-132291382D01*
X122938902Y-132192163D01*
X122938900Y-132192160D01*
X122938900Y-132192158D01*
X122846101Y-132010032D01*
X122845969Y-132009772D01*
X122813774Y-131965459D01*
X122725653Y-131844168D01*
X122580895Y-131699410D01*
X122415295Y-131579097D01*
X122415294Y-131579096D01*
X122415292Y-131579095D01*
X122338990Y-131540217D01*
X122232905Y-131486163D01*
X122038216Y-131422904D01*
X121863677Y-131395260D01*
X121836034Y-131390882D01*
X121631330Y-131390882D01*
X121607011Y-131394733D01*
X121429147Y-131422904D01*
X121234458Y-131486163D01*
X121052068Y-131579097D01*
X120886468Y-131699410D01*
X120741710Y-131844168D01*
X120621397Y-132009768D01*
X120528463Y-132192158D01*
X120465204Y-132386847D01*
X120433182Y-132589030D01*
X119193682Y-132589030D01*
X119193682Y-125392363D01*
X120433182Y-125392363D01*
X120433182Y-125597066D01*
X120465204Y-125799249D01*
X120528463Y-125993938D01*
X120583996Y-126102925D01*
X120621267Y-126176074D01*
X120621397Y-126176328D01*
X120741710Y-126341928D01*
X120886468Y-126486686D01*
X121018204Y-126582396D01*
X121052072Y-126607002D01*
X121128351Y-126645868D01*
X121234458Y-126699933D01*
X121234460Y-126699933D01*
X121234463Y-126699935D01*
X121291188Y-126718366D01*
X121429147Y-126763192D01*
X121466840Y-126769162D01*
X121631330Y-126795215D01*
X121631331Y-126795215D01*
X121836033Y-126795215D01*
X121836034Y-126795215D01*
X122038216Y-126763192D01*
X122232901Y-126699935D01*
X122415292Y-126607002D01*
X122550319Y-126508900D01*
X122580895Y-126486686D01*
X122580897Y-126486683D01*
X122580901Y-126486681D01*
X122725648Y-126341934D01*
X122725650Y-126341930D01*
X122725653Y-126341928D01*
X122778414Y-126269305D01*
X122845969Y-126176325D01*
X122938902Y-125993934D01*
X123002159Y-125799249D01*
X123034182Y-125597067D01*
X123034182Y-125392363D01*
X125433182Y-125392363D01*
X125433182Y-125597066D01*
X125465204Y-125799249D01*
X125528463Y-125993938D01*
X125583996Y-126102925D01*
X125621267Y-126176074D01*
X125621397Y-126176328D01*
X125741710Y-126341928D01*
X125886468Y-126486686D01*
X126018204Y-126582396D01*
X126052072Y-126607002D01*
X126128351Y-126645868D01*
X126234458Y-126699933D01*
X126234460Y-126699933D01*
X126234463Y-126699935D01*
X126291188Y-126718366D01*
X126429147Y-126763192D01*
X126466840Y-126769162D01*
X126631330Y-126795215D01*
X126631331Y-126795215D01*
X126836033Y-126795215D01*
X126836034Y-126795215D01*
X127038216Y-126763192D01*
X127232901Y-126699935D01*
X127339013Y-126645868D01*
X128553182Y-126645868D01*
X128553182Y-126803561D01*
X128583943Y-126958204D01*
X128583946Y-126958216D01*
X128644284Y-127103887D01*
X128644291Y-127103900D01*
X128732284Y-127235589D01*
X128753162Y-127302266D01*
X128753182Y-127304480D01*
X128753182Y-127454949D01*
X128733497Y-127521988D01*
X128732284Y-127523840D01*
X128644291Y-127655529D01*
X128644284Y-127655542D01*
X128583946Y-127801213D01*
X128583943Y-127801225D01*
X128553182Y-127955868D01*
X128553182Y-128113561D01*
X128583943Y-128268204D01*
X128583946Y-128268216D01*
X128644284Y-128413887D01*
X128644291Y-128413900D01*
X128731892Y-128545003D01*
X128731895Y-128545007D01*
X128843389Y-128656501D01*
X128843393Y-128656504D01*
X128974496Y-128744105D01*
X128974509Y-128744112D01*
X129095970Y-128794422D01*
X129120185Y-128804452D01*
X129274835Y-128835214D01*
X129274838Y-128835215D01*
X129274840Y-128835215D01*
X129432526Y-128835215D01*
X129432527Y-128835214D01*
X129587179Y-128804452D01*
X129732861Y-128744109D01*
X129863971Y-128656504D01*
X129975471Y-128545004D01*
X130063076Y-128413894D01*
X130123419Y-128268212D01*
X130154182Y-128113557D01*
X130154182Y-127955873D01*
X130154182Y-127955870D01*
X130154181Y-127955868D01*
X130136055Y-127864745D01*
X130123419Y-127801218D01*
X130085672Y-127710088D01*
X130063079Y-127655542D01*
X130063072Y-127655529D01*
X129975080Y-127523840D01*
X129954202Y-127457162D01*
X129954182Y-127454949D01*
X129954182Y-127304480D01*
X129973867Y-127237441D01*
X129975080Y-127235589D01*
X130063072Y-127103900D01*
X130063072Y-127103899D01*
X130063076Y-127103894D01*
X130123419Y-126958212D01*
X130154182Y-126803557D01*
X130154182Y-126645873D01*
X130154182Y-126645870D01*
X130154181Y-126645868D01*
X130144123Y-126595302D01*
X130123419Y-126491218D01*
X130101893Y-126439249D01*
X130063079Y-126345542D01*
X130063072Y-126345529D01*
X129975471Y-126214426D01*
X129975468Y-126214422D01*
X129863974Y-126102928D01*
X129863970Y-126102925D01*
X129732867Y-126015324D01*
X129732854Y-126015317D01*
X129587183Y-125954979D01*
X129587171Y-125954976D01*
X129432527Y-125924215D01*
X129432524Y-125924215D01*
X129274840Y-125924215D01*
X129274837Y-125924215D01*
X129120192Y-125954976D01*
X129120180Y-125954979D01*
X128974509Y-126015317D01*
X128974496Y-126015324D01*
X128843393Y-126102925D01*
X128843389Y-126102928D01*
X128731895Y-126214422D01*
X128731892Y-126214426D01*
X128644291Y-126345529D01*
X128644284Y-126345542D01*
X128583946Y-126491213D01*
X128583943Y-126491225D01*
X128553182Y-126645868D01*
X127339013Y-126645868D01*
X127415292Y-126607002D01*
X127580901Y-126486681D01*
X127725648Y-126341934D01*
X127725650Y-126341930D01*
X127725653Y-126341928D01*
X127778414Y-126269305D01*
X127845969Y-126176325D01*
X127938902Y-125993934D01*
X128002159Y-125799249D01*
X128034182Y-125597067D01*
X128034182Y-125392363D01*
X128017227Y-125285317D01*
X128002159Y-125190180D01*
X127946755Y-125019666D01*
X127938902Y-124995496D01*
X127938900Y-124995493D01*
X127938900Y-124995491D01*
X127876449Y-124872926D01*
X127845969Y-124813105D01*
X127813774Y-124768792D01*
X127725653Y-124647501D01*
X127580895Y-124502743D01*
X127415295Y-124382430D01*
X127415294Y-124382429D01*
X127415292Y-124382428D01*
X127316051Y-124331862D01*
X127232905Y-124289496D01*
X127038216Y-124226237D01*
X126863677Y-124198593D01*
X126836034Y-124194215D01*
X126631330Y-124194215D01*
X126607011Y-124198066D01*
X126429147Y-124226237D01*
X126234458Y-124289496D01*
X126052068Y-124382430D01*
X125886468Y-124502743D01*
X125741710Y-124647501D01*
X125621397Y-124813101D01*
X125528463Y-124995491D01*
X125465204Y-125190180D01*
X125433182Y-125392363D01*
X123034182Y-125392363D01*
X123017227Y-125285317D01*
X123002159Y-125190180D01*
X122946755Y-125019666D01*
X122938902Y-124995496D01*
X122938900Y-124995493D01*
X122938900Y-124995491D01*
X122876449Y-124872926D01*
X122845969Y-124813105D01*
X122813774Y-124768792D01*
X122725653Y-124647501D01*
X122580895Y-124502743D01*
X122415295Y-124382430D01*
X122415294Y-124382429D01*
X122415292Y-124382428D01*
X122316051Y-124331862D01*
X122232905Y-124289496D01*
X122038216Y-124226237D01*
X121863677Y-124198593D01*
X121836034Y-124194215D01*
X121631330Y-124194215D01*
X121607011Y-124198066D01*
X121429147Y-124226237D01*
X121234458Y-124289496D01*
X121052068Y-124382430D01*
X120886468Y-124502743D01*
X120741710Y-124647501D01*
X120621397Y-124813101D01*
X120528463Y-124995491D01*
X120465204Y-125190180D01*
X120433182Y-125392363D01*
X119193682Y-125392363D01*
X119193682Y-120742298D01*
X128593180Y-120742298D01*
X128634105Y-120895029D01*
X128648517Y-120919991D01*
X128713159Y-121031956D01*
X128713163Y-121031961D01*
X128832031Y-121150829D01*
X128832037Y-121150834D01*
X131275292Y-123594089D01*
X131275302Y-123594100D01*
X131279632Y-123598430D01*
X131279633Y-123598431D01*
X131391437Y-123710235D01*
X131478248Y-123760354D01*
X131478250Y-123760356D01*
X131516304Y-123782326D01*
X131528368Y-123789292D01*
X131681096Y-123830215D01*
X131839210Y-123830215D01*
X135553339Y-123830215D01*
X135620378Y-123849900D01*
X135641020Y-123866534D01*
X136824203Y-125049717D01*
X136857688Y-125111040D01*
X136858139Y-125113204D01*
X136861839Y-125131803D01*
X136855613Y-125201395D01*
X136812751Y-125256573D01*
X136746862Y-125279819D01*
X136678864Y-125263753D01*
X136652541Y-125243678D01*
X136553468Y-125144605D01*
X136381502Y-125019666D01*
X136192096Y-124923159D01*
X136192095Y-124923158D01*
X136192094Y-124923158D01*
X135989925Y-124857469D01*
X135989923Y-124857468D01*
X135989922Y-124857468D01*
X135828639Y-124831923D01*
X135779969Y-124824215D01*
X135567395Y-124824215D01*
X135518724Y-124831923D01*
X135357442Y-124857468D01*
X135155267Y-124923159D01*
X134965861Y-125019666D01*
X134793897Y-125144604D01*
X134680355Y-125258146D01*
X134619032Y-125291630D01*
X134549340Y-125286646D01*
X134493407Y-125244774D01*
X134476492Y-125213797D01*
X134427479Y-125082386D01*
X134427475Y-125082379D01*
X134341229Y-124967170D01*
X134341226Y-124967167D01*
X134226017Y-124880921D01*
X134226010Y-124880917D01*
X134091164Y-124830623D01*
X134091165Y-124830623D01*
X134031565Y-124824216D01*
X134031563Y-124824215D01*
X134031555Y-124824215D01*
X134031546Y-124824215D01*
X132235811Y-124824215D01*
X132235805Y-124824216D01*
X132176198Y-124830623D01*
X132041353Y-124880917D01*
X132041346Y-124880921D01*
X131926137Y-124967167D01*
X131926134Y-124967170D01*
X131839888Y-125082379D01*
X131839884Y-125082386D01*
X131789590Y-125217232D01*
X131783183Y-125276831D01*
X131783182Y-125276850D01*
X131783182Y-127072585D01*
X131783183Y-127072591D01*
X131789590Y-127132198D01*
X131839884Y-127267043D01*
X131839888Y-127267050D01*
X131926134Y-127382259D01*
X131926137Y-127382262D01*
X132041346Y-127468508D01*
X132041353Y-127468512D01*
X132176199Y-127518806D01*
X132176198Y-127518806D01*
X132183126Y-127519550D01*
X132235809Y-127525215D01*
X134031554Y-127525214D01*
X134091165Y-127518806D01*
X134226013Y-127468511D01*
X134341228Y-127382261D01*
X134427478Y-127267046D01*
X134476492Y-127135631D01*
X134518363Y-127079699D01*
X134583827Y-127055281D01*
X134652100Y-127070132D01*
X134680355Y-127091284D01*
X134793895Y-127204824D01*
X134965861Y-127329763D01*
X134965863Y-127329764D01*
X134965866Y-127329766D01*
X135155270Y-127426272D01*
X135357439Y-127491961D01*
X135567395Y-127525215D01*
X135567396Y-127525215D01*
X135779968Y-127525215D01*
X135779969Y-127525215D01*
X135989925Y-127491961D01*
X136192094Y-127426272D01*
X136381498Y-127329766D01*
X136403471Y-127313801D01*
X136553468Y-127204824D01*
X136553470Y-127204821D01*
X136553474Y-127204819D01*
X136703786Y-127054507D01*
X136703788Y-127054503D01*
X136703791Y-127054501D01*
X136794089Y-126930215D01*
X136828733Y-126882531D01*
X136886497Y-126769161D01*
X136934471Y-126718366D01*
X137002292Y-126701570D01*
X137068427Y-126724107D01*
X137084663Y-126737775D01*
X137098389Y-126751501D01*
X137098393Y-126751504D01*
X137229496Y-126839105D01*
X137229509Y-126839112D01*
X137334336Y-126882532D01*
X137375185Y-126899452D01*
X137529835Y-126930214D01*
X137529838Y-126930215D01*
X137529840Y-126930215D01*
X137687526Y-126930215D01*
X137687527Y-126930214D01*
X137842179Y-126899452D01*
X137987861Y-126839109D01*
X138118971Y-126751504D01*
X138230471Y-126640004D01*
X138318076Y-126508894D01*
X138378419Y-126363212D01*
X138406779Y-126220637D01*
X138409320Y-126207865D01*
X138441705Y-126145954D01*
X138443200Y-126144431D01*
X140361098Y-124226534D01*
X140422421Y-124193049D01*
X140448779Y-124190215D01*
X142631055Y-124190215D01*
X142698094Y-124209900D01*
X142743849Y-124262704D01*
X142753793Y-124331862D01*
X142724768Y-124395418D01*
X142718736Y-124401896D01*
X137798163Y-129322468D01*
X137798161Y-129322470D01*
X137781613Y-129351133D01*
X137774618Y-129363250D01*
X137719105Y-129459401D01*
X137678181Y-129612129D01*
X137678181Y-129612131D01*
X137678181Y-129780232D01*
X137678182Y-129780245D01*
X137678182Y-130101574D01*
X137678181Y-130101592D01*
X137678181Y-130267298D01*
X137678180Y-130267298D01*
X137719105Y-130420029D01*
X137733517Y-130444991D01*
X137798159Y-130556956D01*
X137798163Y-130556961D01*
X137917031Y-130675829D01*
X137917037Y-130675834D01*
X138056157Y-130814954D01*
X138089642Y-130876277D01*
X138090093Y-130878443D01*
X138108943Y-130973209D01*
X138108946Y-130973219D01*
X138169284Y-131118890D01*
X138169291Y-131118903D01*
X138256892Y-131250006D01*
X138256895Y-131250010D01*
X138368389Y-131361504D01*
X138368393Y-131361507D01*
X138499496Y-131449108D01*
X138499509Y-131449115D01*
X138590070Y-131486626D01*
X138645185Y-131509455D01*
X138799835Y-131540217D01*
X138799838Y-131540218D01*
X138799840Y-131540218D01*
X138957526Y-131540218D01*
X138957527Y-131540217D01*
X139112179Y-131509455D01*
X139257861Y-131449112D01*
X139388971Y-131361507D01*
X139500471Y-131250007D01*
X139588076Y-131118897D01*
X139648419Y-130973215D01*
X139679182Y-130818560D01*
X139679182Y-130660876D01*
X139679182Y-130660873D01*
X139679181Y-130660871D01*
X139658512Y-130556961D01*
X139648419Y-130506221D01*
X139599105Y-130387167D01*
X139591637Y-130317699D01*
X139599103Y-130292269D01*
X139648419Y-130173212D01*
X139679182Y-130018557D01*
X139679182Y-129895598D01*
X139698867Y-129828559D01*
X139715501Y-129807917D01*
X140819223Y-128704195D01*
X141960123Y-127563294D01*
X142021444Y-127529811D01*
X142091136Y-127534795D01*
X142135483Y-127563296D01*
X142217524Y-127645337D01*
X142217530Y-127645342D01*
X142567806Y-127995618D01*
X142567816Y-127995629D01*
X142572146Y-127999959D01*
X142572147Y-127999960D01*
X142683951Y-128111764D01*
X142735512Y-128141532D01*
X142770762Y-128161883D01*
X142770764Y-128161885D01*
X142820880Y-128190820D01*
X142820882Y-128190821D01*
X142968300Y-128230322D01*
X143007715Y-128250569D01*
X143008330Y-128249649D01*
X143144498Y-128340634D01*
X143144511Y-128340641D01*
X143290182Y-128400979D01*
X143290187Y-128400981D01*
X143444837Y-128431743D01*
X143444840Y-128431744D01*
X143444842Y-128431744D01*
X143602528Y-128431744D01*
X143602529Y-128431743D01*
X143757181Y-128400981D01*
X143902863Y-128340638D01*
X144033973Y-128253033D01*
X144145473Y-128141533D01*
X144233078Y-128010423D01*
X144293421Y-127864741D01*
X144324184Y-127710086D01*
X144324184Y-127633723D01*
X144343869Y-127566684D01*
X144396673Y-127520929D01*
X144448184Y-127509723D01*
X153247507Y-127509723D01*
X153247523Y-127509724D01*
X153255119Y-127509724D01*
X153413230Y-127509724D01*
X153413233Y-127509724D01*
X153565961Y-127468800D01*
X153639621Y-127426272D01*
X153639625Y-127426270D01*
X153702885Y-127389747D01*
X153702884Y-127389747D01*
X153702892Y-127389743D01*
X153771767Y-127320868D01*
X162208182Y-127320868D01*
X162208182Y-127478561D01*
X162238943Y-127633204D01*
X162238946Y-127633216D01*
X162299284Y-127778887D01*
X162299291Y-127778900D01*
X162386892Y-127910003D01*
X162386895Y-127910007D01*
X162498389Y-128021501D01*
X162498393Y-128021504D01*
X162629496Y-128109105D01*
X162629509Y-128109112D01*
X162775180Y-128169450D01*
X162775185Y-128169452D01*
X162839829Y-128182310D01*
X162930531Y-128200353D01*
X162992442Y-128232738D01*
X162994021Y-128234289D01*
X164428821Y-129669089D01*
X164428831Y-129669100D01*
X164433161Y-129673430D01*
X164433162Y-129673431D01*
X164544966Y-129785235D01*
X164544968Y-129785236D01*
X164544972Y-129785239D01*
X164604361Y-129819527D01*
X164604366Y-129819529D01*
X164681891Y-129864289D01*
X164681892Y-129864290D01*
X164681894Y-129864290D01*
X164681897Y-129864292D01*
X164834625Y-129905216D01*
X164834628Y-129905216D01*
X165000335Y-129905216D01*
X165000351Y-129905215D01*
X169413916Y-129905215D01*
X169480955Y-129924900D01*
X169482807Y-129926113D01*
X169614496Y-130014105D01*
X169614509Y-130014112D01*
X169760180Y-130074450D01*
X169760185Y-130074452D01*
X169896536Y-130101574D01*
X169914835Y-130105214D01*
X169914838Y-130105215D01*
X169914840Y-130105215D01*
X170072526Y-130105215D01*
X170072527Y-130105214D01*
X170227179Y-130074452D01*
X170362118Y-130018559D01*
X170372854Y-130014112D01*
X170372854Y-130014111D01*
X170372861Y-130014109D01*
X170503971Y-129926504D01*
X170615471Y-129815004D01*
X170703076Y-129683894D01*
X170763419Y-129538212D01*
X170794182Y-129383557D01*
X170794182Y-129225873D01*
X170794182Y-129225870D01*
X170794181Y-129225868D01*
X170763420Y-129071225D01*
X170763419Y-129071218D01*
X170763417Y-129071213D01*
X170703079Y-128925542D01*
X170703072Y-128925529D01*
X170615471Y-128794426D01*
X170615468Y-128794422D01*
X170503974Y-128682928D01*
X170503970Y-128682925D01*
X170372867Y-128595324D01*
X170372854Y-128595317D01*
X170227183Y-128534979D01*
X170227171Y-128534976D01*
X170072527Y-128504215D01*
X170072524Y-128504215D01*
X169914840Y-128504215D01*
X169914837Y-128504215D01*
X169760192Y-128534976D01*
X169760180Y-128534979D01*
X169614509Y-128595317D01*
X169614496Y-128595324D01*
X169482807Y-128683317D01*
X169416129Y-128704195D01*
X169413916Y-128704215D01*
X165213779Y-128704215D01*
X165146740Y-128684530D01*
X165126098Y-128667896D01*
X163843256Y-127385054D01*
X163809771Y-127323731D01*
X163809320Y-127321564D01*
X163778420Y-127166225D01*
X163778419Y-127166218D01*
X163739638Y-127072591D01*
X163718079Y-127020542D01*
X163718072Y-127020529D01*
X163630471Y-126889426D01*
X163630468Y-126889422D01*
X163518974Y-126777928D01*
X163518970Y-126777925D01*
X163387867Y-126690324D01*
X163387854Y-126690317D01*
X163242183Y-126629979D01*
X163242171Y-126629976D01*
X163087527Y-126599215D01*
X163087524Y-126599215D01*
X162929840Y-126599215D01*
X162929837Y-126599215D01*
X162775192Y-126629976D01*
X162775180Y-126629979D01*
X162629509Y-126690317D01*
X162629496Y-126690324D01*
X162498393Y-126777925D01*
X162498389Y-126777928D01*
X162386895Y-126889422D01*
X162386892Y-126889426D01*
X162299291Y-127020529D01*
X162299284Y-127020542D01*
X162238946Y-127166213D01*
X162238943Y-127166225D01*
X162208182Y-127320868D01*
X153771767Y-127320868D01*
X153814696Y-127277939D01*
X153814696Y-127277937D01*
X153824900Y-127267734D01*
X153824904Y-127267729D01*
X158079162Y-123013470D01*
X158140483Y-122979987D01*
X158205157Y-122983221D01*
X158247441Y-122996961D01*
X158457397Y-123030215D01*
X158457398Y-123030215D01*
X158669970Y-123030215D01*
X158669971Y-123030215D01*
X158879927Y-122996961D01*
X159082096Y-122931272D01*
X159271500Y-122834766D01*
X159326256Y-122794984D01*
X159443470Y-122709824D01*
X159443472Y-122709821D01*
X159443476Y-122709819D01*
X159593788Y-122559507D01*
X159593790Y-122559503D01*
X159593793Y-122559501D01*
X159718732Y-122387535D01*
X159718731Y-122387535D01*
X159718735Y-122387531D01*
X159723198Y-122378769D01*
X159771172Y-122327974D01*
X159838992Y-122311178D01*
X159905128Y-122333714D01*
X159944170Y-122378771D01*
X159948635Y-122387535D01*
X160073574Y-122559501D01*
X160073580Y-122559507D01*
X160223892Y-122709819D01*
X160395868Y-122834766D01*
X160435478Y-122854948D01*
X160486273Y-122902920D01*
X160499845Y-122953092D01*
X160502122Y-122952793D01*
X160503182Y-122960850D01*
X160503183Y-122960853D01*
X160544107Y-123113581D01*
X160565514Y-123150658D01*
X160603947Y-123217227D01*
X160623163Y-123250511D01*
X160742033Y-123369381D01*
X160742038Y-123369385D01*
X163947887Y-126575235D01*
X163947889Y-126575236D01*
X163947893Y-126575239D01*
X164070237Y-126645873D01*
X164084819Y-126654292D01*
X164237546Y-126695216D01*
X164237548Y-126695216D01*
X164403257Y-126695216D01*
X164403273Y-126695215D01*
X168198267Y-126695215D01*
X168245719Y-126704654D01*
X168385868Y-126762705D01*
X168390086Y-126764452D01*
X168542227Y-126794715D01*
X168544736Y-126795214D01*
X168544739Y-126795215D01*
X168544741Y-126795215D01*
X168702427Y-126795215D01*
X168702428Y-126795214D01*
X168857080Y-126764452D01*
X169002762Y-126704109D01*
X169133872Y-126616504D01*
X169139475Y-126610900D01*
X169200793Y-126577415D01*
X169270485Y-126582396D01*
X169300044Y-126598263D01*
X169312070Y-126607001D01*
X169494458Y-126699933D01*
X169494460Y-126699933D01*
X169494463Y-126699935D01*
X169551188Y-126718366D01*
X169689147Y-126763192D01*
X169726840Y-126769162D01*
X169891330Y-126795215D01*
X169891331Y-126795215D01*
X170096033Y-126795215D01*
X170096034Y-126795215D01*
X170298216Y-126763192D01*
X170492901Y-126699935D01*
X170675292Y-126607002D01*
X170810319Y-126508900D01*
X170840895Y-126486686D01*
X170840897Y-126486683D01*
X170840901Y-126486681D01*
X170985648Y-126341934D01*
X170985650Y-126341930D01*
X170985653Y-126341928D01*
X171038414Y-126269305D01*
X171105969Y-126176325D01*
X171198902Y-125993934D01*
X171262159Y-125799249D01*
X171294182Y-125597067D01*
X171294182Y-125392397D01*
X173693682Y-125392397D01*
X173693682Y-125597032D01*
X173725691Y-125799132D01*
X173788926Y-125993746D01*
X173881823Y-126176065D01*
X173881829Y-126176074D01*
X173914205Y-126220636D01*
X173914206Y-126220637D01*
X174593682Y-125541161D01*
X174593682Y-125547376D01*
X174620941Y-125649109D01*
X174673602Y-125740321D01*
X174748076Y-125814795D01*
X174839288Y-125867456D01*
X174941021Y-125894715D01*
X174947235Y-125894715D01*
X174267758Y-126574189D01*
X174312332Y-126606574D01*
X174494650Y-126699470D01*
X174689264Y-126762705D01*
X174891365Y-126794715D01*
X175095999Y-126794715D01*
X175298099Y-126762705D01*
X175492713Y-126699470D01*
X175675031Y-126606574D01*
X175719603Y-126574189D01*
X175040129Y-125894715D01*
X175046343Y-125894715D01*
X175148076Y-125867456D01*
X175239288Y-125814795D01*
X175313762Y-125740321D01*
X175366423Y-125649109D01*
X175393682Y-125547376D01*
X175393682Y-125541163D01*
X176073156Y-126220637D01*
X176073156Y-126220636D01*
X176105541Y-126176064D01*
X176198437Y-125993746D01*
X176261672Y-125799132D01*
X176293682Y-125597032D01*
X176293682Y-125392397D01*
X176261672Y-125190297D01*
X176198437Y-124995683D01*
X176105541Y-124813365D01*
X176073156Y-124768792D01*
X176073156Y-124768791D01*
X175393682Y-125448266D01*
X175393682Y-125442054D01*
X175366423Y-125340321D01*
X175313762Y-125249109D01*
X175239288Y-125174635D01*
X175148076Y-125121974D01*
X175046343Y-125094715D01*
X175040128Y-125094715D01*
X175719604Y-124415239D01*
X175719603Y-124415238D01*
X175675041Y-124382862D01*
X175675032Y-124382856D01*
X175492713Y-124289959D01*
X175298099Y-124226724D01*
X175095999Y-124194715D01*
X174891365Y-124194715D01*
X174689264Y-124226724D01*
X174494650Y-124289959D01*
X174312326Y-124382858D01*
X174267759Y-124415238D01*
X174267759Y-124415239D01*
X174947236Y-125094715D01*
X174941021Y-125094715D01*
X174839288Y-125121974D01*
X174748076Y-125174635D01*
X174673602Y-125249109D01*
X174620941Y-125340321D01*
X174593682Y-125442054D01*
X174593682Y-125448268D01*
X173914206Y-124768792D01*
X173914205Y-124768792D01*
X173881825Y-124813359D01*
X173788926Y-124995683D01*
X173725691Y-125190297D01*
X173693682Y-125392397D01*
X171294182Y-125392397D01*
X171294182Y-125392363D01*
X171277227Y-125285317D01*
X171262159Y-125190180D01*
X171206755Y-125019666D01*
X171198902Y-124995496D01*
X171198900Y-124995493D01*
X171198900Y-124995491D01*
X171136449Y-124872926D01*
X171105969Y-124813105D01*
X171073774Y-124768792D01*
X170985653Y-124647501D01*
X170840895Y-124502743D01*
X170675295Y-124382430D01*
X170675294Y-124382429D01*
X170675292Y-124382428D01*
X170576051Y-124331862D01*
X170492905Y-124289496D01*
X170298216Y-124226237D01*
X170123677Y-124198593D01*
X170096034Y-124194215D01*
X169891330Y-124194215D01*
X169867011Y-124198066D01*
X169689147Y-124226237D01*
X169494458Y-124289496D01*
X169312068Y-124382430D01*
X169146468Y-124502743D01*
X169001710Y-124647501D01*
X168881397Y-124813101D01*
X168788463Y-124995493D01*
X168751734Y-125108533D01*
X168712296Y-125166209D01*
X168647938Y-125193407D01*
X168633803Y-125194215D01*
X168544738Y-125194215D01*
X168390093Y-125224976D01*
X168390081Y-125224979D01*
X168244410Y-125285317D01*
X168244397Y-125285324D01*
X168113295Y-125372924D01*
X168091813Y-125394407D01*
X168028322Y-125457897D01*
X167967002Y-125491381D01*
X167940643Y-125494215D01*
X165831530Y-125494215D01*
X165764491Y-125474530D01*
X165718736Y-125421726D01*
X165709913Y-125394407D01*
X165683420Y-125261223D01*
X165683419Y-125261222D01*
X165683419Y-125261218D01*
X165676154Y-125243678D01*
X165623079Y-125115542D01*
X165623072Y-125115529D01*
X165535471Y-124984426D01*
X165535468Y-124984422D01*
X165423974Y-124872928D01*
X165423970Y-124872925D01*
X165292867Y-124785324D01*
X165292854Y-124785317D01*
X165147183Y-124724979D01*
X165147173Y-124724976D01*
X164991831Y-124694076D01*
X164929920Y-124661691D01*
X164928342Y-124660140D01*
X163510098Y-123241896D01*
X163476613Y-123180573D01*
X163481597Y-123110881D01*
X163523469Y-123054948D01*
X163588933Y-123030531D01*
X163597779Y-123030215D01*
X163749970Y-123030215D01*
X163749971Y-123030215D01*
X163959927Y-122996961D01*
X164162096Y-122931272D01*
X164351500Y-122834766D01*
X164406256Y-122794984D01*
X164523470Y-122709824D01*
X164523472Y-122709821D01*
X164523476Y-122709819D01*
X164673788Y-122559507D01*
X164673790Y-122559503D01*
X164673793Y-122559501D01*
X164759574Y-122441432D01*
X164798735Y-122387531D01*
X164803477Y-122378223D01*
X164851447Y-122327426D01*
X164919267Y-122310626D01*
X164985403Y-122333160D01*
X165024447Y-122378215D01*
X165029057Y-122387262D01*
X165068412Y-122441431D01*
X165700720Y-121809122D01*
X165717759Y-121872708D01*
X165783585Y-121986722D01*
X165876677Y-122079814D01*
X165990691Y-122145640D01*
X166054274Y-122162677D01*
X165421966Y-122794984D01*
X165421966Y-122794985D01*
X165476133Y-122834339D01*
X165665466Y-122930810D01*
X165867554Y-122996472D01*
X166077438Y-123029715D01*
X166289930Y-123029715D01*
X166499811Y-122996472D01*
X166499814Y-122996472D01*
X166701901Y-122930810D01*
X166891238Y-122834337D01*
X166945400Y-122794985D01*
X166945401Y-122794985D01*
X166313092Y-122162677D01*
X166376677Y-122145640D01*
X166490691Y-122079814D01*
X166583783Y-121986722D01*
X166649609Y-121872708D01*
X166666646Y-121809124D01*
X167298954Y-122441432D01*
X167298954Y-122441431D01*
X167338306Y-122387269D01*
X167434779Y-122197932D01*
X167500441Y-121995845D01*
X167500441Y-121995842D01*
X167533684Y-121785961D01*
X167533684Y-121573468D01*
X167500441Y-121363587D01*
X167500441Y-121363584D01*
X167434778Y-121161495D01*
X167433950Y-121159869D01*
X167433821Y-121159183D01*
X167432915Y-121156996D01*
X167433374Y-121156805D01*
X167421048Y-121091201D01*
X167447319Y-121026459D01*
X167456749Y-121015884D01*
X167462395Y-121010237D01*
X167462400Y-121010235D01*
X167574204Y-120898431D01*
X167574205Y-120898428D01*
X169082186Y-119390446D01*
X169082196Y-119390439D01*
X169092514Y-119380121D01*
X169109015Y-119371109D01*
X169114409Y-119367222D01*
X169114417Y-119367218D01*
X169114786Y-119367957D01*
X169153835Y-119346633D01*
X169223527Y-119351614D01*
X169253083Y-119367479D01*
X169270645Y-119380238D01*
X169312072Y-119410336D01*
X169399978Y-119455126D01*
X169494458Y-119503267D01*
X169494460Y-119503267D01*
X169494463Y-119503269D01*
X169598819Y-119537176D01*
X169689147Y-119566526D01*
X169790239Y-119582537D01*
X169891330Y-119598549D01*
X169891331Y-119598549D01*
X170096033Y-119598549D01*
X170096034Y-119598549D01*
X170298216Y-119566526D01*
X170492901Y-119503269D01*
X170675292Y-119410336D01*
X170768272Y-119342781D01*
X170840895Y-119290020D01*
X170840897Y-119290017D01*
X170840901Y-119290015D01*
X170985648Y-119145268D01*
X170985650Y-119145264D01*
X170985653Y-119145262D01*
X171070630Y-119028299D01*
X171105969Y-118979659D01*
X171198902Y-118797268D01*
X171262159Y-118602583D01*
X171294182Y-118400401D01*
X171294182Y-118195731D01*
X173693682Y-118195731D01*
X173693682Y-118400366D01*
X173725691Y-118602466D01*
X173788926Y-118797080D01*
X173881823Y-118979399D01*
X173881829Y-118979408D01*
X173914205Y-119023970D01*
X173914206Y-119023971D01*
X174593682Y-118344495D01*
X174593682Y-118350710D01*
X174620941Y-118452443D01*
X174673602Y-118543655D01*
X174748076Y-118618129D01*
X174839288Y-118670790D01*
X174941021Y-118698049D01*
X174947235Y-118698049D01*
X174267758Y-119377523D01*
X174312332Y-119409908D01*
X174494650Y-119502804D01*
X174689264Y-119566039D01*
X174891365Y-119598049D01*
X175095999Y-119598049D01*
X175298099Y-119566039D01*
X175492713Y-119502804D01*
X175675031Y-119409908D01*
X175719603Y-119377523D01*
X175040129Y-118698049D01*
X175046343Y-118698049D01*
X175148076Y-118670790D01*
X175239288Y-118618129D01*
X175313762Y-118543655D01*
X175366423Y-118452443D01*
X175393682Y-118350710D01*
X175393682Y-118344497D01*
X176073156Y-119023971D01*
X176073156Y-119023970D01*
X176105541Y-118979398D01*
X176198437Y-118797080D01*
X176261672Y-118602466D01*
X176293682Y-118400366D01*
X176293682Y-118195731D01*
X176261672Y-117993631D01*
X176198437Y-117799017D01*
X176105541Y-117616699D01*
X176073156Y-117572126D01*
X176073156Y-117572125D01*
X175393682Y-118251600D01*
X175393682Y-118245388D01*
X175366423Y-118143655D01*
X175313762Y-118052443D01*
X175239288Y-117977969D01*
X175148076Y-117925308D01*
X175046343Y-117898049D01*
X175040128Y-117898049D01*
X175719604Y-117218573D01*
X175719603Y-117218572D01*
X175675041Y-117186196D01*
X175675032Y-117186190D01*
X175492713Y-117093293D01*
X175298099Y-117030058D01*
X175095999Y-116998049D01*
X174891365Y-116998049D01*
X174689264Y-117030058D01*
X174494650Y-117093293D01*
X174312326Y-117186192D01*
X174267759Y-117218572D01*
X174267759Y-117218573D01*
X174947236Y-117898049D01*
X174941021Y-117898049D01*
X174839288Y-117925308D01*
X174748076Y-117977969D01*
X174673602Y-118052443D01*
X174620941Y-118143655D01*
X174593682Y-118245388D01*
X174593682Y-118251602D01*
X173914206Y-117572126D01*
X173914205Y-117572126D01*
X173881825Y-117616693D01*
X173788926Y-117799017D01*
X173725691Y-117993631D01*
X173693682Y-118195731D01*
X171294182Y-118195731D01*
X171294182Y-118195697D01*
X171277971Y-118093345D01*
X171262159Y-117993514D01*
X171211046Y-117836206D01*
X171198902Y-117798830D01*
X171198900Y-117798827D01*
X171198900Y-117798825D01*
X171157068Y-117716726D01*
X171105969Y-117616439D01*
X171073774Y-117572126D01*
X170985653Y-117450835D01*
X170840895Y-117306077D01*
X170675295Y-117185764D01*
X170675294Y-117185763D01*
X170675292Y-117185762D01*
X170578204Y-117136293D01*
X170492905Y-117092830D01*
X170298216Y-117029571D01*
X170123677Y-117001927D01*
X170096034Y-116997549D01*
X169891330Y-116997549D01*
X169836629Y-117006213D01*
X169689146Y-117029572D01*
X169627199Y-117049699D01*
X169557358Y-117051693D01*
X169497526Y-117015611D01*
X169466699Y-116952910D01*
X169474323Y-116884313D01*
X169484170Y-116860542D01*
X169493419Y-116838212D01*
X169524182Y-116683557D01*
X169524182Y-116525873D01*
X169524182Y-116525870D01*
X169524181Y-116525868D01*
X169508493Y-116447002D01*
X169493419Y-116371218D01*
X169493417Y-116371213D01*
X169433079Y-116225542D01*
X169433072Y-116225529D01*
X169345471Y-116094426D01*
X169345468Y-116094422D01*
X169233974Y-115982928D01*
X169233970Y-115982925D01*
X169102867Y-115895324D01*
X169102854Y-115895317D01*
X168957183Y-115834979D01*
X168957171Y-115834976D01*
X168802527Y-115804215D01*
X168802524Y-115804215D01*
X168644840Y-115804215D01*
X168644837Y-115804215D01*
X168490192Y-115834976D01*
X168490180Y-115834979D01*
X168344509Y-115895317D01*
X168344496Y-115895324D01*
X168213393Y-115982925D01*
X168213389Y-115982928D01*
X168101895Y-116094422D01*
X168101892Y-116094426D01*
X168014291Y-116225529D01*
X168014284Y-116225542D01*
X167953946Y-116371213D01*
X167953943Y-116371225D01*
X167923182Y-116525868D01*
X167923182Y-116683561D01*
X167953943Y-116838204D01*
X167953946Y-116838216D01*
X168014284Y-116983887D01*
X168014291Y-116983900D01*
X168102284Y-117115589D01*
X168123162Y-117182266D01*
X168123182Y-117184480D01*
X168123182Y-118599619D01*
X168103497Y-118666658D01*
X168086863Y-118687300D01*
X167745864Y-119028299D01*
X167684541Y-119061784D01*
X167614849Y-119056800D01*
X167558916Y-119014928D01*
X167534499Y-118949464D01*
X167534183Y-118940618D01*
X167534183Y-118241844D01*
X167534182Y-118241838D01*
X167527775Y-118182231D01*
X167477481Y-118047386D01*
X167477477Y-118047379D01*
X167391231Y-117932170D01*
X167391228Y-117932167D01*
X167276019Y-117845921D01*
X167276012Y-117845917D01*
X167141166Y-117795623D01*
X167141167Y-117795623D01*
X167081567Y-117789216D01*
X167081565Y-117789215D01*
X167081557Y-117789215D01*
X167081549Y-117789215D01*
X166142780Y-117789215D01*
X166075741Y-117769530D01*
X166029986Y-117716726D01*
X166020042Y-117647568D01*
X166049067Y-117584012D01*
X166055099Y-117577534D01*
X167737316Y-115895317D01*
X169470637Y-114161995D01*
X169531958Y-114128512D01*
X169601650Y-114133496D01*
X169609422Y-114137005D01*
X169750818Y-114195572D01*
X169760185Y-114199452D01*
X169914835Y-114230214D01*
X169914838Y-114230215D01*
X169914840Y-114230215D01*
X170072526Y-114230215D01*
X170072527Y-114230214D01*
X170227179Y-114199452D01*
X170372861Y-114139109D01*
X170503971Y-114051504D01*
X170615471Y-113940004D01*
X170703076Y-113808894D01*
X170763419Y-113663212D01*
X170794182Y-113508557D01*
X170794182Y-113350873D01*
X170794182Y-113350870D01*
X170794181Y-113350868D01*
X170763420Y-113196225D01*
X170763419Y-113196218D01*
X170763417Y-113196213D01*
X170703079Y-113050542D01*
X170703072Y-113050529D01*
X170615471Y-112919426D01*
X170615468Y-112919422D01*
X170503974Y-112807928D01*
X170503970Y-112807925D01*
X170372867Y-112720324D01*
X170372854Y-112720317D01*
X170227183Y-112659979D01*
X170227173Y-112659976D01*
X170127720Y-112640193D01*
X170065809Y-112607807D01*
X170031235Y-112547091D01*
X170034976Y-112477322D01*
X170075843Y-112420650D01*
X170132511Y-112396104D01*
X170298216Y-112369859D01*
X170492901Y-112306602D01*
X170675292Y-112213669D01*
X170813350Y-112113365D01*
X170840895Y-112093353D01*
X170840897Y-112093350D01*
X170840901Y-112093348D01*
X170985648Y-111948601D01*
X170985650Y-111948597D01*
X170985653Y-111948595D01*
X171038414Y-111875972D01*
X171105969Y-111782992D01*
X171198902Y-111600601D01*
X171262159Y-111405916D01*
X171294182Y-111203734D01*
X171294182Y-110999064D01*
X173693682Y-110999064D01*
X173693682Y-111203699D01*
X173725691Y-111405799D01*
X173788926Y-111600413D01*
X173881823Y-111782732D01*
X173881829Y-111782741D01*
X173914205Y-111827303D01*
X173914206Y-111827304D01*
X174593682Y-111147828D01*
X174593682Y-111154043D01*
X174620941Y-111255776D01*
X174673602Y-111346988D01*
X174748076Y-111421462D01*
X174839288Y-111474123D01*
X174941021Y-111501382D01*
X174947235Y-111501382D01*
X174267758Y-112180856D01*
X174312332Y-112213241D01*
X174494650Y-112306137D01*
X174689264Y-112369372D01*
X174891365Y-112401382D01*
X175095999Y-112401382D01*
X175298099Y-112369372D01*
X175492713Y-112306137D01*
X175675031Y-112213241D01*
X175719603Y-112180856D01*
X175040129Y-111501382D01*
X175046343Y-111501382D01*
X175148076Y-111474123D01*
X175239288Y-111421462D01*
X175313762Y-111346988D01*
X175366423Y-111255776D01*
X175393682Y-111154043D01*
X175393682Y-111147830D01*
X176073156Y-111827304D01*
X176073156Y-111827303D01*
X176105541Y-111782731D01*
X176198437Y-111600413D01*
X176261672Y-111405799D01*
X176293682Y-111203699D01*
X176293682Y-110999064D01*
X176261672Y-110796964D01*
X176198437Y-110602350D01*
X176105541Y-110420032D01*
X176073156Y-110375459D01*
X176073156Y-110375458D01*
X175393682Y-111054933D01*
X175393682Y-111048721D01*
X175366423Y-110946988D01*
X175313762Y-110855776D01*
X175239288Y-110781302D01*
X175148076Y-110728641D01*
X175046343Y-110701382D01*
X175040128Y-110701382D01*
X175719604Y-110021906D01*
X175719603Y-110021905D01*
X175675041Y-109989529D01*
X175675032Y-109989523D01*
X175492713Y-109896626D01*
X175298099Y-109833391D01*
X175095999Y-109801382D01*
X174891365Y-109801382D01*
X174689264Y-109833391D01*
X174494650Y-109896626D01*
X174312326Y-109989525D01*
X174267759Y-110021905D01*
X174267759Y-110021906D01*
X174947236Y-110701382D01*
X174941021Y-110701382D01*
X174839288Y-110728641D01*
X174748076Y-110781302D01*
X174673602Y-110855776D01*
X174620941Y-110946988D01*
X174593682Y-111048721D01*
X174593682Y-111054935D01*
X173914206Y-110375459D01*
X173914205Y-110375459D01*
X173881825Y-110420026D01*
X173788926Y-110602350D01*
X173725691Y-110796964D01*
X173693682Y-110999064D01*
X171294182Y-110999064D01*
X171294182Y-110999030D01*
X171284209Y-110936061D01*
X171262159Y-110796847D01*
X171207120Y-110627456D01*
X171198902Y-110602163D01*
X171198900Y-110602160D01*
X171198900Y-110602158D01*
X171106101Y-110420032D01*
X171105969Y-110419772D01*
X171073774Y-110375459D01*
X170985653Y-110254168D01*
X170840895Y-110109410D01*
X170675295Y-109989097D01*
X170675294Y-109989096D01*
X170675292Y-109989095D01*
X170598917Y-109950180D01*
X170492905Y-109896163D01*
X170298216Y-109832904D01*
X170123677Y-109805260D01*
X170096034Y-109800882D01*
X169891330Y-109800882D01*
X169867011Y-109804733D01*
X169689147Y-109832904D01*
X169494458Y-109896163D01*
X169312068Y-109989097D01*
X169146468Y-110109410D01*
X169001710Y-110254168D01*
X168881397Y-110419768D01*
X168788463Y-110602158D01*
X168725204Y-110796847D01*
X168696095Y-110980636D01*
X168693182Y-110999030D01*
X168693182Y-111203734D01*
X168694523Y-111212198D01*
X168725204Y-111405916D01*
X168788463Y-111600605D01*
X168846873Y-111715239D01*
X168881267Y-111782741D01*
X168881397Y-111782995D01*
X169001710Y-111948595D01*
X169146468Y-112093353D01*
X169285960Y-112194698D01*
X169312072Y-112213669D01*
X169423782Y-112270588D01*
X169494458Y-112306600D01*
X169494460Y-112306600D01*
X169494463Y-112306602D01*
X169598819Y-112340509D01*
X169689147Y-112369859D01*
X169718838Y-112374561D01*
X169854850Y-112396104D01*
X169917983Y-112426032D01*
X169954915Y-112485343D01*
X169953917Y-112555206D01*
X169915308Y-112613439D01*
X169859644Y-112640193D01*
X169760189Y-112659976D01*
X169760180Y-112659979D01*
X169614509Y-112720317D01*
X169614496Y-112720324D01*
X169482807Y-112808317D01*
X169416129Y-112829195D01*
X169413916Y-112829215D01*
X169274624Y-112829215D01*
X169233703Y-112840179D01*
X169233703Y-112840180D01*
X169219130Y-112844085D01*
X169121898Y-112870138D01*
X169121893Y-112870141D01*
X168984974Y-112949190D01*
X168984966Y-112949196D01*
X168873162Y-113061001D01*
X164128206Y-117805956D01*
X164066883Y-117839441D01*
X164002207Y-117836206D01*
X163959929Y-117822469D01*
X163808733Y-117798522D01*
X163749971Y-117789215D01*
X163537397Y-117789215D01*
X163488726Y-117796923D01*
X163327444Y-117822468D01*
X163327441Y-117822469D01*
X163136499Y-117884510D01*
X163066659Y-117886505D01*
X163006826Y-117850425D01*
X162975998Y-117787724D01*
X162974182Y-117766579D01*
X162974182Y-114206877D01*
X162993867Y-114139838D01*
X163046671Y-114094083D01*
X163072234Y-114085622D01*
X163076470Y-114084714D01*
X163076479Y-114084714D01*
X163243016Y-114029529D01*
X163392338Y-113937427D01*
X163516394Y-113813371D01*
X163608496Y-113664049D01*
X163631784Y-113593769D01*
X163635792Y-113585765D01*
X163653742Y-113566487D01*
X163668737Y-113544831D01*
X163677177Y-113541321D01*
X163683407Y-113534632D01*
X163708931Y-113528119D01*
X163733253Y-113518007D01*
X163749516Y-113517763D01*
X163751107Y-113517358D01*
X163752205Y-113517723D01*
X163756401Y-113517661D01*
X163794207Y-113520636D01*
X164473682Y-112841161D01*
X164473682Y-112847376D01*
X164500941Y-112949109D01*
X164553602Y-113040321D01*
X164628076Y-113114795D01*
X164719288Y-113167456D01*
X164821021Y-113194715D01*
X164827235Y-113194715D01*
X164147758Y-113874189D01*
X164192332Y-113906574D01*
X164374650Y-113999470D01*
X164569264Y-114062705D01*
X164771365Y-114094715D01*
X164975999Y-114094715D01*
X165178099Y-114062705D01*
X165372713Y-113999470D01*
X165555031Y-113906574D01*
X165599603Y-113874189D01*
X164920129Y-113194715D01*
X164926343Y-113194715D01*
X165028076Y-113167456D01*
X165119288Y-113114795D01*
X165193762Y-113040321D01*
X165246423Y-112949109D01*
X165273682Y-112847376D01*
X165273682Y-112841162D01*
X165953156Y-113520636D01*
X165985541Y-113476064D01*
X166078437Y-113293746D01*
X166141672Y-113099132D01*
X166173682Y-112897032D01*
X166173682Y-112692397D01*
X166141672Y-112490297D01*
X166078437Y-112295683D01*
X165985541Y-112113365D01*
X165953156Y-112068792D01*
X165953156Y-112068791D01*
X165273682Y-112748266D01*
X165273682Y-112742054D01*
X165246423Y-112640321D01*
X165193762Y-112549109D01*
X165119288Y-112474635D01*
X165028076Y-112421974D01*
X164926343Y-112394715D01*
X164920128Y-112394715D01*
X165599604Y-111715239D01*
X165599603Y-111715238D01*
X165555041Y-111682862D01*
X165555032Y-111682856D01*
X165372713Y-111589959D01*
X165178099Y-111526724D01*
X164975999Y-111494715D01*
X164771365Y-111494715D01*
X164569264Y-111526724D01*
X164374650Y-111589959D01*
X164192326Y-111682858D01*
X164147759Y-111715238D01*
X164147759Y-111715239D01*
X164827236Y-112394715D01*
X164821021Y-112394715D01*
X164719288Y-112421974D01*
X164628076Y-112474635D01*
X164553602Y-112549109D01*
X164500941Y-112640321D01*
X164473682Y-112742054D01*
X164473682Y-112748268D01*
X163794206Y-112068792D01*
X163756401Y-112071768D01*
X163688023Y-112057404D01*
X163638266Y-112008353D01*
X163635792Y-112003664D01*
X163631783Y-111995657D01*
X163608496Y-111925381D01*
X163516394Y-111776059D01*
X163392338Y-111652003D01*
X163243016Y-111559901D01*
X163215017Y-111550623D01*
X163076477Y-111504715D01*
X163072215Y-111503803D01*
X163010784Y-111470516D01*
X162977101Y-111409301D01*
X162974182Y-111382552D01*
X162974182Y-90448426D01*
X170683182Y-90448426D01*
X170683182Y-90691003D01*
X170714843Y-90931500D01*
X170777629Y-91165819D01*
X170841354Y-91319664D01*
X170870458Y-91389927D01*
X170991746Y-91600004D01*
X170991748Y-91600007D01*
X170991749Y-91600008D01*
X171139415Y-91792451D01*
X171139421Y-91792458D01*
X171310938Y-91963975D01*
X171310944Y-91963980D01*
X171503393Y-92111651D01*
X171713470Y-92232939D01*
X171937582Y-92325769D01*
X172171893Y-92388553D01*
X172352268Y-92412299D01*
X172412393Y-92420215D01*
X172412394Y-92420215D01*
X172654971Y-92420215D01*
X172703070Y-92413882D01*
X172895471Y-92388553D01*
X173129782Y-92325769D01*
X173353894Y-92232939D01*
X173563971Y-92111651D01*
X173756420Y-91963980D01*
X173927947Y-91792453D01*
X174075618Y-91600004D01*
X174196906Y-91389927D01*
X174289736Y-91165815D01*
X174352520Y-90931504D01*
X174384182Y-90691003D01*
X174384182Y-90448427D01*
X174352520Y-90207926D01*
X174289736Y-89973615D01*
X174196906Y-89749503D01*
X174075618Y-89539426D01*
X173927947Y-89346977D01*
X173927942Y-89346971D01*
X173756425Y-89175454D01*
X173756418Y-89175448D01*
X173563975Y-89027782D01*
X173563974Y-89027781D01*
X173563971Y-89027779D01*
X173353894Y-88906491D01*
X173353887Y-88906488D01*
X173129786Y-88813662D01*
X172895467Y-88750876D01*
X172654971Y-88719215D01*
X172654970Y-88719215D01*
X172412394Y-88719215D01*
X172412393Y-88719215D01*
X172171896Y-88750876D01*
X171937577Y-88813662D01*
X171713476Y-88906488D01*
X171713467Y-88906492D01*
X171503388Y-89027782D01*
X171310945Y-89175448D01*
X171310938Y-89175454D01*
X171139421Y-89346971D01*
X171139415Y-89346978D01*
X170991749Y-89539421D01*
X170870459Y-89749500D01*
X170870455Y-89749509D01*
X170777629Y-89973610D01*
X170714843Y-90207929D01*
X170683182Y-90448426D01*
X162974182Y-90448426D01*
X162974182Y-69535660D01*
X162974182Y-69535658D01*
X162933259Y-69382931D01*
X162884497Y-69298472D01*
X162854206Y-69246005D01*
X162854203Y-69246001D01*
X162854202Y-69245999D01*
X162742398Y-69134195D01*
X162742397Y-69134194D01*
X162738067Y-69129864D01*
X162738056Y-69129854D01*
X161220500Y-67612298D01*
X161207465Y-67588426D01*
X170683182Y-67588426D01*
X170683182Y-67831003D01*
X170714843Y-68071500D01*
X170777629Y-68305819D01*
X170868199Y-68524473D01*
X170870458Y-68529927D01*
X170991746Y-68740004D01*
X170991748Y-68740007D01*
X170991749Y-68740008D01*
X171139415Y-68932451D01*
X171139421Y-68932458D01*
X171310938Y-69103975D01*
X171310944Y-69103980D01*
X171503393Y-69251651D01*
X171713470Y-69372939D01*
X171937582Y-69465769D01*
X172171893Y-69528553D01*
X172352268Y-69552299D01*
X172412393Y-69560215D01*
X172412394Y-69560215D01*
X172654971Y-69560215D01*
X172703070Y-69553882D01*
X172895471Y-69528553D01*
X173129782Y-69465769D01*
X173353894Y-69372939D01*
X173563971Y-69251651D01*
X173756420Y-69103980D01*
X173927947Y-68932453D01*
X174075618Y-68740004D01*
X174196906Y-68529927D01*
X174289736Y-68305815D01*
X174352520Y-68071504D01*
X174384182Y-67831003D01*
X174384182Y-67588427D01*
X174352520Y-67347926D01*
X174289736Y-67113615D01*
X174196906Y-66889503D01*
X174075618Y-66679426D01*
X173927947Y-66486977D01*
X173927942Y-66486971D01*
X173756425Y-66315454D01*
X173756418Y-66315448D01*
X173563975Y-66167782D01*
X173563974Y-66167781D01*
X173563971Y-66167779D01*
X173353894Y-66046491D01*
X173353887Y-66046488D01*
X173129786Y-65953662D01*
X172895467Y-65890876D01*
X172654971Y-65859215D01*
X172654970Y-65859215D01*
X172412394Y-65859215D01*
X172412393Y-65859215D01*
X172171896Y-65890876D01*
X171937577Y-65953662D01*
X171713476Y-66046488D01*
X171713467Y-66046492D01*
X171503388Y-66167782D01*
X171310945Y-66315448D01*
X171310938Y-66315454D01*
X171139421Y-66486971D01*
X171139415Y-66486978D01*
X170991749Y-66679421D01*
X170870459Y-66889500D01*
X170870455Y-66889509D01*
X170777629Y-67113610D01*
X170714843Y-67347929D01*
X170683182Y-67588426D01*
X161207465Y-67588426D01*
X161187015Y-67550975D01*
X161184181Y-67524617D01*
X161184181Y-66176844D01*
X161184180Y-66176838D01*
X161184179Y-66176831D01*
X161177773Y-66117232D01*
X161151388Y-66046491D01*
X161127479Y-65982386D01*
X161127475Y-65982379D01*
X161041229Y-65867170D01*
X161041226Y-65867167D01*
X160926017Y-65780921D01*
X160926010Y-65780917D01*
X160791164Y-65730623D01*
X160791165Y-65730623D01*
X160731565Y-65724216D01*
X160731563Y-65724215D01*
X160731555Y-65724215D01*
X160731546Y-65724215D01*
X158935811Y-65724215D01*
X158935805Y-65724216D01*
X158876198Y-65730623D01*
X158741353Y-65780917D01*
X158741346Y-65780921D01*
X158626137Y-65867167D01*
X158626134Y-65867170D01*
X158539888Y-65982379D01*
X158539884Y-65982386D01*
X158489590Y-66117232D01*
X158484156Y-66167779D01*
X158483183Y-66176838D01*
X158483182Y-66176850D01*
X158483182Y-67972585D01*
X158483183Y-67972591D01*
X158489590Y-68032198D01*
X158539884Y-68167043D01*
X158539888Y-68167050D01*
X158626134Y-68282259D01*
X158626137Y-68282262D01*
X158741346Y-68368508D01*
X158741353Y-68368512D01*
X158872764Y-68417525D01*
X158928698Y-68459396D01*
X158953115Y-68524860D01*
X158938264Y-68593133D01*
X158917113Y-68621388D01*
X158803571Y-68734930D01*
X158678633Y-68906894D01*
X158582126Y-69096300D01*
X158516435Y-69298475D01*
X158483182Y-69508428D01*
X158483182Y-69721001D01*
X158516435Y-69930954D01*
X158582126Y-70133129D01*
X158678633Y-70322535D01*
X158803572Y-70494501D01*
X158953895Y-70644824D01*
X159125861Y-70769763D01*
X159125863Y-70769764D01*
X159125866Y-70769766D01*
X159135175Y-70774509D01*
X159185972Y-70822481D01*
X159202769Y-70890302D01*
X159180234Y-70956437D01*
X159135187Y-70995475D01*
X159126128Y-71000091D01*
X159126122Y-71000095D01*
X159071964Y-71039442D01*
X159071964Y-71039443D01*
X159704273Y-71671752D01*
X159640689Y-71688790D01*
X159526675Y-71754616D01*
X159433583Y-71847708D01*
X159367757Y-71961722D01*
X159350719Y-72025306D01*
X158718410Y-71392997D01*
X158718409Y-71392997D01*
X158679062Y-71447154D01*
X158582586Y-71636497D01*
X158516924Y-71838584D01*
X158516924Y-71838587D01*
X158483682Y-72048468D01*
X158483682Y-72260961D01*
X158516924Y-72470842D01*
X158516924Y-72470845D01*
X158582586Y-72672932D01*
X158679057Y-72862265D01*
X158718410Y-72916431D01*
X159350718Y-72284122D01*
X159367757Y-72347708D01*
X159433583Y-72461722D01*
X159526675Y-72554814D01*
X159640689Y-72620640D01*
X159704272Y-72637677D01*
X159071964Y-73269984D01*
X159071964Y-73269985D01*
X159126134Y-73309341D01*
X159126133Y-73309341D01*
X159135177Y-73313949D01*
X159185974Y-73361923D01*
X159202769Y-73429744D01*
X159180232Y-73495879D01*
X159135181Y-73534917D01*
X159125864Y-73539664D01*
X158953895Y-73664605D01*
X158803572Y-73814928D01*
X158678633Y-73986894D01*
X158582126Y-74176300D01*
X158516435Y-74378475D01*
X158483182Y-74588428D01*
X158483182Y-74801001D01*
X158516435Y-75010954D01*
X158582126Y-75213129D01*
X158678633Y-75402535D01*
X158803572Y-75574501D01*
X158953895Y-75724824D01*
X159125864Y-75849765D01*
X159134628Y-75854231D01*
X159185424Y-75902206D01*
X159202218Y-75970027D01*
X159179680Y-76036162D01*
X159134628Y-76075199D01*
X159125864Y-76079664D01*
X158953895Y-76204605D01*
X158803572Y-76354928D01*
X158678633Y-76526894D01*
X158582126Y-76716300D01*
X158516435Y-76918475D01*
X158502860Y-77004187D01*
X158483182Y-77128428D01*
X158483182Y-77341002D01*
X158516436Y-77550958D01*
X158520597Y-77563765D01*
X158582126Y-77753129D01*
X158678633Y-77942535D01*
X158803572Y-78114501D01*
X158953895Y-78264824D01*
X159125864Y-78389765D01*
X159134628Y-78394231D01*
X159185424Y-78442206D01*
X159202218Y-78510027D01*
X159179680Y-78576162D01*
X159134628Y-78615199D01*
X159125864Y-78619664D01*
X158953895Y-78744605D01*
X158803572Y-78894928D01*
X158678633Y-79066894D01*
X158582126Y-79256300D01*
X158516435Y-79458475D01*
X158483182Y-79668428D01*
X158483182Y-79881002D01*
X158516436Y-80090958D01*
X158567969Y-80249561D01*
X158582126Y-80293129D01*
X158678633Y-80482535D01*
X158803572Y-80654501D01*
X158953895Y-80804824D01*
X159125864Y-80929765D01*
X159134628Y-80934231D01*
X159185424Y-80982206D01*
X159202218Y-81050027D01*
X159179680Y-81116162D01*
X159134628Y-81155199D01*
X159125864Y-81159664D01*
X158953895Y-81284605D01*
X158803572Y-81434928D01*
X158678633Y-81606894D01*
X158582126Y-81796300D01*
X158516435Y-81998475D01*
X158483182Y-82208428D01*
X158483182Y-82421001D01*
X158516435Y-82630954D01*
X158582126Y-82833129D01*
X158678633Y-83022535D01*
X158803572Y-83194501D01*
X158953895Y-83344824D01*
X159125864Y-83469765D01*
X159134628Y-83474231D01*
X159185424Y-83522206D01*
X159202218Y-83590027D01*
X159179680Y-83656162D01*
X159134628Y-83695199D01*
X159125864Y-83699664D01*
X158953895Y-83824605D01*
X158803572Y-83974928D01*
X158678633Y-84146894D01*
X158582126Y-84336300D01*
X158516435Y-84538475D01*
X158483182Y-84748428D01*
X158483182Y-84961002D01*
X158516436Y-85170958D01*
X158579485Y-85365003D01*
X158582126Y-85373129D01*
X158678633Y-85562535D01*
X158803572Y-85734501D01*
X158953895Y-85884824D01*
X159125864Y-86009765D01*
X159134628Y-86014231D01*
X159185424Y-86062206D01*
X159202218Y-86130027D01*
X159179680Y-86196162D01*
X159134628Y-86235199D01*
X159125864Y-86239664D01*
X158953895Y-86364605D01*
X158803572Y-86514928D01*
X158678633Y-86686894D01*
X158582126Y-86876300D01*
X158516435Y-87078475D01*
X158483182Y-87288428D01*
X158483182Y-87501002D01*
X158516436Y-87710958D01*
X158579485Y-87905003D01*
X158582126Y-87913129D01*
X158678633Y-88102535D01*
X158803572Y-88274501D01*
X158953895Y-88424824D01*
X159125864Y-88549765D01*
X159134628Y-88554231D01*
X159185424Y-88602206D01*
X159202218Y-88670027D01*
X159179680Y-88736162D01*
X159134628Y-88775199D01*
X159125864Y-88779664D01*
X158953895Y-88904605D01*
X158803572Y-89054928D01*
X158678633Y-89226894D01*
X158582126Y-89416300D01*
X158516435Y-89618475D01*
X158483182Y-89828428D01*
X158483182Y-90041002D01*
X158516436Y-90250958D01*
X158579485Y-90445003D01*
X158582126Y-90453129D01*
X158678633Y-90642535D01*
X158803572Y-90814501D01*
X158953895Y-90964824D01*
X159125864Y-91089765D01*
X159134628Y-91094231D01*
X159185424Y-91142206D01*
X159202218Y-91210027D01*
X159179680Y-91276162D01*
X159134628Y-91315199D01*
X159125864Y-91319664D01*
X158953895Y-91444605D01*
X158803572Y-91594928D01*
X158678633Y-91766894D01*
X158582126Y-91956300D01*
X158516435Y-92158475D01*
X158483182Y-92368428D01*
X158483182Y-92581002D01*
X158516436Y-92790958D01*
X158580277Y-92987441D01*
X158582126Y-92993129D01*
X158678633Y-93182535D01*
X158803572Y-93354501D01*
X158953895Y-93504824D01*
X159125861Y-93629763D01*
X159125863Y-93629764D01*
X159125866Y-93629766D01*
X159315270Y-93726272D01*
X159517439Y-93791961D01*
X159727395Y-93825215D01*
X159727396Y-93825215D01*
X159939968Y-93825215D01*
X159939969Y-93825215D01*
X160149925Y-93791961D01*
X160352094Y-93726272D01*
X160541498Y-93629766D01*
X160563471Y-93613801D01*
X160713468Y-93504824D01*
X160713470Y-93504821D01*
X160713474Y-93504819D01*
X160863786Y-93354507D01*
X160863788Y-93354503D01*
X160863791Y-93354501D01*
X160988730Y-93182535D01*
X160988729Y-93182535D01*
X160988733Y-93182531D01*
X161085239Y-92993127D01*
X161150928Y-92790958D01*
X161184182Y-92581002D01*
X161184182Y-92368428D01*
X161150928Y-92158472D01*
X161085239Y-91956303D01*
X160988733Y-91766899D01*
X160988731Y-91766896D01*
X160988730Y-91766894D01*
X160863791Y-91594928D01*
X160713468Y-91444605D01*
X160541502Y-91319666D01*
X160540797Y-91319306D01*
X160532736Y-91315200D01*
X160481941Y-91267227D01*
X160465145Y-91199407D01*
X160487681Y-91133271D01*
X160532736Y-91094230D01*
X160541498Y-91089766D01*
X160563471Y-91073801D01*
X160713468Y-90964824D01*
X160713470Y-90964821D01*
X160713474Y-90964819D01*
X160863786Y-90814507D01*
X160863788Y-90814503D01*
X160863791Y-90814501D01*
X160987584Y-90644112D01*
X160988733Y-90642531D01*
X161085239Y-90453127D01*
X161150928Y-90250958D01*
X161184182Y-90041002D01*
X161184182Y-89828428D01*
X161150928Y-89618472D01*
X161085239Y-89416303D01*
X160988733Y-89226899D01*
X160988731Y-89226896D01*
X160988730Y-89226894D01*
X160863791Y-89054928D01*
X160713468Y-88904605D01*
X160541502Y-88779666D01*
X160540797Y-88779306D01*
X160532736Y-88775200D01*
X160481941Y-88727227D01*
X160465145Y-88659407D01*
X160487681Y-88593271D01*
X160532736Y-88554230D01*
X160541498Y-88549766D01*
X160563471Y-88533801D01*
X160713468Y-88424824D01*
X160713470Y-88424821D01*
X160713474Y-88424819D01*
X160863786Y-88274507D01*
X160863788Y-88274503D01*
X160863791Y-88274501D01*
X160987584Y-88104112D01*
X160988733Y-88102531D01*
X161085239Y-87913127D01*
X161150928Y-87710958D01*
X161184182Y-87501002D01*
X161184182Y-87288428D01*
X161150928Y-87078472D01*
X161085239Y-86876303D01*
X160988733Y-86686899D01*
X160988731Y-86686896D01*
X160988730Y-86686894D01*
X160863791Y-86514928D01*
X160713468Y-86364605D01*
X160541502Y-86239666D01*
X160540797Y-86239306D01*
X160532736Y-86235200D01*
X160481941Y-86187227D01*
X160465145Y-86119407D01*
X160487681Y-86053271D01*
X160532736Y-86014230D01*
X160541498Y-86009766D01*
X160651973Y-85929502D01*
X160713468Y-85884824D01*
X160713470Y-85884821D01*
X160713474Y-85884819D01*
X160863786Y-85734507D01*
X160863788Y-85734503D01*
X160863791Y-85734501D01*
X160987584Y-85564112D01*
X160988733Y-85562531D01*
X161085239Y-85373127D01*
X161150928Y-85170958D01*
X161184182Y-84961002D01*
X161184182Y-84748428D01*
X161150928Y-84538472D01*
X161085239Y-84336303D01*
X160988733Y-84146899D01*
X160988731Y-84146896D01*
X160988730Y-84146894D01*
X160863791Y-83974928D01*
X160713468Y-83824605D01*
X160541502Y-83699666D01*
X160540797Y-83699306D01*
X160532736Y-83695200D01*
X160481941Y-83647227D01*
X160465145Y-83579407D01*
X160487681Y-83513271D01*
X160532736Y-83474230D01*
X160541498Y-83469766D01*
X160563471Y-83453801D01*
X160713468Y-83344824D01*
X160713470Y-83344821D01*
X160713474Y-83344819D01*
X160863786Y-83194507D01*
X160863788Y-83194503D01*
X160863791Y-83194501D01*
X160972768Y-83044504D01*
X160988733Y-83022531D01*
X161085239Y-82833127D01*
X161150928Y-82630958D01*
X161184182Y-82421002D01*
X161184182Y-82208428D01*
X161150928Y-81998472D01*
X161085239Y-81796303D01*
X160988733Y-81606899D01*
X160988731Y-81606896D01*
X160988730Y-81606894D01*
X160863791Y-81434928D01*
X160713468Y-81284605D01*
X160541502Y-81159666D01*
X160540797Y-81159306D01*
X160532736Y-81155200D01*
X160481941Y-81107227D01*
X160465145Y-81039407D01*
X160487681Y-80973271D01*
X160532736Y-80934230D01*
X160541498Y-80929766D01*
X160651973Y-80849502D01*
X160713468Y-80804824D01*
X160713470Y-80804821D01*
X160713474Y-80804819D01*
X160863786Y-80654507D01*
X160863788Y-80654503D01*
X160863791Y-80654501D01*
X160988730Y-80482535D01*
X160988729Y-80482535D01*
X160988733Y-80482531D01*
X161085239Y-80293127D01*
X161150928Y-80090958D01*
X161184182Y-79881002D01*
X161184182Y-79668428D01*
X161150928Y-79458472D01*
X161085239Y-79256303D01*
X160988733Y-79066899D01*
X160988731Y-79066896D01*
X160988730Y-79066894D01*
X160863791Y-78894928D01*
X160713468Y-78744605D01*
X160541502Y-78619666D01*
X160540797Y-78619306D01*
X160532736Y-78615200D01*
X160481941Y-78567227D01*
X160465145Y-78499407D01*
X160487681Y-78433271D01*
X160532736Y-78394230D01*
X160541498Y-78389766D01*
X160651904Y-78309552D01*
X160713468Y-78264824D01*
X160713470Y-78264821D01*
X160713474Y-78264819D01*
X160863786Y-78114507D01*
X160863788Y-78114503D01*
X160863791Y-78114501D01*
X160988730Y-77942535D01*
X160988729Y-77942535D01*
X160988733Y-77942531D01*
X161085239Y-77753127D01*
X161150928Y-77550958D01*
X161184182Y-77341002D01*
X161184182Y-77128428D01*
X161150928Y-76918472D01*
X161085239Y-76716303D01*
X160988733Y-76526899D01*
X160988731Y-76526896D01*
X160988730Y-76526894D01*
X160863791Y-76354928D01*
X160713468Y-76204605D01*
X160541502Y-76079666D01*
X160540797Y-76079306D01*
X160532736Y-76075200D01*
X160481941Y-76027227D01*
X160465145Y-75959407D01*
X160487681Y-75893271D01*
X160532736Y-75854230D01*
X160541498Y-75849766D01*
X160641965Y-75776773D01*
X160713468Y-75724824D01*
X160713470Y-75724821D01*
X160713474Y-75724819D01*
X160863786Y-75574507D01*
X160863788Y-75574503D01*
X160863791Y-75574501D01*
X160988730Y-75402535D01*
X160988729Y-75402535D01*
X160988733Y-75402531D01*
X161085239Y-75213127D01*
X161150928Y-75010958D01*
X161184182Y-74801002D01*
X161184182Y-74588428D01*
X161150928Y-74378472D01*
X161085239Y-74176303D01*
X160988733Y-73986899D01*
X160988731Y-73986896D01*
X160988730Y-73986894D01*
X160863791Y-73814928D01*
X160713468Y-73664605D01*
X160541499Y-73539664D01*
X160532186Y-73534919D01*
X160481389Y-73486945D01*
X160464594Y-73419124D01*
X160487131Y-73352989D01*
X160532189Y-73313947D01*
X160541237Y-73309337D01*
X160595398Y-73269985D01*
X160595399Y-73269985D01*
X159963090Y-72637677D01*
X160026675Y-72620640D01*
X160140689Y-72554814D01*
X160233781Y-72461722D01*
X160299607Y-72347708D01*
X160316644Y-72284123D01*
X160948952Y-72916432D01*
X160948952Y-72916431D01*
X160988304Y-72862269D01*
X161084777Y-72672932D01*
X161150439Y-72470845D01*
X161150439Y-72470842D01*
X161183682Y-72260961D01*
X161183682Y-72048468D01*
X161150439Y-71838587D01*
X161150439Y-71838584D01*
X161084777Y-71636497D01*
X160988306Y-71447164D01*
X160948952Y-71392997D01*
X160948951Y-71392997D01*
X160316644Y-72025305D01*
X160299607Y-71961722D01*
X160233781Y-71847708D01*
X160140689Y-71754616D01*
X160026675Y-71688790D01*
X159963091Y-71671752D01*
X160595398Y-71039443D01*
X160541229Y-71000088D01*
X160541229Y-71000087D01*
X160532182Y-70995478D01*
X160481388Y-70947503D01*
X160464594Y-70879681D01*
X160487133Y-70813547D01*
X160532190Y-70774508D01*
X160541498Y-70769766D01*
X160620689Y-70712230D01*
X160713468Y-70644824D01*
X160713470Y-70644821D01*
X160713474Y-70644819D01*
X160863786Y-70494507D01*
X160863788Y-70494503D01*
X160863791Y-70494501D01*
X160988730Y-70322535D01*
X160988729Y-70322535D01*
X160988733Y-70322531D01*
X161085239Y-70133127D01*
X161150928Y-69930958D01*
X161184182Y-69721002D01*
X161184182Y-69573812D01*
X161203867Y-69506773D01*
X161256671Y-69461018D01*
X161325829Y-69451074D01*
X161389385Y-69480099D01*
X161395863Y-69486131D01*
X161736863Y-69827131D01*
X161770348Y-69888454D01*
X161773182Y-69914812D01*
X161773182Y-111382552D01*
X161753497Y-111449591D01*
X161700693Y-111495346D01*
X161675141Y-111503804D01*
X161670889Y-111504714D01*
X161504350Y-111559900D01*
X161504345Y-111559902D01*
X161355024Y-111652004D01*
X161230971Y-111776057D01*
X161138869Y-111925378D01*
X161138867Y-111925383D01*
X161116059Y-111994215D01*
X161083683Y-112091918D01*
X161083683Y-112091919D01*
X161083682Y-112091919D01*
X161073182Y-112194698D01*
X161073182Y-113394716D01*
X161073183Y-113394733D01*
X161083682Y-113497511D01*
X161083683Y-113497514D01*
X161138588Y-113663204D01*
X161138868Y-113664049D01*
X161230970Y-113813371D01*
X161355026Y-113937427D01*
X161504348Y-114029529D01*
X161670885Y-114084714D01*
X161670891Y-114084714D01*
X161675130Y-114085622D01*
X161736566Y-114118900D01*
X161770258Y-114180109D01*
X161773182Y-114206877D01*
X161773182Y-117766577D01*
X161753497Y-117833616D01*
X161700693Y-117879371D01*
X161631535Y-117889315D01*
X161610864Y-117884508D01*
X161419924Y-117822468D01*
X161258641Y-117796923D01*
X161209971Y-117789215D01*
X160997397Y-117789215D01*
X160948726Y-117796923D01*
X160787444Y-117822468D01*
X160701402Y-117850425D01*
X160596506Y-117884508D01*
X160585269Y-117888159D01*
X160395863Y-117984666D01*
X160223897Y-118109605D01*
X160073574Y-118259928D01*
X159948633Y-118431897D01*
X159944168Y-118440661D01*
X159896193Y-118491457D01*
X159828372Y-118508251D01*
X159762237Y-118485713D01*
X159723200Y-118440661D01*
X159718734Y-118431897D01*
X159593793Y-118259928D01*
X159443470Y-118109605D01*
X159271504Y-117984666D01*
X159082098Y-117888159D01*
X159082097Y-117888158D01*
X159082096Y-117888158D01*
X158879927Y-117822469D01*
X158879925Y-117822468D01*
X158879924Y-117822468D01*
X158718641Y-117796923D01*
X158669971Y-117789215D01*
X158457397Y-117789215D01*
X158408726Y-117796923D01*
X158247444Y-117822468D01*
X158161402Y-117850425D01*
X158056506Y-117884508D01*
X158045269Y-117888159D01*
X157855863Y-117984666D01*
X157683897Y-118109605D01*
X157533574Y-118259928D01*
X157408633Y-118431897D01*
X157404168Y-118440661D01*
X157356193Y-118491457D01*
X157288372Y-118508251D01*
X157222237Y-118485713D01*
X157183200Y-118440661D01*
X157178734Y-118431897D01*
X157053793Y-118259928D01*
X156960568Y-118166703D01*
X156927083Y-118105380D01*
X156932067Y-118035688D01*
X156973939Y-117979755D01*
X157000795Y-117964461D01*
X157037861Y-117949109D01*
X157168971Y-117861504D01*
X157280471Y-117750004D01*
X157368076Y-117618894D01*
X157428419Y-117473212D01*
X157459182Y-117318557D01*
X157459182Y-117160873D01*
X157459182Y-117160870D01*
X157459181Y-117160868D01*
X157437479Y-117051766D01*
X157428419Y-117006218D01*
X157419169Y-116983887D01*
X157368079Y-116860542D01*
X157368072Y-116860529D01*
X157280471Y-116729426D01*
X157280468Y-116729422D01*
X157168974Y-116617928D01*
X157168970Y-116617925D01*
X157037867Y-116530324D01*
X157037854Y-116530317D01*
X156892183Y-116469979D01*
X156892173Y-116469976D01*
X156736833Y-116439077D01*
X156674923Y-116406692D01*
X156673344Y-116405141D01*
X154525098Y-114256895D01*
X154491613Y-114195572D01*
X154496597Y-114125880D01*
X154538469Y-114069947D01*
X154603933Y-114045530D01*
X154612779Y-114045214D01*
X155326553Y-114045214D01*
X155326554Y-114045214D01*
X155386165Y-114038806D01*
X155521013Y-113988511D01*
X155522112Y-113987687D01*
X155523399Y-113987207D01*
X155528794Y-113984262D01*
X155529217Y-113985037D01*
X155587569Y-113963267D01*
X155643880Y-113972388D01*
X155724555Y-114005806D01*
X155843820Y-114029529D01*
X155922674Y-114045214D01*
X155922678Y-114045215D01*
X155922679Y-114045215D01*
X156124686Y-114045215D01*
X156124687Y-114045214D01*
X156322809Y-114005806D01*
X156509438Y-113928501D01*
X156590244Y-113874507D01*
X156656916Y-113853632D01*
X156724296Y-113872116D01*
X156728022Y-113874510D01*
X156808161Y-113928058D01*
X156808168Y-113928062D01*
X156994698Y-114005324D01*
X156994707Y-114005327D01*
X157043682Y-114015068D01*
X157043682Y-113160580D01*
X157043749Y-113156504D01*
X157044082Y-113146353D01*
X157049182Y-113120718D01*
X157049182Y-113080545D01*
X157063427Y-113094790D01*
X157148937Y-113144159D01*
X157244312Y-113169715D01*
X157343052Y-113169715D01*
X157438427Y-113144159D01*
X157523937Y-113094790D01*
X157543682Y-113075045D01*
X157543682Y-114015067D01*
X157592656Y-114005327D01*
X157592665Y-114005324D01*
X157779195Y-113928062D01*
X157779208Y-113928055D01*
X157947081Y-113815885D01*
X157947085Y-113815882D01*
X158089849Y-113673118D01*
X158089852Y-113673114D01*
X158202022Y-113505241D01*
X158202029Y-113505228D01*
X158279291Y-113318698D01*
X158279294Y-113318689D01*
X158318681Y-113120673D01*
X158318682Y-113120670D01*
X158318682Y-113044715D01*
X157574012Y-113044715D01*
X157593757Y-113024970D01*
X157643126Y-112939460D01*
X157668682Y-112844085D01*
X157668682Y-112745345D01*
X157643126Y-112649970D01*
X157593757Y-112564460D01*
X157574012Y-112544715D01*
X158318682Y-112544715D01*
X158318682Y-112468760D01*
X158318681Y-112468756D01*
X158279294Y-112270740D01*
X158279291Y-112270731D01*
X158202029Y-112084201D01*
X158202022Y-112084188D01*
X158089852Y-111916315D01*
X158089849Y-111916311D01*
X157947085Y-111773547D01*
X157947081Y-111773544D01*
X157779208Y-111661374D01*
X157779195Y-111661367D01*
X157592666Y-111584105D01*
X157592659Y-111584103D01*
X157543682Y-111574360D01*
X157543682Y-112514385D01*
X157523937Y-112494640D01*
X157438427Y-112445271D01*
X157343052Y-112419715D01*
X157244312Y-112419715D01*
X157148937Y-112445271D01*
X157063427Y-112494640D01*
X157049182Y-112508885D01*
X157049182Y-112468712D01*
X157046065Y-112453041D01*
X157043682Y-112428849D01*
X157043682Y-111574361D01*
X157043681Y-111574360D01*
X156994704Y-111584103D01*
X156994697Y-111584105D01*
X156808163Y-111661369D01*
X156808161Y-111661370D01*
X156728019Y-111714919D01*
X156661342Y-111735796D01*
X156593962Y-111717311D01*
X156590240Y-111714919D01*
X156509436Y-111660927D01*
X156322809Y-111583624D01*
X156322801Y-111583622D01*
X156124689Y-111544215D01*
X156124685Y-111544215D01*
X155922679Y-111544215D01*
X155922674Y-111544215D01*
X155724562Y-111583622D01*
X155724550Y-111583625D01*
X155643880Y-111617040D01*
X155574411Y-111624509D01*
X155529024Y-111604751D01*
X155528796Y-111605169D01*
X155524129Y-111602620D01*
X155522114Y-111601743D01*
X155521013Y-111600919D01*
X155521012Y-111600918D01*
X155521010Y-111600917D01*
X155386164Y-111550623D01*
X155386165Y-111550623D01*
X155326565Y-111544216D01*
X155326563Y-111544215D01*
X155326555Y-111544215D01*
X155326546Y-111544215D01*
X154180811Y-111544215D01*
X154180805Y-111544216D01*
X154121198Y-111550623D01*
X153986353Y-111600917D01*
X153986346Y-111600921D01*
X153871137Y-111687167D01*
X153871134Y-111687170D01*
X153784888Y-111802379D01*
X153784884Y-111802386D01*
X153734590Y-111937232D01*
X153728183Y-111996831D01*
X153728182Y-111996850D01*
X153728182Y-112621873D01*
X153708497Y-112688912D01*
X153655693Y-112734667D01*
X153586535Y-112744611D01*
X153535292Y-112724976D01*
X153472867Y-112683265D01*
X153472856Y-112683259D01*
X153327185Y-112622921D01*
X153327175Y-112622918D01*
X153193992Y-112596426D01*
X153132081Y-112564041D01*
X153097507Y-112503325D01*
X153094184Y-112474809D01*
X153094184Y-77459563D01*
X153094185Y-77459550D01*
X153094185Y-77291447D01*
X153094185Y-77291446D01*
X153053261Y-77138719D01*
X153051792Y-77136174D01*
X152974204Y-77001787D01*
X152862400Y-76889983D01*
X152862399Y-76889982D01*
X152858069Y-76885652D01*
X152858058Y-76885642D01*
X150643654Y-74671237D01*
X149305487Y-73333070D01*
X149305485Y-73333067D01*
X149186614Y-73214196D01*
X149186606Y-73214190D01*
X149084457Y-73155215D01*
X149049685Y-73135139D01*
X149049684Y-73135138D01*
X148988590Y-73118768D01*
X148896954Y-73094214D01*
X148738840Y-73094214D01*
X148731244Y-73094214D01*
X148731228Y-73094215D01*
X148076138Y-73094215D01*
X148076122Y-73094214D01*
X148068526Y-73094214D01*
X147910411Y-73094214D01*
X147834047Y-73114676D01*
X147757682Y-73135138D01*
X147757677Y-73135141D01*
X147620758Y-73214190D01*
X147620754Y-73214193D01*
X147516017Y-73318930D01*
X147516016Y-73318929D01*
X146923163Y-73911782D01*
X146923159Y-73911787D01*
X146880706Y-73985320D01*
X146880706Y-73985321D01*
X146844105Y-74048713D01*
X146803182Y-74201442D01*
X146803181Y-74201444D01*
X146803181Y-74369545D01*
X146803182Y-74369558D01*
X146803182Y-76996574D01*
X146803181Y-76996592D01*
X146803181Y-77162298D01*
X146803180Y-77162298D01*
X146844105Y-77315030D01*
X146859099Y-77340998D01*
X146859100Y-77341003D01*
X146859102Y-77341003D01*
X146923161Y-77451958D01*
X146923163Y-77451961D01*
X147042031Y-77570829D01*
X147042037Y-77570834D01*
X147605393Y-78134190D01*
X147638878Y-78195513D01*
X147633894Y-78265205D01*
X147605394Y-78309552D01*
X147508947Y-78405999D01*
X147508945Y-78406001D01*
X146234968Y-79679979D01*
X146123163Y-79791783D01*
X146123161Y-79791786D01*
X146071654Y-79881001D01*
X146071653Y-79881002D01*
X146044106Y-79928714D01*
X146044105Y-79928715D01*
X146003181Y-80081445D01*
X146003181Y-80249548D01*
X146003182Y-80249561D01*
X146003182Y-92557610D01*
X145983497Y-92624649D01*
X145966863Y-92645291D01*
X140299577Y-98312576D01*
X140238254Y-98346061D01*
X140168562Y-98341077D01*
X140143005Y-98327997D01*
X140030099Y-98252555D01*
X140030086Y-98252548D01*
X139884415Y-98192210D01*
X139884403Y-98192207D01*
X139729759Y-98161446D01*
X139729756Y-98161446D01*
X139572072Y-98161446D01*
X139572069Y-98161446D01*
X139417424Y-98192207D01*
X139417412Y-98192210D01*
X139271741Y-98252548D01*
X139271728Y-98252555D01*
X139140625Y-98340156D01*
X139140621Y-98340159D01*
X139029127Y-98451653D01*
X139029124Y-98451657D01*
X138941523Y-98582760D01*
X138941516Y-98582773D01*
X138881178Y-98728444D01*
X138881175Y-98728454D01*
X138850275Y-98883796D01*
X138817890Y-98945707D01*
X138816339Y-98947285D01*
X133818419Y-103945205D01*
X128824968Y-108938656D01*
X128824966Y-108938658D01*
X128769064Y-108994559D01*
X128713163Y-109050460D01*
X128713162Y-109050462D01*
X128699678Y-109073818D01*
X128634105Y-109187393D01*
X128593181Y-109340121D01*
X128593181Y-109340123D01*
X128593181Y-109508224D01*
X128593182Y-109508237D01*
X128593182Y-120576574D01*
X128593181Y-120576592D01*
X128593181Y-120742298D01*
X128593180Y-120742298D01*
X119193682Y-120742298D01*
X119193682Y-118195697D01*
X120433182Y-118195697D01*
X120433182Y-118400400D01*
X120465204Y-118602583D01*
X120528463Y-118797272D01*
X120592373Y-118922702D01*
X120621267Y-118979408D01*
X120621397Y-118979662D01*
X120741710Y-119145262D01*
X120886468Y-119290020D01*
X120998080Y-119371109D01*
X121052072Y-119410336D01*
X121168289Y-119469552D01*
X121234458Y-119503267D01*
X121234460Y-119503267D01*
X121234463Y-119503269D01*
X121338819Y-119537176D01*
X121429147Y-119566526D01*
X121530239Y-119582537D01*
X121631330Y-119598549D01*
X121631331Y-119598549D01*
X121836033Y-119598549D01*
X121836034Y-119598549D01*
X122038216Y-119566526D01*
X122232901Y-119503269D01*
X122415292Y-119410336D01*
X122508272Y-119342781D01*
X122580895Y-119290020D01*
X122580897Y-119290017D01*
X122580901Y-119290015D01*
X122725648Y-119145268D01*
X122725650Y-119145264D01*
X122725653Y-119145262D01*
X122810630Y-119028299D01*
X122845969Y-118979659D01*
X122938902Y-118797268D01*
X123002159Y-118602583D01*
X123034182Y-118400401D01*
X123034182Y-118195731D01*
X125433682Y-118195731D01*
X125433682Y-118400366D01*
X125465691Y-118602466D01*
X125528926Y-118797080D01*
X125621823Y-118979399D01*
X125621829Y-118979408D01*
X125654205Y-119023970D01*
X125654206Y-119023971D01*
X126333682Y-118344495D01*
X126333682Y-118350710D01*
X126360941Y-118452443D01*
X126413602Y-118543655D01*
X126488076Y-118618129D01*
X126579288Y-118670790D01*
X126681021Y-118698049D01*
X126687235Y-118698049D01*
X126007758Y-119377523D01*
X126052332Y-119409908D01*
X126234650Y-119502804D01*
X126429264Y-119566039D01*
X126631365Y-119598049D01*
X126835999Y-119598049D01*
X127038099Y-119566039D01*
X127232713Y-119502804D01*
X127415031Y-119409908D01*
X127459603Y-119377523D01*
X126780129Y-118698049D01*
X126786343Y-118698049D01*
X126888076Y-118670790D01*
X126979288Y-118618129D01*
X127053762Y-118543655D01*
X127106423Y-118452443D01*
X127133682Y-118350710D01*
X127133682Y-118344497D01*
X127813156Y-119023971D01*
X127813156Y-119023970D01*
X127845541Y-118979398D01*
X127938437Y-118797080D01*
X128001672Y-118602466D01*
X128033682Y-118400366D01*
X128033682Y-118195731D01*
X128001672Y-117993631D01*
X127938437Y-117799017D01*
X127845541Y-117616699D01*
X127813156Y-117572126D01*
X127813156Y-117572125D01*
X127133682Y-118251600D01*
X127133682Y-118245388D01*
X127106423Y-118143655D01*
X127053762Y-118052443D01*
X126979288Y-117977969D01*
X126888076Y-117925308D01*
X126786343Y-117898049D01*
X126780128Y-117898049D01*
X127459604Y-117218573D01*
X127459603Y-117218572D01*
X127415041Y-117186196D01*
X127415032Y-117186190D01*
X127232713Y-117093293D01*
X127038099Y-117030058D01*
X126835999Y-116998049D01*
X126631365Y-116998049D01*
X126429264Y-117030058D01*
X126234650Y-117093293D01*
X126052326Y-117186192D01*
X126007759Y-117218572D01*
X126007759Y-117218573D01*
X126687236Y-117898049D01*
X126681021Y-117898049D01*
X126579288Y-117925308D01*
X126488076Y-117977969D01*
X126413602Y-118052443D01*
X126360941Y-118143655D01*
X126333682Y-118245388D01*
X126333682Y-118251602D01*
X125654206Y-117572126D01*
X125654205Y-117572126D01*
X125621825Y-117616693D01*
X125528926Y-117799017D01*
X125465691Y-117993631D01*
X125433682Y-118195731D01*
X123034182Y-118195731D01*
X123034182Y-118195697D01*
X123017971Y-118093345D01*
X123002159Y-117993514D01*
X122951046Y-117836206D01*
X122938902Y-117798830D01*
X122938900Y-117798827D01*
X122938900Y-117798825D01*
X122897068Y-117716726D01*
X122845969Y-117616439D01*
X122813774Y-117572126D01*
X122725653Y-117450835D01*
X122580895Y-117306077D01*
X122415295Y-117185764D01*
X122415294Y-117185763D01*
X122415292Y-117185762D01*
X122318204Y-117136293D01*
X122232905Y-117092830D01*
X122038216Y-117029571D01*
X121863677Y-117001927D01*
X121836034Y-116997549D01*
X121631330Y-116997549D01*
X121607011Y-117001400D01*
X121429147Y-117029571D01*
X121234458Y-117092830D01*
X121052068Y-117185764D01*
X120886468Y-117306077D01*
X120741710Y-117450835D01*
X120621397Y-117616435D01*
X120528463Y-117798825D01*
X120465204Y-117993514D01*
X120433182Y-118195697D01*
X119193682Y-118195697D01*
X119193682Y-107608428D01*
X122923182Y-107608428D01*
X122923182Y-107821002D01*
X122956436Y-108030958D01*
X123008542Y-108191324D01*
X123022126Y-108233129D01*
X123118633Y-108422535D01*
X123243572Y-108594501D01*
X123357112Y-108708041D01*
X123390597Y-108769364D01*
X123385613Y-108839056D01*
X123343741Y-108894989D01*
X123312765Y-108911904D01*
X123181351Y-108960918D01*
X123181346Y-108960921D01*
X123066137Y-109047167D01*
X123066134Y-109047170D01*
X122979888Y-109162379D01*
X122979884Y-109162386D01*
X122929590Y-109297232D01*
X122923183Y-109356831D01*
X122923182Y-109356850D01*
X122923182Y-111152585D01*
X122923183Y-111152591D01*
X122929590Y-111212198D01*
X122979884Y-111347043D01*
X122979888Y-111347050D01*
X123066134Y-111462259D01*
X123066137Y-111462262D01*
X123181346Y-111548508D01*
X123181353Y-111548512D01*
X123316199Y-111598806D01*
X123316198Y-111598806D01*
X123323126Y-111599550D01*
X123375809Y-111605215D01*
X125171554Y-111605214D01*
X125231165Y-111598806D01*
X125366013Y-111548511D01*
X125481228Y-111462261D01*
X125567478Y-111347046D01*
X125617773Y-111212198D01*
X125624182Y-111152588D01*
X125624181Y-109356843D01*
X125624180Y-109356831D01*
X125624180Y-109356828D01*
X125622935Y-109345250D01*
X125622935Y-109345247D01*
X125617773Y-109297231D01*
X125567479Y-109162386D01*
X125567475Y-109162379D01*
X125481229Y-109047170D01*
X125481226Y-109047167D01*
X125366017Y-108960921D01*
X125366010Y-108960917D01*
X125234599Y-108911904D01*
X125178665Y-108870033D01*
X125154248Y-108804568D01*
X125169100Y-108736295D01*
X125190245Y-108708047D01*
X125303786Y-108594507D01*
X125428733Y-108422531D01*
X125525239Y-108233127D01*
X125590928Y-108030958D01*
X125624182Y-107821002D01*
X125624182Y-107608428D01*
X125590928Y-107398472D01*
X125525239Y-107196303D01*
X125428733Y-107006899D01*
X125428731Y-107006896D01*
X125428730Y-107006894D01*
X125303791Y-106834928D01*
X125153468Y-106684605D01*
X124981502Y-106559666D01*
X124792096Y-106463159D01*
X124792095Y-106463158D01*
X124792094Y-106463158D01*
X124589925Y-106397469D01*
X124589923Y-106397468D01*
X124589922Y-106397468D01*
X124428639Y-106371923D01*
X124379969Y-106364215D01*
X124167395Y-106364215D01*
X124118724Y-106371923D01*
X123957442Y-106397468D01*
X123755267Y-106463159D01*
X123565861Y-106559666D01*
X123393895Y-106684605D01*
X123243572Y-106834928D01*
X123118633Y-107006894D01*
X123022126Y-107196300D01*
X122956435Y-107398475D01*
X122943331Y-107481213D01*
X122923182Y-107608428D01*
X119193682Y-107608428D01*
X119193682Y-103190868D01*
X120298182Y-103190868D01*
X120298182Y-103348561D01*
X120328943Y-103503204D01*
X120328946Y-103503216D01*
X120389284Y-103648887D01*
X120389291Y-103648900D01*
X120477284Y-103780589D01*
X120498162Y-103847266D01*
X120498182Y-103849480D01*
X120498182Y-105864949D01*
X120478497Y-105931988D01*
X120477284Y-105933840D01*
X120389291Y-106065529D01*
X120389284Y-106065542D01*
X120328946Y-106211213D01*
X120328943Y-106211225D01*
X120298182Y-106365868D01*
X120298182Y-106523561D01*
X120328943Y-106678204D01*
X120328946Y-106678216D01*
X120389284Y-106823887D01*
X120389291Y-106823900D01*
X120476892Y-106955003D01*
X120476895Y-106955007D01*
X120588389Y-107066501D01*
X120588393Y-107066504D01*
X120719496Y-107154105D01*
X120719509Y-107154112D01*
X120821369Y-107196303D01*
X120865185Y-107214452D01*
X121019835Y-107245214D01*
X121019838Y-107245215D01*
X121019840Y-107245215D01*
X121177526Y-107245215D01*
X121177527Y-107245214D01*
X121332179Y-107214452D01*
X121477861Y-107154109D01*
X121608971Y-107066504D01*
X121720471Y-106955004D01*
X121808076Y-106823894D01*
X121868419Y-106678212D01*
X121899182Y-106523557D01*
X121899182Y-106365873D01*
X121899182Y-106365870D01*
X121899181Y-106365868D01*
X121868420Y-106211225D01*
X121868419Y-106211218D01*
X121868417Y-106211213D01*
X121808079Y-106065542D01*
X121808072Y-106065529D01*
X121720080Y-105933840D01*
X121699202Y-105867162D01*
X121699182Y-105864949D01*
X121699182Y-103849480D01*
X121718867Y-103782441D01*
X121720080Y-103780589D01*
X121808072Y-103648900D01*
X121808072Y-103648899D01*
X121808076Y-103648894D01*
X121868419Y-103503212D01*
X121899182Y-103348557D01*
X121899182Y-103190873D01*
X121899182Y-103190870D01*
X121899181Y-103190868D01*
X121868420Y-103036225D01*
X121868419Y-103036218D01*
X121868417Y-103036213D01*
X121808079Y-102890542D01*
X121808072Y-102890529D01*
X121720471Y-102759426D01*
X121720468Y-102759422D01*
X121608974Y-102647928D01*
X121608970Y-102647925D01*
X121477867Y-102560324D01*
X121477854Y-102560317D01*
X121332183Y-102499979D01*
X121332171Y-102499976D01*
X121177527Y-102469215D01*
X121177524Y-102469215D01*
X121019840Y-102469215D01*
X121019837Y-102469215D01*
X120865192Y-102499976D01*
X120865180Y-102499979D01*
X120719509Y-102560317D01*
X120719496Y-102560324D01*
X120588393Y-102647925D01*
X120588389Y-102647928D01*
X120476895Y-102759422D01*
X120476892Y-102759426D01*
X120389291Y-102890529D01*
X120389284Y-102890542D01*
X120328946Y-103036213D01*
X120328943Y-103036225D01*
X120298182Y-103190868D01*
X119193682Y-103190868D01*
X119193682Y-90448426D01*
X123058182Y-90448426D01*
X123058182Y-90691003D01*
X123089843Y-90931500D01*
X123152629Y-91165819D01*
X123216354Y-91319664D01*
X123245458Y-91389927D01*
X123366746Y-91600004D01*
X123366748Y-91600007D01*
X123366749Y-91600008D01*
X123514415Y-91792451D01*
X123514421Y-91792458D01*
X123685938Y-91963975D01*
X123685944Y-91963980D01*
X123878393Y-92111651D01*
X124088470Y-92232939D01*
X124312582Y-92325769D01*
X124546893Y-92388553D01*
X124727268Y-92412299D01*
X124787393Y-92420215D01*
X124787394Y-92420215D01*
X125029971Y-92420215D01*
X125078070Y-92413882D01*
X125270471Y-92388553D01*
X125504782Y-92325769D01*
X125728894Y-92232939D01*
X125938971Y-92111651D01*
X126131420Y-91963980D01*
X126302947Y-91792453D01*
X126450618Y-91600004D01*
X126571906Y-91389927D01*
X126664736Y-91165815D01*
X126727520Y-90931504D01*
X126759182Y-90691003D01*
X126759182Y-90448427D01*
X126727520Y-90207926D01*
X126664736Y-89973615D01*
X126571906Y-89749503D01*
X126450618Y-89539426D01*
X126302947Y-89346977D01*
X126302942Y-89346971D01*
X126131425Y-89175454D01*
X126131418Y-89175448D01*
X125938975Y-89027782D01*
X125938974Y-89027781D01*
X125938971Y-89027779D01*
X125728894Y-88906491D01*
X125728887Y-88906488D01*
X125504786Y-88813662D01*
X125270467Y-88750876D01*
X125029971Y-88719215D01*
X125029970Y-88719215D01*
X124787394Y-88719215D01*
X124787393Y-88719215D01*
X124546896Y-88750876D01*
X124312577Y-88813662D01*
X124088476Y-88906488D01*
X124088467Y-88906492D01*
X123878388Y-89027782D01*
X123685945Y-89175448D01*
X123685938Y-89175454D01*
X123514421Y-89346971D01*
X123514415Y-89346978D01*
X123366749Y-89539421D01*
X123245459Y-89749500D01*
X123245455Y-89749509D01*
X123152629Y-89973610D01*
X123089843Y-90207929D01*
X123058182Y-90448426D01*
X119193682Y-90448426D01*
X119193682Y-67588426D01*
X123058182Y-67588426D01*
X123058182Y-67831003D01*
X123089843Y-68071500D01*
X123152629Y-68305819D01*
X123243199Y-68524473D01*
X123245458Y-68529927D01*
X123366746Y-68740004D01*
X123366748Y-68740007D01*
X123366749Y-68740008D01*
X123514415Y-68932451D01*
X123514421Y-68932458D01*
X123685938Y-69103975D01*
X123685944Y-69103980D01*
X123878393Y-69251651D01*
X124088470Y-69372939D01*
X124312582Y-69465769D01*
X124546893Y-69528553D01*
X124727268Y-69552299D01*
X124787393Y-69560215D01*
X124787394Y-69560215D01*
X125029971Y-69560215D01*
X125078070Y-69553882D01*
X125270471Y-69528553D01*
X125345578Y-69508428D01*
X135623182Y-69508428D01*
X135623182Y-69721001D01*
X135656435Y-69930954D01*
X135722126Y-70133129D01*
X135818633Y-70322535D01*
X135943572Y-70494501D01*
X136093895Y-70644824D01*
X136265864Y-70769765D01*
X136274628Y-70774231D01*
X136325424Y-70822206D01*
X136342218Y-70890027D01*
X136319680Y-70956162D01*
X136274628Y-70995199D01*
X136265864Y-70999664D01*
X136093895Y-71124605D01*
X135943572Y-71274928D01*
X135818633Y-71446894D01*
X135722126Y-71636300D01*
X135656435Y-71838475D01*
X135623182Y-72048428D01*
X135623182Y-72261001D01*
X135656435Y-72470954D01*
X135722126Y-72673129D01*
X135818633Y-72862535D01*
X135943572Y-73034501D01*
X136093895Y-73184824D01*
X136265864Y-73309765D01*
X136274628Y-73314231D01*
X136325424Y-73362206D01*
X136342218Y-73430027D01*
X136319680Y-73496162D01*
X136274628Y-73535199D01*
X136265864Y-73539664D01*
X136093895Y-73664605D01*
X135943572Y-73814928D01*
X135818633Y-73986894D01*
X135722126Y-74176300D01*
X135656435Y-74378475D01*
X135623182Y-74588428D01*
X135623182Y-74801001D01*
X135656435Y-75010954D01*
X135722126Y-75213129D01*
X135818633Y-75402535D01*
X135943572Y-75574501D01*
X136093895Y-75724824D01*
X136265864Y-75849765D01*
X136274628Y-75854231D01*
X136325424Y-75902206D01*
X136342218Y-75970027D01*
X136319680Y-76036162D01*
X136274628Y-76075199D01*
X136265864Y-76079664D01*
X136093895Y-76204605D01*
X135943572Y-76354928D01*
X135818633Y-76526894D01*
X135722126Y-76716300D01*
X135656435Y-76918475D01*
X135642860Y-77004187D01*
X135623182Y-77128428D01*
X135623182Y-77341002D01*
X135656436Y-77550958D01*
X135660597Y-77563765D01*
X135722126Y-77753129D01*
X135818633Y-77942535D01*
X135943572Y-78114501D01*
X136093895Y-78264824D01*
X136265864Y-78389765D01*
X136274628Y-78394231D01*
X136325424Y-78442206D01*
X136342218Y-78510027D01*
X136319680Y-78576162D01*
X136274628Y-78615199D01*
X136265864Y-78619664D01*
X136093895Y-78744605D01*
X135943572Y-78894928D01*
X135818633Y-79066894D01*
X135722126Y-79256300D01*
X135656435Y-79458475D01*
X135623182Y-79668428D01*
X135623182Y-79881002D01*
X135656436Y-80090958D01*
X135707969Y-80249561D01*
X135722126Y-80293129D01*
X135818633Y-80482535D01*
X135943572Y-80654501D01*
X136093895Y-80804824D01*
X136265864Y-80929765D01*
X136274628Y-80934231D01*
X136325424Y-80982206D01*
X136342218Y-81050027D01*
X136319680Y-81116162D01*
X136274628Y-81155199D01*
X136265864Y-81159664D01*
X136093895Y-81284605D01*
X135943572Y-81434928D01*
X135818633Y-81606894D01*
X135722126Y-81796300D01*
X135656435Y-81998475D01*
X135623182Y-82208428D01*
X135623182Y-82421001D01*
X135656435Y-82630954D01*
X135722126Y-82833129D01*
X135818633Y-83022535D01*
X135943572Y-83194501D01*
X136093895Y-83344824D01*
X136265864Y-83469765D01*
X136274628Y-83474231D01*
X136325424Y-83522206D01*
X136342218Y-83590027D01*
X136319680Y-83656162D01*
X136274628Y-83695199D01*
X136265864Y-83699664D01*
X136093895Y-83824605D01*
X135943572Y-83974928D01*
X135818633Y-84146894D01*
X135722126Y-84336300D01*
X135656435Y-84538475D01*
X135623182Y-84748428D01*
X135623182Y-84961002D01*
X135656436Y-85170958D01*
X135719485Y-85365003D01*
X135722126Y-85373129D01*
X135818633Y-85562535D01*
X135943572Y-85734501D01*
X136093895Y-85884824D01*
X136265864Y-86009765D01*
X136274628Y-86014231D01*
X136325424Y-86062206D01*
X136342218Y-86130027D01*
X136319680Y-86196162D01*
X136274628Y-86235199D01*
X136265864Y-86239664D01*
X136093895Y-86364605D01*
X135943572Y-86514928D01*
X135818633Y-86686894D01*
X135722126Y-86876300D01*
X135656435Y-87078475D01*
X135623182Y-87288428D01*
X135623182Y-87501002D01*
X135656436Y-87710958D01*
X135719485Y-87905003D01*
X135722126Y-87913129D01*
X135818633Y-88102535D01*
X135943572Y-88274501D01*
X136093895Y-88424824D01*
X136265864Y-88549765D01*
X136274628Y-88554231D01*
X136325424Y-88602206D01*
X136342218Y-88670027D01*
X136319680Y-88736162D01*
X136274628Y-88775199D01*
X136265864Y-88779664D01*
X136093895Y-88904605D01*
X135943572Y-89054928D01*
X135818633Y-89226894D01*
X135722126Y-89416300D01*
X135656435Y-89618475D01*
X135623182Y-89828428D01*
X135623182Y-90041002D01*
X135656436Y-90250958D01*
X135719485Y-90445003D01*
X135722126Y-90453129D01*
X135818633Y-90642535D01*
X135943572Y-90814501D01*
X136093895Y-90964824D01*
X136265864Y-91089765D01*
X136274628Y-91094231D01*
X136325424Y-91142206D01*
X136342218Y-91210027D01*
X136319680Y-91276162D01*
X136274628Y-91315199D01*
X136265864Y-91319664D01*
X136093895Y-91444605D01*
X135943572Y-91594928D01*
X135818633Y-91766894D01*
X135722126Y-91956300D01*
X135656435Y-92158475D01*
X135623182Y-92368428D01*
X135623182Y-92581002D01*
X135656436Y-92790958D01*
X135720277Y-92987441D01*
X135722126Y-92993129D01*
X135818633Y-93182535D01*
X135943572Y-93354501D01*
X136093895Y-93504824D01*
X136265861Y-93629763D01*
X136265863Y-93629764D01*
X136265866Y-93629766D01*
X136455270Y-93726272D01*
X136657439Y-93791961D01*
X136867395Y-93825215D01*
X136867396Y-93825215D01*
X137079968Y-93825215D01*
X137079969Y-93825215D01*
X137289925Y-93791961D01*
X137492094Y-93726272D01*
X137681498Y-93629766D01*
X137703471Y-93613801D01*
X137853468Y-93504824D01*
X137853470Y-93504821D01*
X137853474Y-93504819D01*
X138003786Y-93354507D01*
X138003788Y-93354503D01*
X138003791Y-93354501D01*
X138128730Y-93182535D01*
X138128729Y-93182535D01*
X138128733Y-93182531D01*
X138225239Y-92993127D01*
X138290928Y-92790958D01*
X138324182Y-92581002D01*
X138324182Y-92368428D01*
X138290928Y-92158472D01*
X138225239Y-91956303D01*
X138128733Y-91766899D01*
X138128731Y-91766896D01*
X138128730Y-91766894D01*
X138003791Y-91594928D01*
X137853468Y-91444605D01*
X137681502Y-91319666D01*
X137680797Y-91319306D01*
X137672736Y-91315200D01*
X137621941Y-91267227D01*
X137605145Y-91199407D01*
X137627681Y-91133271D01*
X137672736Y-91094230D01*
X137681498Y-91089766D01*
X137703471Y-91073801D01*
X137853468Y-90964824D01*
X137853470Y-90964821D01*
X137853474Y-90964819D01*
X138003786Y-90814507D01*
X138003788Y-90814503D01*
X138003791Y-90814501D01*
X138127584Y-90644112D01*
X138128733Y-90642531D01*
X138225239Y-90453127D01*
X138290928Y-90250958D01*
X138324182Y-90041002D01*
X138324182Y-89828428D01*
X138290928Y-89618472D01*
X138225239Y-89416303D01*
X138128733Y-89226899D01*
X138128731Y-89226896D01*
X138128730Y-89226894D01*
X138003791Y-89054928D01*
X137853468Y-88904605D01*
X137681502Y-88779666D01*
X137680797Y-88779306D01*
X137672736Y-88775200D01*
X137621941Y-88727227D01*
X137605145Y-88659407D01*
X137627681Y-88593271D01*
X137672736Y-88554230D01*
X137681498Y-88549766D01*
X137703471Y-88533801D01*
X137853468Y-88424824D01*
X137853470Y-88424821D01*
X137853474Y-88424819D01*
X138003786Y-88274507D01*
X138003788Y-88274503D01*
X138003791Y-88274501D01*
X138127584Y-88104112D01*
X138128733Y-88102531D01*
X138225239Y-87913127D01*
X138290928Y-87710958D01*
X138324182Y-87501002D01*
X138324182Y-87288428D01*
X138290928Y-87078472D01*
X138225239Y-86876303D01*
X138128733Y-86686899D01*
X138128731Y-86686896D01*
X138128730Y-86686894D01*
X138003791Y-86514928D01*
X137853468Y-86364605D01*
X137681502Y-86239666D01*
X137680797Y-86239306D01*
X137672736Y-86235200D01*
X137621941Y-86187227D01*
X137605145Y-86119407D01*
X137627681Y-86053271D01*
X137672736Y-86014230D01*
X137681498Y-86009766D01*
X137791973Y-85929502D01*
X137853468Y-85884824D01*
X137853470Y-85884821D01*
X137853474Y-85884819D01*
X138003786Y-85734507D01*
X138003788Y-85734503D01*
X138003791Y-85734501D01*
X138127584Y-85564112D01*
X138128733Y-85562531D01*
X138225239Y-85373127D01*
X138290928Y-85170958D01*
X138324182Y-84961002D01*
X138324182Y-84748428D01*
X138290928Y-84538472D01*
X138225239Y-84336303D01*
X138128733Y-84146899D01*
X138128731Y-84146896D01*
X138128730Y-84146894D01*
X138003791Y-83974928D01*
X137853468Y-83824605D01*
X137681502Y-83699666D01*
X137680797Y-83699306D01*
X137672736Y-83695200D01*
X137621941Y-83647227D01*
X137605145Y-83579407D01*
X137627681Y-83513271D01*
X137672736Y-83474230D01*
X137681498Y-83469766D01*
X137703471Y-83453801D01*
X137853468Y-83344824D01*
X137853470Y-83344821D01*
X137853474Y-83344819D01*
X138003786Y-83194507D01*
X138003788Y-83194503D01*
X138003791Y-83194501D01*
X138112768Y-83044504D01*
X138128733Y-83022531D01*
X138225239Y-82833127D01*
X138290928Y-82630958D01*
X138324182Y-82421002D01*
X138324182Y-82208428D01*
X138290928Y-81998472D01*
X138225239Y-81796303D01*
X138128733Y-81606899D01*
X138128731Y-81606896D01*
X138128730Y-81606894D01*
X138003791Y-81434928D01*
X137853468Y-81284605D01*
X137681502Y-81159666D01*
X137680797Y-81159306D01*
X137672736Y-81155200D01*
X137621941Y-81107227D01*
X137605145Y-81039407D01*
X137627681Y-80973271D01*
X137672736Y-80934230D01*
X137681498Y-80929766D01*
X137791973Y-80849502D01*
X137853468Y-80804824D01*
X137853470Y-80804821D01*
X137853474Y-80804819D01*
X138003786Y-80654507D01*
X138003788Y-80654503D01*
X138003791Y-80654501D01*
X138128730Y-80482535D01*
X138128729Y-80482535D01*
X138128733Y-80482531D01*
X138225239Y-80293127D01*
X138290928Y-80090958D01*
X138324182Y-79881002D01*
X138324182Y-79668428D01*
X138290928Y-79458472D01*
X138225239Y-79256303D01*
X138128733Y-79066899D01*
X138128731Y-79066896D01*
X138128730Y-79066894D01*
X138003791Y-78894928D01*
X137853468Y-78744605D01*
X137681502Y-78619666D01*
X137680797Y-78619306D01*
X137672736Y-78615200D01*
X137621941Y-78567227D01*
X137605145Y-78499407D01*
X137627681Y-78433271D01*
X137672736Y-78394230D01*
X137681498Y-78389766D01*
X137791904Y-78309552D01*
X137853468Y-78264824D01*
X137853470Y-78264821D01*
X137853474Y-78264819D01*
X138003786Y-78114507D01*
X138003788Y-78114503D01*
X138003791Y-78114501D01*
X138128730Y-77942535D01*
X138128729Y-77942535D01*
X138128733Y-77942531D01*
X138225239Y-77753127D01*
X138290928Y-77550958D01*
X138324182Y-77341002D01*
X138324182Y-77128428D01*
X138290928Y-76918472D01*
X138225239Y-76716303D01*
X138128733Y-76526899D01*
X138128731Y-76526896D01*
X138128730Y-76526894D01*
X138003791Y-76354928D01*
X137853468Y-76204605D01*
X137681502Y-76079666D01*
X137680797Y-76079306D01*
X137672736Y-76075200D01*
X137621941Y-76027227D01*
X137605145Y-75959407D01*
X137627681Y-75893271D01*
X137672736Y-75854230D01*
X137681498Y-75849766D01*
X137781965Y-75776773D01*
X137853468Y-75724824D01*
X137853470Y-75724821D01*
X137853474Y-75724819D01*
X138003786Y-75574507D01*
X138003788Y-75574503D01*
X138003791Y-75574501D01*
X138128730Y-75402535D01*
X138128729Y-75402535D01*
X138128733Y-75402531D01*
X138225239Y-75213127D01*
X138290928Y-75010958D01*
X138324182Y-74801002D01*
X138324182Y-74588428D01*
X138290928Y-74378472D01*
X138225239Y-74176303D01*
X138128733Y-73986899D01*
X138128731Y-73986896D01*
X138128730Y-73986894D01*
X138003791Y-73814928D01*
X137853468Y-73664605D01*
X137681502Y-73539666D01*
X137680797Y-73539306D01*
X137672736Y-73535200D01*
X137621941Y-73487227D01*
X137605145Y-73419407D01*
X137627681Y-73353271D01*
X137672736Y-73314230D01*
X137681498Y-73309766D01*
X137813040Y-73214196D01*
X137853468Y-73184824D01*
X137853470Y-73184821D01*
X137853474Y-73184819D01*
X138003786Y-73034507D01*
X138003788Y-73034503D01*
X138003791Y-73034501D01*
X138128730Y-72862535D01*
X138128729Y-72862535D01*
X138128733Y-72862531D01*
X138225239Y-72673127D01*
X138290928Y-72470958D01*
X138324182Y-72261002D01*
X138324182Y-72048428D01*
X138290928Y-71838472D01*
X138225239Y-71636303D01*
X138128733Y-71446899D01*
X138128731Y-71446896D01*
X138128730Y-71446894D01*
X138003791Y-71274928D01*
X137853468Y-71124605D01*
X137681502Y-70999666D01*
X137673282Y-70995478D01*
X137672736Y-70995200D01*
X137621941Y-70947227D01*
X137605145Y-70879407D01*
X137627681Y-70813271D01*
X137672736Y-70774230D01*
X137681498Y-70769766D01*
X137703471Y-70753801D01*
X137853468Y-70644824D01*
X137853470Y-70644821D01*
X137853474Y-70644819D01*
X138003786Y-70494507D01*
X138003788Y-70494503D01*
X138003791Y-70494501D01*
X138128730Y-70322535D01*
X138128729Y-70322535D01*
X138128733Y-70322531D01*
X138225239Y-70133127D01*
X138290928Y-69930958D01*
X138324182Y-69721002D01*
X138324182Y-69508428D01*
X138290928Y-69298472D01*
X138225239Y-69096303D01*
X138128733Y-68906899D01*
X138128731Y-68906896D01*
X138128730Y-68906894D01*
X138003791Y-68734928D01*
X137889863Y-68621000D01*
X137856378Y-68559677D01*
X137861362Y-68489985D01*
X137903234Y-68434052D01*
X137934211Y-68417137D01*
X138065768Y-68368069D01*
X138065775Y-68368065D01*
X138180869Y-68281905D01*
X138180872Y-68281902D01*
X138267032Y-68166808D01*
X138267036Y-68166801D01*
X138317278Y-68032094D01*
X138317280Y-68032087D01*
X138323681Y-67972559D01*
X138323682Y-67972542D01*
X138323682Y-67324715D01*
X137406694Y-67324715D01*
X137439607Y-67267708D01*
X137473682Y-67140541D01*
X137473682Y-67008889D01*
X137439607Y-66881722D01*
X137406694Y-66824715D01*
X138323682Y-66824715D01*
X138323682Y-66176887D01*
X138323681Y-66176870D01*
X138317280Y-66117342D01*
X138317278Y-66117335D01*
X138267036Y-65982628D01*
X138267032Y-65982621D01*
X138180872Y-65867527D01*
X138180869Y-65867524D01*
X138065775Y-65781364D01*
X138065768Y-65781360D01*
X137931061Y-65731118D01*
X137931054Y-65731116D01*
X137871526Y-65724715D01*
X137223682Y-65724715D01*
X137223682Y-66641703D01*
X137166675Y-66608790D01*
X137039508Y-66574715D01*
X136907856Y-66574715D01*
X136780689Y-66608790D01*
X136723682Y-66641703D01*
X136723682Y-65724715D01*
X136075837Y-65724715D01*
X136016309Y-65731116D01*
X136016302Y-65731118D01*
X135881595Y-65781360D01*
X135881588Y-65781364D01*
X135766494Y-65867524D01*
X135766491Y-65867527D01*
X135680331Y-65982621D01*
X135680327Y-65982628D01*
X135630085Y-66117335D01*
X135630083Y-66117342D01*
X135623682Y-66176870D01*
X135623682Y-66824715D01*
X136540670Y-66824715D01*
X136507757Y-66881722D01*
X136473682Y-67008889D01*
X136473682Y-67140541D01*
X136507757Y-67267708D01*
X136540670Y-67324715D01*
X135623682Y-67324715D01*
X135623682Y-67972559D01*
X135630083Y-68032087D01*
X135630085Y-68032094D01*
X135680327Y-68166801D01*
X135680331Y-68166808D01*
X135766491Y-68281902D01*
X135766494Y-68281905D01*
X135881588Y-68368065D01*
X135881595Y-68368069D01*
X136013152Y-68417137D01*
X136069086Y-68459008D01*
X136093503Y-68524473D01*
X136078651Y-68592746D01*
X136057501Y-68621000D01*
X135943571Y-68734930D01*
X135818633Y-68906894D01*
X135722126Y-69096300D01*
X135656435Y-69298475D01*
X135623182Y-69508428D01*
X125345578Y-69508428D01*
X125504782Y-69465769D01*
X125604661Y-69424397D01*
X125690132Y-69388995D01*
X125704788Y-69382924D01*
X125728894Y-69372939D01*
X125938971Y-69251651D01*
X126131420Y-69103980D01*
X126302947Y-68932453D01*
X126450618Y-68740004D01*
X126571906Y-68529927D01*
X126664736Y-68305815D01*
X126727520Y-68071504D01*
X126759182Y-67831003D01*
X126759182Y-67588427D01*
X126727520Y-67347926D01*
X126664736Y-67113615D01*
X126571906Y-66889503D01*
X126450618Y-66679426D01*
X126302947Y-66486977D01*
X126302942Y-66486971D01*
X126131425Y-66315454D01*
X126131418Y-66315448D01*
X126074720Y-66271942D01*
X125938975Y-66167782D01*
X125938974Y-66167781D01*
X125938971Y-66167779D01*
X125728894Y-66046491D01*
X125728887Y-66046488D01*
X125504786Y-65953662D01*
X125270467Y-65890876D01*
X125029971Y-65859215D01*
X125029970Y-65859215D01*
X124787394Y-65859215D01*
X124787393Y-65859215D01*
X124546896Y-65890876D01*
X124312577Y-65953662D01*
X124088476Y-66046488D01*
X124088467Y-66046492D01*
X123878388Y-66167782D01*
X123685945Y-66315448D01*
X123685938Y-66315454D01*
X123514421Y-66486971D01*
X123514415Y-66486978D01*
X123366749Y-66679421D01*
X123245459Y-66889500D01*
X123245455Y-66889509D01*
X123152629Y-67113610D01*
X123089843Y-67347929D01*
X123058182Y-67588426D01*
X119193682Y-67588426D01*
X119193682Y-64658715D01*
X119213367Y-64591676D01*
X119266171Y-64545921D01*
X119317682Y-64534715D01*
X176854682Y-64534715D01*
X176921721Y-64554400D01*
G37*
%TD.AperFunction*%
%TD*%
M02*
